<svg width="3813" height="1509" xmlns="http://www.w3.org/2000/svg" xmlns:xlink="http://www.w3.org/1999/xlink" xml:space="preserve" overflow="hidden"><g transform="translate(-332 -529)"><rect x="1603" y="1224" width="1194" height="230" fill="#E7E6E6"/><path d="M1666.46 1315.45 1668.27 1315.45 1662.15 1342.73 1663.15 1342.73C1664.71 1342.73 1666.47 1342.05 1668.42 1340.68 1670.36 1339.32 1671.92 1338.05 1673.09 1336.89 1674.25 1335.72 1674.84 1334.6 1674.84 1333.51 1674.84 1332.49 1674.13 1331.92 1672.71 1331.79L1673.06 1330.26 1683.18 1330.26 1683.77 1331.79C1682.05 1333.36 1680.21 1334.89 1678.27 1336.39L1670.52 1342.39 1673.59 1353.67C1673.84 1354.63 1674.06 1355.32 1674.26 1355.75 1674.46 1356.17 1674.69 1356.49 1674.95 1356.7 1675.21 1356.91 1675.56 1357.01 1675.99 1357.01 1676.53 1357.01 1677.18 1356.72 1677.93 1356.14 1678.68 1355.55 1679.53 1354.71 1680.49 1353.61L1682.27 1355.36C1680.4 1357.34 1678.85 1358.71 1677.62 1359.48 1676.39 1360.25 1675.2 1360.64 1674.06 1360.64 1672.64 1360.64 1671.51 1360.24 1670.68 1359.43 1669.85 1358.63 1669.19 1357.29 1668.71 1355.42L1666.65 1347.29C1666.44 1346.48 1666.23 1345.92 1666.02 1345.61 1665.82 1345.29 1665.58 1345.09 1665.31 1344.98 1665.03 1344.88 1664.56 1344.82 1663.87 1344.82L1661.71 1344.82 1658.46 1360.14 1653.06 1360.14 1661.09 1324.42C1661.36 1323.21 1661.55 1322.27 1661.67 1321.59 1661.78 1320.91 1661.84 1320.31 1661.84 1319.79 1661.84 1318.92 1661.57 1318.3 1661.04 1317.95 1660.51 1317.6 1659.56 1317.4 1658.18 1317.36L1658.56 1315.73Z" fill-rule="evenodd"/><text fill="#000000" fill-opacity="0" font-family="Arial,Arial_MSFontService,sans-serif" font-size="45.1875" x="1653.06" y="1354.99">𝑘</text><path d="M1697.42 1329.73C1698.74 1329.73 1699.77 1330.16 1700.53 1331.03 1701.29 1331.89 1701.67 1333.02 1701.67 1334.42 1701.67 1335.56 1701.43 1336.78 1700.96 1338.07L1701.33 1338.2C1703.25 1335.35 1705.15 1333.23 1707.05 1331.84 1708.95 1330.46 1710.86 1329.76 1712.8 1329.76 1714.8 1329.76 1716.32 1330.33 1717.36 1331.47 1718.4 1332.6 1718.92 1334.24 1718.92 1336.39L1718.92 1336.82C1718.92 1336.97 1718.91 1337.13 1718.89 1337.29 1720.68 1334.75 1722.47 1332.86 1724.25 1331.62 1726.03 1330.38 1727.88 1329.76 1729.8 1329.76 1731.72 1329.76 1733.2 1330.31 1734.24 1331.42 1735.28 1332.52 1735.8 1334.07 1735.8 1336.07 1735.8 1337.39 1735.5 1339.25 1734.89 1341.67L1732.86 1349.86C1732.3 1352.13 1732.02 1353.73 1732.02 1354.67 1732.02 1355.5 1732.15 1356.11 1732.42 1356.48 1732.7 1356.86 1733.12 1357.04 1733.71 1357.04 1734.33 1357.04 1735 1356.79 1735.71 1356.28 1736.41 1355.77 1737.41 1354.79 1738.71 1353.36L1740.49 1355.11C1738.7 1357 1737.13 1358.4 1735.8 1359.29 1734.47 1360.19 1732.95 1360.64 1731.24 1360.64 1729.88 1360.64 1728.8 1360.15 1727.99 1359.18 1727.17 1358.22 1726.77 1356.98 1726.77 1355.48 1726.77 1354.13 1727.11 1352.14 1727.8 1349.51L1729.17 1344.11C1729.67 1342.15 1730 1340.7 1730.16 1339.76 1730.32 1338.82 1730.39 1338.06 1730.39 1337.48 1730.39 1336.04 1730.15 1335.01 1729.67 1334.37 1729.2 1333.74 1728.41 1333.42 1727.33 1333.42 1726.46 1333.42 1725.52 1333.75 1724.52 1334.4 1723.52 1335.06 1722.47 1336.08 1721.36 1337.47 1720.26 1338.85 1719.36 1340.22 1718.66 1341.56 1717.96 1342.9 1717.4 1344.54 1716.99 1346.48L1714.14 1360.14 1708.74 1360.14 1712.33 1344.26C1712.77 1342.32 1713.07 1340.89 1713.22 1339.97 1713.38 1339.04 1713.46 1338.24 1713.46 1337.57 1713.46 1336.07 1713.19 1335.01 1712.66 1334.37 1712.13 1333.74 1711.3 1333.42 1710.17 1333.42 1709.38 1333.42 1708.48 1333.75 1707.47 1334.4 1706.46 1335.06 1705.38 1336.11 1704.24 1337.56 1703.09 1339.01 1702.2 1340.4 1701.55 1341.73 1700.9 1343.06 1700.36 1344.69 1699.92 1346.61L1696.96 1360.14 1691.55 1360.14 1696.11 1340.32C1696.57 1338.32 1696.8 1336.78 1696.8 1335.7 1696.8 1334.87 1696.66 1334.26 1696.39 1333.89 1696.12 1333.51 1695.7 1333.32 1695.11 1333.32 1694.47 1333.32 1693.78 1333.59 1693.07 1334.12 1692.35 1334.65 1691.36 1335.62 1690.11 1337.01L1688.33 1335.26C1690.16 1333.35 1691.74 1331.94 1693.07 1331.06 1694.39 1330.17 1695.84 1329.73 1697.42 1329.73Z" fill-rule="evenodd"/><text fill="#000000" fill-opacity="0" font-family="Arial,Arial_MSFontService,sans-serif" font-size="30.9062" x="1688.33" y="1356.77">𝑚</text><path d="M1775.07 1352.82 1776.66 1352.82 1771.88 1375.31C1771.5 1377.05 1771.01 1378.55 1770.4 1379.79 1769.8 1381.04 1769.06 1382.06 1768.19 1382.86 1767.32 1383.65 1766.3 1384.24 1765.14 1384.61 1763.97 1384.99 1762.64 1385.18 1761.14 1385.18 1760.75 1385.18 1760.36 1385.16 1760 1385.12 1759.63 1385.08 1759.3 1385.02 1759.01 1384.95L1759.58 1382.54C1759.77 1382.61 1760.01 1382.66 1760.32 1382.69 1760.62 1382.71 1760.97 1382.72 1761.37 1382.72 1762.12 1382.72 1762.79 1382.62 1763.38 1382.42 1763.97 1382.22 1764.5 1381.86 1764.96 1381.34 1765.43 1380.82 1765.85 1380.11 1766.23 1379.2 1766.6 1378.29 1766.95 1377.12 1767.27 1375.7 1767.81 1373.22 1768.32 1370.89 1768.81 1368.72 1769.3 1366.55 1769.7 1364.73 1770.01 1363.26 1770.33 1361.79 1770.58 1360.62 1770.76 1359.75 1770.94 1358.88 1771.08 1358.2 1771.16 1357.73 1771.24 1357.25 1771.29 1356.92 1771.31 1356.72 1771.32 1356.52 1771.33 1356.36 1771.33 1356.24 1771.33 1355.7 1771.13 1355.31 1770.72 1355.05 1770.32 1354.8 1769.6 1354.66 1768.58 1354.63L1768.92 1353.07ZM1752.45 1352.82 1753.58 1352.82 1750.18 1368.1C1749.96 1369 1749.82 1369.72 1749.73 1370.26 1749.65 1370.79 1749.6 1371.28 1749.6 1371.7 1749.6 1372.29 1749.72 1372.71 1749.96 1372.97 1750.2 1373.23 1750.55 1373.36 1751.03 1373.36 1751.3 1373.36 1751.58 1373.3 1751.85 1373.2 1752.13 1373.09 1752.42 1372.92 1752.74 1372.69 1753.05 1372.46 1753.4 1372.17 1753.77 1371.81 1754.15 1371.45 1754.56 1371.02 1755.02 1370.51L1756.58 1372.03C1755.79 1372.84 1755.06 1373.52 1754.41 1374.08 1753.76 1374.64 1753.15 1375.09 1752.57 1375.44 1751.98 1375.8 1751.41 1376.05 1750.86 1376.2 1750.3 1376.36 1749.7 1376.43 1749.08 1376.43 1748.5 1376.43 1747.97 1376.32 1747.51 1376.11 1747.04 1375.9 1746.64 1375.6 1746.3 1375.23 1745.96 1374.85 1745.7 1374.4 1745.52 1373.88 1745.34 1373.36 1745.24 1372.79 1745.24 1372.16 1745.24 1371.66 1745.31 1371.03 1745.43 1370.28 1745.55 1369.53 1745.71 1368.72 1745.9 1367.84 1746.09 1366.96 1746.3 1366.04 1746.53 1365.07 1746.76 1364.11 1746.98 1363.15 1747.21 1362.2 1747.43 1361.25 1747.63 1360.34 1747.8 1359.46 1747.98 1358.58 1748.11 1357.78 1748.18 1357.06 1748.21 1356.94 1748.23 1356.82 1748.23 1356.71 1748.23 1356.59 1748.23 1356.49 1748.23 1356.4 1748.2 1355.8 1747.99 1355.36 1747.6 1355.09 1747.21 1354.81 1746.51 1354.66 1745.52 1354.63L1745.8 1353.07ZM1791.83 1344.69 1793.48 1344.69 1789.44 1362.55 1790.08 1362.55C1790.66 1362.55 1791.29 1362.42 1791.97 1362.18 1792.64 1361.94 1793.31 1361.62 1793.97 1361.23 1794.64 1360.84 1795.28 1360.4 1795.89 1359.91 1796.5 1359.42 1797.04 1358.93 1797.51 1358.43 1797.97 1357.93 1798.35 1357.46 1798.62 1357.02 1798.9 1356.57 1799.03 1356.2 1799.03 1355.89 1799.03 1355.52 1798.91 1355.23 1798.67 1355 1798.42 1354.77 1797.98 1354.61 1797.34 1354.54L1797.61 1353.07 1805.87 1353.07 1806.45 1354.49C1805.48 1355.32 1804.56 1356.08 1803.67 1356.79 1802.78 1357.49 1801.91 1358.17 1801.06 1358.82 1800.22 1359.47 1799.37 1360.11 1798.52 1360.73 1797.67 1361.36 1796.8 1362.01 1795.91 1362.69 1796.28 1363.85 1796.65 1365.03 1797.04 1366.23 1797.42 1367.43 1797.8 1368.62 1798.18 1369.8 1798.37 1370.43 1798.54 1370.97 1798.7 1371.42 1798.86 1371.87 1799.03 1372.24 1799.22 1372.52 1799.4 1372.8 1799.6 1373.01 1799.81 1373.15 1800.03 1373.29 1800.29 1373.36 1800.59 1373.36 1800.81 1373.36 1801.03 1373.32 1801.26 1373.24 1801.49 1373.17 1801.75 1373.03 1802.03 1372.83 1802.31 1372.63 1802.63 1372.36 1802.99 1372.01 1803.35 1371.67 1803.76 1371.24 1804.22 1370.72L1805.78 1372.21C1805.06 1372.94 1804.39 1373.58 1803.77 1374.11 1803.15 1374.65 1802.56 1375.09 1802.01 1375.43 1801.45 1375.78 1800.91 1376.03 1800.39 1376.19 1799.87 1376.35 1799.34 1376.43 1798.8 1376.43 1797.84 1376.43 1797.06 1376.19 1796.47 1375.71 1795.89 1375.23 1795.38 1374.54 1794.97 1373.64 1794.56 1372.75 1794.18 1371.67 1793.84 1370.4 1793.49 1369.13 1793.09 1367.71 1792.63 1366.15 1792.52 1365.78 1792.42 1365.49 1792.32 1365.27 1792.22 1365.05 1792.1 1364.88 1791.94 1364.76 1791.79 1364.65 1791.6 1364.57 1791.37 1364.54 1791.14 1364.51 1790.85 1364.5 1790.5 1364.5L1789.03 1364.5 1786.5 1376.02 1782.1 1376.02 1787.65 1351.37C1787.83 1350.56 1787.96 1349.92 1788.04 1349.45 1788.12 1348.99 1788.16 1348.57 1788.16 1348.2 1788.16 1347.91 1788.11 1347.66 1788.01 1347.45 1787.91 1347.23 1787.74 1347.06 1787.51 1346.93 1787.28 1346.8 1786.98 1346.7 1786.6 1346.64 1786.21 1346.58 1785.74 1346.54 1785.17 1346.53L1785.52 1344.97ZM1774.22 1343.57 1778.84 1343.57 1777.71 1348.5 1773.1 1348.5ZM1751.12 1343.57 1755.71 1343.57 1754.58 1348.5 1750.04 1348.5Z" fill-rule="evenodd"/><text fill="#000000" fill-opacity="0" font-family="Arial,Arial_MSFontService,sans-serif" font-size="41.6069" x="1745.24" y="1379.97">𝑖𝑗𝑘</text><path d="M1750.89 1310.44C1752.02 1310.44 1752.9 1310.81 1753.52 1311.56 1754.14 1312.3 1754.45 1313.27 1754.45 1314.48 1754.45 1314.82 1754.42 1315.15 1754.38 1315.47 1754.33 1315.79 1754.25 1316.1 1754.12 1316.41L1754.4 1316.53C1755.85 1314.49 1757.31 1312.97 1758.76 1311.96 1760.21 1310.95 1761.71 1310.44 1763.24 1310.44 1764.86 1310.44 1766.07 1310.86 1766.87 1311.69 1767.68 1312.53 1768.08 1313.76 1768.08 1315.38 1768.08 1315.52 1768.08 1315.65 1768.08 1315.78 1768.08 1315.91 1768.06 1316.04 1768.03 1316.18L1768.12 1316.18C1769.55 1314.24 1770.96 1312.8 1772.37 1311.85 1773.78 1310.91 1775.25 1310.44 1776.78 1310.44 1778.4 1310.44 1779.61 1310.88 1780.41 1311.75 1781.22 1312.62 1781.62 1313.85 1781.62 1315.42 1781.62 1315.9 1781.54 1316.54 1781.39 1317.34 1781.23 1318.14 1781.05 1319.03 1780.83 1319.99 1780.6 1320.95 1780.36 1321.95 1780.1 1322.99 1779.84 1324.02 1779.6 1324.99 1779.37 1325.91 1779.23 1326.51 1779.12 1326.99 1779.04 1327.37 1778.95 1327.74 1778.89 1328.06 1778.84 1328.31 1778.79 1328.56 1778.76 1328.78 1778.75 1328.96 1778.73 1329.15 1778.73 1329.35 1778.73 1329.56 1778.73 1330.14 1778.83 1330.56 1779.05 1330.82 1779.26 1331.08 1779.61 1331.21 1780.08 1331.21 1780.36 1331.21 1780.63 1331.16 1780.91 1331.05 1781.18 1330.94 1781.48 1330.78 1781.79 1330.55 1782.1 1330.32 1782.45 1330.02 1782.82 1329.66 1783.2 1329.3 1783.61 1328.87 1784.07 1328.37L1785.66 1329.88C1784.92 1330.65 1784.24 1331.3 1783.6 1331.86 1782.97 1332.41 1782.36 1332.86 1781.77 1333.22 1781.18 1333.58 1780.59 1333.85 1780.01 1334.02 1779.43 1334.2 1778.82 1334.29 1778.18 1334.29 1777.59 1334.29 1777.07 1334.18 1776.59 1333.97 1776.12 1333.75 1775.72 1333.46 1775.39 1333.08 1775.06 1332.71 1774.8 1332.26 1774.62 1331.75 1774.43 1331.24 1774.34 1330.68 1774.34 1330.07 1774.34 1328.81 1774.61 1327.2 1775.15 1325.22 1775.44 1324.23 1775.7 1323.28 1775.94 1322.37 1776.17 1321.46 1776.38 1320.61 1776.55 1319.84 1776.71 1319.07 1776.85 1318.38 1776.95 1317.78 1777.05 1317.17 1777.1 1316.67 1777.1 1316.27 1777.1 1315.32 1776.92 1314.63 1776.56 1314.18 1776.2 1313.74 1775.64 1313.52 1774.87 1313.52 1774.4 1313.52 1773.89 1313.64 1773.36 1313.89 1772.82 1314.13 1772.28 1314.47 1771.74 1314.91 1771.19 1315.34 1770.66 1315.86 1770.14 1316.46 1769.62 1317.05 1769.14 1317.7 1768.7 1318.4 1768.25 1319.09 1767.86 1319.82 1767.52 1320.59 1767.17 1321.35 1766.91 1322.12 1766.72 1322.91L1764.45 1333.87 1759.98 1333.87C1760.19 1332.9 1760.43 1331.84 1760.7 1330.72 1760.97 1329.59 1761.24 1328.46 1761.51 1327.31 1761.79 1326.16 1762.05 1325.03 1762.31 1323.91 1762.56 1322.8 1762.78 1321.75 1762.98 1320.78 1763.18 1319.81 1763.34 1318.94 1763.46 1318.17 1763.59 1317.39 1763.65 1316.78 1763.65 1316.32 1763.65 1315.35 1763.46 1314.65 1763.09 1314.2 1762.71 1313.74 1762.11 1313.52 1761.28 1313.52 1760.55 1313.52 1759.76 1313.79 1758.92 1314.34 1758.08 1314.9 1757.28 1315.62 1756.52 1316.51 1755.77 1317.41 1755.09 1318.42 1754.49 1319.54 1753.89 1320.67 1753.47 1321.8 1753.23 1322.95L1750.89 1333.87 1746.39 1333.87 1749.83 1318.91C1750.03 1318.09 1750.18 1317.37 1750.27 1316.75 1750.36 1316.14 1750.41 1315.64 1750.41 1315.24 1750.41 1314.12 1749.96 1313.56 1749.05 1313.56 1748.78 1313.56 1748.5 1313.62 1748.21 1313.74 1747.93 1313.85 1747.63 1314.02 1747.32 1314.25 1747.01 1314.48 1746.67 1314.77 1746.3 1315.13 1745.93 1315.48 1745.52 1315.89 1745.06 1316.36L1743.48 1314.87C1744.23 1314.11 1744.92 1313.45 1745.55 1312.89 1746.19 1312.33 1746.8 1311.87 1747.39 1311.51 1747.98 1311.15 1748.56 1310.88 1749.12 1310.71 1749.69 1310.53 1750.28 1310.44 1750.89 1310.44Z" fill-rule="evenodd"/><text fill="#000000" fill-opacity="0" font-family="Arial,Arial_MSFontService,sans-serif" font-size="23.8442" x="1743.48" y="1331.31">𝑚</text><path d="M1834.41 1346.26 1872.91 1346.26 1872.91 1350.42 1834.41 1350.42ZM1834.41 1333.29 1872.91 1333.29 1872.91 1337.45 1834.41 1337.45Z" fill-rule="evenodd"/><text fill="#000000" fill-opacity="0" font-family="Arial,Arial_MSFontService,sans-serif" font-size="17.125" x="1834.41" y="1348.28">=</text><path d="M1915.68 1332.2C1913.55 1332.2 1911.65 1333.06 1909.96 1334.78 1908.27 1336.5 1906.94 1338.81 1905.98 1341.73 1905.01 1344.65 1904.52 1347.55 1904.52 1350.45 1904.52 1352.62 1904.82 1354.24 1905.41 1355.31 1906.01 1356.38 1907 1356.92 1908.4 1356.92 1909.04 1356.92 1909.7 1356.78 1910.37 1356.5 1911.03 1356.22 1911.73 1355.76 1912.44 1355.14 1913.16 1354.51 1913.87 1353.75 1914.57 1352.86 1915.27 1351.96 1915.91 1351.06 1916.49 1350.15 1917.07 1349.25 1917.62 1348.17 1918.12 1346.93 1918.62 1345.69 1919.04 1344.2 1919.4 1342.45L1919.68 1341.11C1919.99 1339.61 1920.15 1338.19 1920.15 1336.86 1920.15 1335.23 1919.8 1334.05 1919.12 1333.31 1918.43 1332.57 1917.28 1332.2 1915.68 1332.2ZM1928.77 1315.45 1930.62 1315.45 1922.83 1350.04C1922.38 1352.09 1922.15 1353.63 1922.15 1354.67 1922.15 1355.5 1922.28 1356.11 1922.55 1356.48 1922.82 1356.86 1923.25 1357.04 1923.83 1357.04 1924.46 1357.04 1925.13 1356.79 1925.83 1356.28 1926.54 1355.77 1927.54 1354.79 1928.83 1353.36L1930.62 1355.11C1928.7 1357.13 1927.08 1358.55 1925.77 1359.39 1924.46 1360.22 1923.04 1360.64 1921.52 1360.64 1920.23 1360.64 1919.2 1360.21 1918.43 1359.36 1917.66 1358.5 1917.27 1357.37 1917.27 1355.95 1917.27 1354.8 1917.51 1353.59 1917.99 1352.29L1917.58 1352.17C1915.58 1355.09 1913.69 1357.22 1911.9 1358.57 1910.11 1359.93 1908.21 1360.61 1906.21 1360.61 1903.92 1360.61 1902.14 1359.74 1900.88 1358.01 1899.62 1356.28 1898.99 1353.86 1898.99 1350.73 1898.99 1347.15 1899.69 1343.71 1901.1 1340.4 1902.51 1337.1 1904.44 1334.5 1906.9 1332.59 1909.36 1330.68 1912.1 1329.73 1915.12 1329.73 1916.39 1329.73 1917.56 1329.86 1918.63 1330.12 1919.7 1330.38 1920.8 1330.84 1921.93 1331.48L1923.55 1324.26C1923.72 1323.57 1923.87 1322.81 1923.99 1321.98 1924.12 1321.15 1924.18 1320.42 1924.18 1319.79 1924.18 1319.17 1924.06 1318.69 1923.83 1318.37 1923.61 1318.05 1923.28 1317.81 1922.85 1317.67 1922.42 1317.52 1921.66 1317.42 1920.55 1317.36L1920.93 1315.73Z" fill="#4472C4" fill-rule="evenodd"/><text fill="#000000" fill-opacity="0" font-family="Arial,Arial_MSFontService,sans-serif" font-size="45.1875" x="1898.99" y="1354.99">𝑑</text><path d="M1966.59 1352.82 1968.17 1352.82 1963.4 1375.31C1963.02 1377.05 1962.52 1378.55 1961.92 1379.79 1961.31 1381.04 1960.57 1382.06 1959.7 1382.86 1958.83 1383.65 1957.81 1384.24 1956.65 1384.61 1955.49 1384.99 1954.16 1385.18 1952.66 1385.18 1952.26 1385.18 1951.88 1385.16 1951.51 1385.12 1951.14 1385.08 1950.81 1385.02 1950.52 1384.95L1951.1 1382.54C1951.28 1382.61 1951.53 1382.66 1951.83 1382.69 1952.14 1382.71 1952.49 1382.72 1952.89 1382.72 1953.64 1382.72 1954.31 1382.62 1954.9 1382.42 1955.48 1382.22 1956.01 1381.86 1956.48 1381.34 1956.95 1380.82 1957.37 1380.11 1957.74 1379.2 1958.12 1378.29 1958.46 1377.12 1958.78 1375.7 1959.32 1373.22 1959.83 1370.89 1960.32 1368.72 1960.81 1366.55 1961.21 1364.73 1961.53 1363.26 1961.84 1361.79 1962.09 1360.62 1962.27 1359.75 1962.46 1358.88 1962.59 1358.2 1962.67 1357.73 1962.76 1357.25 1962.81 1356.92 1962.82 1356.72 1962.84 1356.52 1962.85 1356.36 1962.85 1356.24 1962.85 1355.7 1962.64 1355.31 1962.24 1355.05 1961.83 1354.8 1961.12 1354.66 1960.09 1354.63L1960.44 1353.07ZM1943.97 1352.82 1945.09 1352.82 1941.69 1368.1C1941.48 1369 1941.33 1369.72 1941.25 1370.26 1941.16 1370.79 1941.12 1371.28 1941.12 1371.7 1941.12 1372.29 1941.24 1372.71 1941.48 1372.97 1941.71 1373.23 1942.07 1373.36 1942.54 1373.36 1942.82 1373.36 1943.09 1373.3 1943.37 1373.2 1943.64 1373.09 1943.94 1372.92 1944.25 1372.69 1944.57 1372.46 1944.91 1372.17 1945.28 1371.81 1945.66 1371.45 1946.08 1371.02 1946.54 1370.51L1948.1 1372.03C1947.3 1372.84 1946.58 1373.52 1945.93 1374.08 1945.28 1374.64 1944.66 1375.09 1944.08 1375.44 1943.5 1375.8 1942.93 1376.05 1942.37 1376.2 1941.81 1376.36 1941.22 1376.43 1940.59 1376.43 1940.01 1376.43 1939.49 1376.32 1939.02 1376.11 1938.55 1375.9 1938.15 1375.6 1937.81 1375.23 1937.48 1374.85 1937.22 1374.4 1937.03 1373.88 1936.85 1373.36 1936.76 1372.79 1936.76 1372.16 1936.76 1371.66 1936.82 1371.03 1936.94 1370.28 1937.07 1369.53 1937.22 1368.72 1937.41 1367.84 1937.6 1366.96 1937.81 1366.04 1938.04 1365.07 1938.27 1364.11 1938.5 1363.15 1938.72 1362.2 1938.94 1361.25 1939.14 1360.34 1939.32 1359.46 1939.49 1358.58 1939.62 1357.78 1939.7 1357.06 1939.73 1356.94 1939.74 1356.82 1939.74 1356.71 1939.74 1356.59 1939.74 1356.49 1939.74 1356.4 1939.71 1355.8 1939.5 1355.36 1939.11 1355.09 1938.72 1354.81 1938.03 1354.66 1937.03 1354.63L1937.31 1353.07ZM1965.74 1343.57 1970.35 1343.57 1969.23 1348.5 1964.61 1348.5ZM1942.63 1343.57 1947.22 1343.57 1946.1 1348.5 1941.56 1348.5Z" fill="#4472C4" fill-rule="evenodd"/><text fill="#000000" fill-opacity="0" font-family="Arial,Arial_MSFontService,sans-serif" font-size="41.6069" x="1936.76" y="1379.97">𝑖𝑗</text><path d="M1943.34 1310.44C1944.47 1310.44 1945.35 1310.81 1945.97 1311.56 1946.59 1312.3 1946.9 1313.27 1946.9 1314.48 1946.9 1314.82 1946.88 1315.15 1946.83 1315.47 1946.78 1315.79 1946.7 1316.1 1946.58 1316.41L1946.85 1316.53C1948.31 1314.49 1949.76 1312.97 1951.21 1311.96 1952.67 1310.95 1954.16 1310.44 1955.69 1310.44 1957.31 1310.44 1958.52 1310.86 1959.33 1311.69 1960.13 1312.53 1960.53 1313.76 1960.53 1315.38 1960.53 1315.52 1960.53 1315.65 1960.53 1315.78 1960.53 1315.91 1960.52 1316.04 1960.49 1316.18L1960.58 1316.18C1962 1314.24 1963.42 1312.8 1964.82 1311.85 1966.23 1310.91 1967.7 1310.44 1969.23 1310.44 1970.85 1310.44 1972.06 1310.88 1972.87 1311.75 1973.67 1312.62 1974.07 1313.85 1974.07 1315.42 1974.07 1315.9 1973.99 1316.54 1973.84 1317.34 1973.69 1318.14 1973.5 1319.03 1973.28 1319.99 1973.06 1320.95 1972.82 1321.95 1972.56 1322.99 1972.3 1324.02 1972.05 1324.99 1971.82 1325.91 1971.68 1326.51 1971.57 1326.99 1971.49 1327.37 1971.41 1327.74 1971.34 1328.06 1971.29 1328.31 1971.25 1328.56 1971.22 1328.78 1971.2 1328.96 1971.19 1329.15 1971.18 1329.35 1971.18 1329.56 1971.18 1330.14 1971.29 1330.56 1971.5 1330.82 1971.72 1331.08 1972.06 1331.21 1972.53 1331.21 1972.81 1331.21 1973.08 1331.16 1973.36 1331.05 1973.64 1330.94 1973.93 1330.78 1974.24 1330.55 1974.56 1330.32 1974.9 1330.02 1975.28 1329.66 1975.65 1329.3 1976.07 1328.87 1976.53 1328.37L1978.11 1329.88C1977.38 1330.65 1976.69 1331.3 1976.06 1331.86 1975.42 1332.41 1974.81 1332.86 1974.22 1333.22 1973.63 1333.58 1973.05 1333.85 1972.47 1334.02 1971.88 1334.2 1971.27 1334.29 1970.63 1334.29 1970.05 1334.29 1969.52 1334.18 1969.05 1333.97 1968.57 1333.75 1968.17 1333.46 1967.84 1333.08 1967.51 1332.71 1967.26 1332.26 1967.07 1331.75 1966.89 1331.24 1966.8 1330.68 1966.8 1330.07 1966.8 1328.81 1967.06 1327.2 1967.6 1325.22 1967.89 1324.23 1968.15 1323.28 1968.39 1322.37 1968.63 1321.46 1968.83 1320.61 1969 1319.84 1969.17 1319.07 1969.3 1318.38 1969.4 1317.78 1969.5 1317.17 1969.55 1316.67 1969.55 1316.27 1969.55 1315.32 1969.37 1314.63 1969.01 1314.18 1968.65 1313.74 1968.09 1313.52 1967.32 1313.52 1966.85 1313.52 1966.35 1313.64 1965.81 1313.89 1965.27 1314.13 1964.73 1314.47 1964.19 1314.91 1963.65 1315.34 1963.12 1315.86 1962.6 1316.46 1962.08 1317.05 1961.59 1317.7 1961.15 1318.4 1960.71 1319.09 1960.31 1319.82 1959.97 1320.59 1959.62 1321.35 1959.36 1322.12 1959.18 1322.91L1956.91 1333.87 1952.43 1333.87C1952.64 1332.9 1952.89 1331.84 1953.15 1330.72 1953.42 1329.59 1953.69 1328.46 1953.97 1327.31 1954.24 1326.16 1954.51 1325.03 1954.76 1323.91 1955.01 1322.8 1955.24 1321.75 1955.44 1320.78 1955.64 1319.81 1955.8 1318.94 1955.92 1318.17 1956.04 1317.39 1956.1 1316.78 1956.1 1316.32 1956.1 1315.35 1955.91 1314.65 1955.54 1314.2 1955.17 1313.74 1954.56 1313.52 1953.74 1313.52 1953 1313.52 1952.22 1313.79 1951.37 1314.34 1950.53 1314.9 1949.73 1315.62 1948.98 1316.51 1948.22 1317.41 1947.54 1318.42 1946.95 1319.54 1946.35 1320.67 1945.93 1321.8 1945.68 1322.95L1943.34 1333.87 1938.84 1333.87 1942.29 1318.91C1942.49 1318.09 1942.63 1317.37 1942.72 1316.75 1942.81 1316.14 1942.86 1315.64 1942.86 1315.24 1942.86 1314.12 1942.41 1313.56 1941.51 1313.56 1941.23 1313.56 1940.95 1313.62 1940.67 1313.74 1940.39 1313.85 1940.09 1314.02 1939.77 1314.25 1939.46 1314.48 1939.12 1314.77 1938.75 1315.13 1938.39 1315.48 1937.97 1315.89 1937.51 1316.36L1935.93 1314.87C1936.68 1314.11 1937.37 1313.45 1938.01 1312.89 1938.64 1312.33 1939.25 1311.87 1939.84 1311.51 1940.43 1311.15 1941.01 1310.88 1941.58 1310.71 1942.14 1310.53 1942.73 1310.44 1943.34 1310.44Z" fill="#4472C4" fill-rule="evenodd"/><text fill="#000000" fill-opacity="0" font-family="Arial,Arial_MSFontService,sans-serif" font-size="23.8442" x="1935.93" y="1331.31">𝑚</text><path d="M2005.06 1324.73 2019.21 1338.86 2033.37 1324.73 2036.31 1327.64 2022.31 1341.89 2036.34 1356.07 2033.21 1359.2 2019.21 1344.92 2004.78 1359.07 2001.87 1356.14 2016.15 1341.89 2001.93 1327.86Z" fill-rule="evenodd"/><text fill="#000000" fill-opacity="0" font-family="Arial,Arial_MSFontService,sans-serif" font-size="34.4688" x="2001.87" y="1354.89">×</text><path d="M2085.77 1315.26C2087.81 1315.26 2089.57 1315.43 2091.05 1315.76L2089.83 1321.07 2087.08 1321.07C2086.79 1319.89 2086.41 1319.03 2085.94 1318.51 2085.47 1317.99 2084.78 1317.73 2083.86 1317.73 2082.68 1317.73 2081.67 1318.06 2080.85 1318.72 2080.03 1319.37 2079.32 1320.35 2078.74 1321.64 2078.16 1322.93 2077.61 1324.67 2077.11 1326.86L2076.33 1330.26 2084.36 1330.26 2083.68 1333.42 2075.61 1333.42 2069.8 1360.67C2068.84 1365.19 2067.37 1368.56 2065.4 1370.78 2063.42 1373 2060.93 1374.11 2057.93 1374.11 2057.05 1374.11 2056.36 1374.05 2055.86 1373.95L2056.4 1371.2C2056.6 1371.26 2057.09 1371.29 2057.86 1371.29 2058.8 1371.29 2059.6 1371.05 2060.27 1370.57 2060.94 1370.1 2061.56 1369.26 2062.13 1368.07 2062.7 1366.89 2063.23 1365.24 2063.71 1363.14L2070.43 1333.42 2065.15 1333.42 2065.61 1331.26C2067.01 1331.18 2068.02 1331.06 2068.63 1330.92 2069.24 1330.77 2069.72 1330.55 2070.07 1330.26 2070.41 1329.97 2070.7 1329.59 2070.94 1329.12 2071.18 1328.65 2071.49 1327.79 2071.86 1326.54 2072.97 1322.79 2074.67 1319.98 2076.97 1318.09 2079.28 1316.21 2082.21 1315.26 2085.77 1315.26Z" fill="#ED7D31" fill-rule="evenodd"/><text fill="#000000" fill-opacity="0" font-family="Arial,Arial_MSFontService,sans-serif" font-size="58.8438" x="2055.86" y="1366.75">𝑓</text><path d="M2115.48 1350.02 2117.06 1350.02 2112.29 1372.51C2111.9 1374.26 2111.41 1375.75 2110.81 1377 2110.2 1378.24 2109.46 1379.27 2108.59 1380.06 2107.72 1380.86 2106.7 1381.44 2105.54 1381.82 2104.38 1382.19 2103.05 1382.38 2101.55 1382.38 2101.15 1382.38 2100.77 1382.36 2100.4 1382.32 2100.03 1382.28 2099.7 1382.23 2099.41 1382.15L2099.99 1379.74C2100.17 1379.82 2100.42 1379.87 2100.72 1379.89 2101.03 1379.91 2101.38 1379.92 2101.78 1379.92 2102.53 1379.92 2103.2 1379.82 2103.78 1379.63 2104.37 1379.43 2104.9 1379.07 2105.37 1378.55 2105.83 1378.03 2106.26 1377.31 2106.63 1376.4 2107.01 1375.49 2107.35 1374.32 2107.67 1372.9 2108.21 1370.42 2108.72 1368.1 2109.21 1365.92 2109.7 1363.75 2110.1 1361.93 2110.42 1360.46 2110.73 1358.99 2110.98 1357.82 2111.16 1356.95 2111.35 1356.08 2111.48 1355.41 2111.56 1354.93 2111.65 1354.46 2111.7 1354.12 2111.71 1353.92 2111.73 1353.72 2111.74 1353.56 2111.74 1353.44 2111.74 1352.9 2111.53 1352.51 2111.13 1352.26 2110.72 1352.01 2110.01 1351.86 2108.98 1351.83L2109.33 1350.27ZM2092.85 1350.02 2093.98 1350.02 2090.58 1365.31C2090.37 1366.21 2090.22 1366.93 2090.14 1367.46 2090.05 1368 2090.01 1368.48 2090.01 1368.91 2090.01 1369.49 2090.13 1369.91 2090.36 1370.17 2090.6 1370.43 2090.96 1370.56 2091.43 1370.56 2091.71 1370.56 2091.98 1370.51 2092.26 1370.4 2092.53 1370.29 2092.83 1370.12 2093.14 1369.9 2093.46 1369.67 2093.8 1369.37 2094.17 1369.01 2094.55 1368.65 2094.97 1368.22 2095.43 1367.71L2096.99 1369.23C2096.19 1370.04 2095.47 1370.72 2094.82 1371.28 2094.17 1371.84 2093.55 1372.3 2092.97 1372.65 2092.39 1373 2091.82 1373.25 2091.26 1373.41 2090.7 1373.56 2090.11 1373.64 2089.48 1373.64 2088.9 1373.64 2088.38 1373.53 2087.91 1373.31 2087.44 1373.1 2087.04 1372.81 2086.7 1372.43 2086.37 1372.06 2086.11 1371.61 2085.92 1371.09 2085.74 1370.57 2085.65 1369.99 2085.65 1369.37 2085.65 1368.86 2085.71 1368.23 2085.83 1367.49 2085.95 1366.74 2086.11 1365.92 2086.3 1365.04 2086.49 1364.16 2086.7 1363.24 2086.93 1362.28 2087.16 1361.31 2087.39 1360.36 2087.61 1359.41 2087.83 1358.46 2088.03 1357.54 2088.21 1356.66 2088.38 1355.79 2088.51 1354.99 2088.59 1354.27 2088.62 1354.14 2088.63 1354.03 2088.63 1353.91 2088.63 1353.8 2088.63 1353.69 2088.63 1353.6 2088.6 1353 2088.39 1352.57 2088 1352.29 2087.61 1352.02 2086.92 1351.86 2085.92 1351.83L2086.2 1350.27ZM2114.63 1340.77 2119.24 1340.77 2118.12 1345.71 2113.5 1345.71ZM2091.52 1340.77 2096.11 1340.77 2094.99 1345.71 2090.45 1345.71Z" fill="#ED7D31" fill-rule="evenodd"/><text fill="#000000" fill-opacity="0" font-family="Arial,Arial_MSFontService,sans-serif" font-size="41.6069" x="2085.65" y="1377.18">𝑖𝑗</text><path d="M2147.55 1324.73 2161.71 1338.86 2175.87 1324.73 2178.8 1327.64 2164.8 1341.89 2178.83 1356.07 2175.71 1359.2 2161.71 1344.92 2147.27 1359.07 2144.37 1356.14 2158.65 1341.89 2144.43 1327.86Z" fill-rule="evenodd"/><text fill="#000000" fill-opacity="0" font-family="Arial,Arial_MSFontService,sans-serif" font-size="34.4688" x="2144.37" y="1354.89">×</text><path d="M2208.67 1329.73C2209.98 1329.73 2211.02 1330.16 2211.78 1331.03 2212.54 1331.89 2212.92 1333.02 2212.92 1334.42 2212.92 1335.52 2212.67 1336.75 2212.17 1338.11L2212.55 1338.23C2214.59 1335.36 2216.53 1333.23 2218.38 1331.84 2220.22 1330.46 2222.12 1329.76 2224.08 1329.76 2226.02 1329.76 2227.51 1330.32 2228.55 1331.43 2229.59 1332.55 2230.11 1334.1 2230.11 1336.07 2230.11 1337.39 2229.81 1339.25 2229.2 1341.67L2227.17 1349.86C2226.61 1352.13 2226.33 1353.73 2226.33 1354.67 2226.33 1355.5 2226.46 1356.11 2226.73 1356.48 2227.01 1356.86 2227.43 1357.04 2228.02 1357.04 2228.64 1357.04 2229.31 1356.79 2230.02 1356.28 2230.72 1355.77 2231.72 1354.79 2233.02 1353.36L2234.8 1355.11C2233.01 1357.02 2231.44 1358.42 2230.11 1359.31 2228.78 1360.19 2227.26 1360.64 2225.55 1360.64 2224.19 1360.64 2223.11 1360.15 2222.3 1359.18 2221.48 1358.22 2221.08 1356.98 2221.08 1355.48 2221.08 1354.13 2221.42 1352.14 2222.11 1349.51L2223.48 1344.11C2223.98 1342.15 2224.31 1340.7 2224.47 1339.76 2224.63 1338.82 2224.7 1338.06 2224.7 1337.48 2224.7 1336.04 2224.46 1335.01 2223.98 1334.37 2223.51 1333.74 2222.72 1333.42 2221.64 1333.42 2220.77 1333.42 2219.82 1333.77 2218.81 1334.47 2217.8 1335.16 2216.73 1336.22 2215.59 1337.62 2214.46 1339.03 2213.55 1340.39 2212.86 1341.72 2212.17 1343.04 2211.61 1344.67 2211.17 1346.61L2208.2 1360.14 2202.8 1360.14 2207.36 1340.32C2207.82 1338.32 2208.05 1336.78 2208.05 1335.7 2208.05 1334.87 2207.91 1334.26 2207.64 1333.89 2207.37 1333.51 2206.94 1333.32 2206.36 1333.32 2205.71 1333.32 2205.03 1333.59 2204.31 1334.12 2203.59 1334.65 2202.61 1335.62 2201.36 1337.01L2199.58 1335.26C2201.5 1333.26 2203.09 1331.84 2204.36 1331 2205.63 1330.15 2207.07 1329.73 2208.67 1329.73Z" fill="#70AD47" fill-rule="evenodd"/><text fill="#000000" fill-opacity="0" font-family="Arial,Arial_MSFontService,sans-serif" font-size="30.9062" x="2199.58" y="1356.77">𝑛</text><path d="M2258.38 1333.42C2257.38 1333.42 2256.39 1333.74 2255.42 1334.37 2254.45 1335.01 2253.38 1336.06 2252.19 1337.53 2251 1339 2250.03 1340.5 2249.28 1342.04 2248.53 1343.59 2247.9 1345.55 2247.38 1347.95L2247.1 1349.26C2246.78 1350.72 2246.63 1352.14 2246.63 1353.51 2246.63 1355.16 2246.99 1356.35 2247.7 1357.07 2248.42 1357.8 2249.62 1358.17 2251.28 1358.17 2252.14 1358.17 2252.95 1358.03 2253.72 1357.75 2254.49 1357.47 2255.28 1357 2256.08 1356.36 2256.88 1355.71 2257.64 1354.86 2258.36 1353.81 2259.08 1352.76 2259.74 1351.46 2260.35 1349.92 2260.95 1348.38 2261.42 1346.73 2261.75 1344.97 2262.08 1343.21 2262.25 1341.52 2262.25 1339.92 2262.25 1337.75 2261.94 1336.13 2261.33 1335.04 2260.72 1333.96 2259.73 1333.42 2258.38 1333.42ZM2252.91 1315.45 2254.72 1315.45 2249.22 1337.32 2249.63 1337.45C2251.65 1334.74 2253.54 1332.78 2255.31 1331.57 2257.08 1330.37 2258.86 1329.76 2260.63 1329.76 2262.9 1329.76 2264.66 1330.63 2265.92 1332.36 2267.18 1334.09 2267.81 1336.52 2267.81 1339.67 2267.81 1343.11 2267.12 1346.49 2265.74 1349.81 2264.35 1353.13 2262.43 1355.77 2259.97 1357.72 2257.51 1359.66 2254.76 1360.64 2251.72 1360.64 2248.95 1360.64 2246.49 1359.96 2244.35 1358.61L2241.47 1360.64 2239.47 1360.14 2247.56 1324.42C2248.04 1322.29 2248.28 1320.75 2248.28 1319.79 2248.28 1318.92 2248.02 1318.3 2247.49 1317.95 2246.95 1317.6 2246 1317.4 2244.63 1317.36L2245 1315.73Z" fill="#70AD47" fill-rule="evenodd"/><text fill="#000000" fill-opacity="0" font-family="Arial,Arial_MSFontService,sans-serif" font-size="45.1875" x="2239.47" y="1354.99">𝑏</text><path d="M2302.57 1350.02 2304.15 1350.02 2299.38 1372.51C2299 1374.26 2298.5 1375.75 2297.9 1377 2297.29 1378.24 2296.56 1379.27 2295.68 1380.06 2294.81 1380.86 2293.79 1381.44 2292.63 1381.82 2291.47 1382.19 2290.14 1382.38 2288.64 1382.38 2288.24 1382.38 2287.86 1382.36 2287.49 1382.32 2287.12 1382.28 2286.8 1382.23 2286.5 1382.15L2287.08 1379.74C2287.26 1379.82 2287.51 1379.87 2287.81 1379.89 2288.12 1379.91 2288.47 1379.92 2288.87 1379.92 2289.62 1379.92 2290.29 1379.82 2290.88 1379.63 2291.47 1379.43 2291.99 1379.07 2292.46 1378.55 2292.93 1378.03 2293.35 1377.31 2293.72 1376.4 2294.1 1375.49 2294.44 1374.32 2294.77 1372.9 2295.3 1370.42 2295.81 1368.1 2296.3 1365.92 2296.79 1363.75 2297.19 1361.93 2297.51 1360.46 2297.82 1358.99 2298.07 1357.82 2298.25 1356.95 2298.44 1356.08 2298.57 1355.41 2298.66 1354.93 2298.74 1354.46 2298.79 1354.12 2298.81 1353.92 2298.82 1353.72 2298.83 1353.56 2298.83 1353.44 2298.83 1352.9 2298.63 1352.51 2298.22 1352.26 2297.81 1352.01 2297.1 1351.86 2296.07 1351.83L2296.42 1350.27ZM2279.95 1350.02 2281.07 1350.02 2277.67 1365.31C2277.46 1366.21 2277.31 1366.93 2277.23 1367.46 2277.14 1368 2277.1 1368.48 2277.1 1368.91 2277.1 1369.49 2277.22 1369.91 2277.46 1370.17 2277.69 1370.43 2278.05 1370.56 2278.52 1370.56 2278.8 1370.56 2279.07 1370.51 2279.35 1370.4 2279.62 1370.29 2279.92 1370.12 2280.23 1369.9 2280.55 1369.67 2280.89 1369.37 2281.27 1369.01 2281.64 1368.65 2282.06 1368.22 2282.52 1367.71L2284.08 1369.23C2283.28 1370.04 2282.56 1370.72 2281.91 1371.28 2281.26 1371.84 2280.64 1372.3 2280.06 1372.65 2279.48 1373 2278.91 1373.25 2278.35 1373.41 2277.79 1373.56 2277.2 1373.64 2276.57 1373.64 2275.99 1373.64 2275.47 1373.53 2275 1373.31 2274.53 1373.1 2274.13 1372.81 2273.8 1372.43 2273.46 1372.06 2273.2 1371.61 2273.02 1371.09 2272.83 1370.57 2272.74 1369.99 2272.74 1369.37 2272.74 1368.86 2272.8 1368.23 2272.92 1367.49 2273.05 1366.74 2273.2 1365.92 2273.39 1365.04 2273.59 1364.16 2273.8 1363.24 2274.03 1362.28 2274.25 1361.31 2274.48 1360.36 2274.7 1359.41 2274.92 1358.46 2275.12 1357.54 2275.3 1356.66 2275.48 1355.79 2275.6 1354.99 2275.68 1354.27 2275.71 1354.14 2275.72 1354.03 2275.72 1353.91 2275.72 1353.8 2275.72 1353.69 2275.72 1353.6 2275.69 1353 2275.48 1352.57 2275.09 1352.29 2274.7 1352.02 2274.01 1351.86 2273.02 1351.83L2273.29 1350.27ZM2319.32 1341.9 2320.98 1341.9 2316.94 1359.75 2317.58 1359.75C2318.16 1359.75 2318.79 1359.63 2319.46 1359.38 2320.13 1359.14 2320.8 1358.82 2321.47 1358.43 2322.13 1358.04 2322.77 1357.6 2323.39 1357.11 2324 1356.62 2324.54 1356.13 2325 1355.63 2325.47 1355.13 2325.84 1354.66 2326.12 1354.22 2326.39 1353.78 2326.53 1353.4 2326.53 1353.1 2326.53 1352.73 2326.41 1352.43 2326.16 1352.2 2325.92 1351.97 2325.47 1351.82 2324.83 1351.74L2325.11 1350.27 2333.37 1350.27 2333.94 1351.7C2332.98 1352.52 2332.05 1353.29 2331.17 1353.99 2330.28 1354.69 2329.41 1355.37 2328.56 1356.02 2327.71 1356.67 2326.86 1357.31 2326.01 1357.94 2325.16 1358.57 2324.3 1359.22 2323.41 1359.89 2323.78 1361.05 2324.15 1362.23 2324.53 1363.43 2324.92 1364.64 2325.3 1365.83 2325.68 1367 2325.86 1367.63 2326.04 1368.17 2326.2 1368.62 2326.36 1369.07 2326.53 1369.44 2326.71 1369.72 2326.9 1370.01 2327.1 1370.22 2327.31 1370.35 2327.52 1370.49 2327.78 1370.56 2328.09 1370.56 2328.3 1370.56 2328.53 1370.52 2328.76 1370.45 2328.98 1370.37 2329.24 1370.23 2329.52 1370.03 2329.81 1369.83 2330.13 1369.56 2330.49 1369.22 2330.85 1368.87 2331.26 1368.44 2331.72 1367.92L2333.28 1369.41C2332.56 1370.15 2331.89 1370.78 2331.27 1371.32 2330.65 1371.85 2330.06 1372.29 2329.5 1372.64 2328.94 1372.98 2328.4 1373.23 2327.88 1373.39 2327.36 1373.56 2326.84 1373.64 2326.3 1373.64 2325.34 1373.64 2324.56 1373.39 2323.97 1372.91 2323.38 1372.43 2322.88 1371.74 2322.47 1370.85 2322.05 1369.95 2321.68 1368.87 2321.33 1367.6 2320.99 1366.33 2320.59 1364.92 2320.13 1363.35 2320.02 1362.99 2319.92 1362.69 2319.82 1362.47 2319.72 1362.25 2319.59 1362.08 2319.44 1361.97 2319.28 1361.85 2319.09 1361.78 2318.86 1361.75 2318.63 1361.72 2318.34 1361.7 2317.99 1361.7L2316.52 1361.7 2314 1373.22 2309.59 1373.22 2315.15 1348.58C2315.33 1347.76 2315.46 1347.13 2315.54 1346.66 2315.61 1346.19 2315.65 1345.78 2315.65 1345.41 2315.65 1345.12 2315.6 1344.87 2315.5 1344.65 2315.4 1344.44 2315.24 1344.26 2315.01 1344.13 2314.78 1344 2314.47 1343.91 2314.09 1343.85 2313.71 1343.79 2313.23 1343.75 2312.67 1343.73L2313.01 1342.17ZM2301.72 1340.77 2306.33 1340.77 2305.21 1345.71 2300.6 1345.71ZM2278.62 1340.77 2283.21 1340.77 2282.08 1345.71 2277.54 1345.71Z" fill="#70AD47" fill-rule="evenodd"/><text fill="#000000" fill-opacity="0" font-family="Arial,Arial_MSFontService,sans-serif" font-size="41.6069" x="2272.74" y="1377.18">𝑖𝑗𝑘</text><path d="M2362.49 1324.73 2376.65 1338.86 2390.8 1324.73 2393.74 1327.64 2379.74 1341.89 2393.77 1356.07 2390.65 1359.2 2376.65 1344.92 2362.21 1359.07 2359.3 1356.14 2373.58 1341.89 2359.36 1327.86Z" fill-rule="evenodd"/><text fill="#000000" fill-opacity="0" font-family="Arial,Arial_MSFontService,sans-serif" font-size="34.4688" x="2359.3" y="1354.89">×</text><path d="M2438.3 1314.98 2439.14 1317.39C2434.26 1318.99 2430.65 1322.12 2428.31 1326.78 2425.97 1331.43 2424.8 1337.28 2424.8 1344.32 2424.8 1351.62 2425.97 1357.63 2428.31 1362.36 2430.65 1367.09 2434.23 1370.25 2439.05 1371.86L2438.3 1374.26C2432.19 1372.66 2427.51 1369.21 2424.26 1363.9 2421.01 1358.6 2419.39 1352.18 2419.39 1344.64 2419.39 1337.12 2421.02 1330.69 2424.28 1325.37 2427.54 1320.05 2432.21 1316.59 2438.3 1314.98Z" fill-rule="evenodd"/><text fill="#000000" fill-opacity="0" font-family="Arial,Arial_MSFontService,sans-serif" font-size="59.2812" x="2419.39" y="1366.85">(</text><path d="M2450.09 1263.92 2462.59 1263.92 2462.24 1265.46C2461.45 1265.62 2460.88 1265.81 2460.54 1266.02 2460.2 1266.23 2459.89 1266.54 2459.62 1266.96 2459.35 1267.37 2459.07 1268.02 2458.77 1268.91 2458.48 1269.79 2458.12 1271.24 2457.68 1273.24L2450.99 1303.71 2458.68 1303.71C2460.08 1303.71 2461.18 1303.57 2461.98 1303.3 2462.78 1303.03 2463.54 1302.53 2464.26 1301.82 2464.98 1301.1 2465.68 1300.12 2466.37 1298.89 2467.06 1297.66 2467.75 1296.13 2468.46 1294.3L2471.49 1294.3 2468.34 1306.58 2441.9 1306.58 2442.24 1305.05C2443.03 1304.92 2443.63 1304.72 2444.02 1304.44 2444.42 1304.16 2444.75 1303.77 2445.02 1303.27 2445.3 1302.77 2445.55 1302.16 2445.77 1301.44 2446 1300.72 2446.35 1299.33 2446.81 1297.27L2452.12 1273.21C2452.58 1271.12 2452.81 1269.45 2452.81 1268.17 2452.81 1267.2 2452.56 1266.51 2452.07 1266.13 2451.58 1265.74 2450.81 1265.52 2449.74 1265.46Z" fill="#548235" fill-rule="evenodd"/><text fill="#000000" fill-opacity="0" font-family="Arial,Arial_MSFontService,sans-serif" font-size="42.6562" x="2441.9" y="1301.25">𝐿</text><path d="M2508.13 1299.26 2509.71 1299.26 2504.94 1321.75C2504.56 1323.49 2504.07 1324.99 2503.46 1326.24 2502.86 1327.48 2502.12 1328.51 2501.25 1329.3 2500.37 1330.1 2499.36 1330.68 2498.19 1331.06 2497.03 1331.43 2495.7 1331.62 2494.2 1331.62 2493.8 1331.62 2493.42 1331.6 2493.05 1331.56 2492.69 1331.52 2492.36 1331.47 2492.07 1331.39L2492.64 1328.98C2492.82 1329.06 2493.07 1329.11 2493.38 1329.13 2493.68 1329.15 2494.03 1329.16 2494.43 1329.16 2495.18 1329.16 2495.85 1329.06 2496.44 1328.87 2497.03 1328.67 2497.56 1328.31 2498.02 1327.79 2498.49 1327.27 2498.91 1326.55 2499.28 1325.64 2499.66 1324.73 2500.01 1323.56 2500.33 1322.14 2500.86 1319.66 2501.38 1317.34 2501.87 1315.16 2502.36 1312.99 2502.76 1311.17 2503.07 1309.7 2503.38 1308.23 2503.63 1307.06 2503.82 1306.19 2504 1305.32 2504.13 1304.65 2504.22 1304.17 2504.3 1303.7 2504.35 1303.36 2504.37 1303.16 2504.38 1302.96 2504.39 1302.8 2504.39 1302.68 2504.39 1302.14 2504.19 1301.75 2503.78 1301.5 2503.38 1301.25 2502.66 1301.1 2501.64 1301.07L2501.98 1299.51ZM2485.51 1299.26 2486.63 1299.26 2483.24 1314.54C2483.02 1315.45 2482.87 1316.17 2482.79 1316.7 2482.71 1317.24 2482.66 1317.72 2482.66 1318.15 2482.66 1318.73 2482.78 1319.15 2483.02 1319.41 2483.26 1319.67 2483.61 1319.8 2484.09 1319.8 2484.36 1319.8 2484.64 1319.75 2484.91 1319.64 2485.19 1319.53 2485.48 1319.36 2485.8 1319.13 2486.11 1318.91 2486.45 1318.61 2486.83 1318.25 2487.2 1317.89 2487.62 1317.46 2488.08 1316.95L2489.64 1318.47C2488.84 1319.28 2488.12 1319.96 2487.47 1320.52 2486.82 1321.08 2486.2 1321.54 2485.62 1321.89 2485.04 1322.24 2484.47 1322.49 2483.91 1322.65 2483.36 1322.8 2482.76 1322.88 2482.14 1322.88 2481.55 1322.88 2481.03 1322.77 2480.56 1322.55 2480.1 1322.34 2479.7 1322.05 2479.36 1321.67 2479.02 1321.3 2478.76 1320.85 2478.58 1320.33 2478.39 1319.81 2478.3 1319.23 2478.3 1318.61 2478.3 1318.1 2478.36 1317.47 2478.49 1316.72 2478.61 1315.98 2478.77 1315.16 2478.96 1314.28 2479.15 1313.4 2479.36 1312.48 2479.59 1311.52 2479.82 1310.55 2480.04 1309.6 2480.26 1308.65 2480.49 1307.7 2480.69 1306.78 2480.86 1305.9 2481.04 1305.02 2481.16 1304.23 2481.24 1303.51 2481.27 1303.38 2481.29 1303.27 2481.29 1303.15 2481.29 1303.04 2481.29 1302.93 2481.29 1302.84 2481.26 1302.24 2481.05 1301.81 2480.66 1301.53 2480.26 1301.26 2479.57 1301.1 2478.58 1301.07L2478.85 1299.51ZM2524.89 1291.14 2526.54 1291.14 2522.5 1308.99 2523.14 1308.99C2523.72 1308.99 2524.35 1308.87 2525.02 1308.62 2525.7 1308.38 2526.37 1308.06 2527.03 1307.67 2527.7 1307.28 2528.34 1306.84 2528.95 1306.35 2529.56 1305.86 2530.1 1305.37 2530.57 1304.87 2531.03 1304.37 2531.4 1303.9 2531.68 1303.46 2531.95 1303.02 2532.09 1302.64 2532.09 1302.34 2532.09 1301.97 2531.97 1301.67 2531.72 1301.44 2531.48 1301.21 2531.04 1301.06 2530.39 1300.98L2530.67 1299.51 2538.93 1299.51 2539.5 1300.94C2538.54 1301.76 2537.61 1302.53 2536.73 1303.23 2535.84 1303.93 2534.97 1304.61 2534.12 1305.26 2533.27 1305.91 2532.42 1306.55 2531.58 1307.18 2530.73 1307.81 2529.86 1308.46 2528.97 1309.13 2529.34 1310.29 2529.71 1311.47 2530.1 1312.67 2530.48 1313.88 2530.86 1315.06 2531.24 1316.24 2531.43 1316.87 2531.6 1317.41 2531.76 1317.86 2531.92 1318.31 2532.09 1318.68 2532.28 1318.96 2532.46 1319.25 2532.66 1319.46 2532.87 1319.59 2533.09 1319.73 2533.35 1319.8 2533.65 1319.8 2533.87 1319.8 2534.09 1319.76 2534.32 1319.69 2534.55 1319.61 2534.8 1319.47 2535.09 1319.27 2535.37 1319.07 2535.69 1318.8 2536.05 1318.46 2536.41 1318.11 2536.82 1317.68 2537.28 1317.16L2538.84 1318.65C2538.12 1319.39 2537.45 1320.02 2536.83 1320.56 2536.21 1321.09 2535.62 1321.53 2535.06 1321.88 2534.51 1322.22 2533.97 1322.47 2533.45 1322.63 2532.93 1322.8 2532.4 1322.88 2531.86 1322.88 2530.9 1322.88 2530.12 1322.63 2529.53 1322.15 2528.94 1321.67 2528.44 1320.98 2528.03 1320.09 2527.62 1319.19 2527.24 1318.11 2526.89 1316.84 2526.55 1315.57 2526.15 1314.15 2525.69 1312.59 2525.58 1312.23 2525.48 1311.93 2525.38 1311.71 2525.28 1311.49 2525.15 1311.32 2525 1311.21 2524.85 1311.09 2524.66 1311.02 2524.43 1310.99 2524.2 1310.96 2523.91 1310.94 2523.55 1310.94L2522.09 1310.94 2519.56 1322.46 2515.16 1322.46 2520.71 1297.81C2520.89 1297 2521.02 1296.37 2521.1 1295.9 2521.18 1295.43 2521.21 1295.02 2521.21 1294.65 2521.21 1294.36 2521.16 1294.1 2521.06 1293.89 2520.97 1293.68 2520.8 1293.5 2520.57 1293.37 2520.34 1293.24 2520.04 1293.15 2519.65 1293.09 2519.27 1293.03 2518.8 1292.99 2518.23 1292.97L2518.57 1291.41ZM2507.28 1290.01 2511.9 1290.01 2510.77 1294.95 2506.16 1294.95ZM2484.18 1290.01 2488.77 1290.01 2487.64 1294.95 2483.1 1294.95Z" fill="#548235" fill-rule="evenodd"/><text fill="#000000" fill-opacity="0" font-family="Arial,Arial_MSFontService,sans-serif" font-size="41.6069" x="2478.3" y="1326.42">𝑖𝑗𝑘</text><path d="M2488.5 1259.96C2487.81 1259.96 2487.05 1260.19 2486.23 1260.64 2485.4 1261.09 2484.58 1261.76 2483.78 1262.65 2482.98 1263.54 2482.24 1264.63 2481.56 1265.94 2480.87 1267.25 2480.34 1268.75 2479.94 1270.45 2479.82 1271.28 2479.68 1272.09 2479.52 1272.88 2479.37 1273.68 2479.29 1274.42 2479.29 1275.11 2479.29 1276.35 2479.57 1277.22 2480.13 1277.74 2480.69 1278.25 2481.59 1278.51 2482.83 1278.51 2484.08 1278.51 2485.24 1278.1 2486.29 1277.3 2487.35 1276.5 2488.26 1275.45 2489.01 1274.15 2489.77 1272.84 2490.36 1271.38 2490.79 1269.76 2491.22 1268.14 2491.44 1266.5 2491.44 1264.85 2491.44 1263.21 2491.2 1261.99 2490.74 1261.18 2490.27 1260.37 2489.52 1259.96 2488.5 1259.96ZM2515.76 1256.89C2516.88 1256.89 2517.92 1256.95 2518.87 1257.07 2519.83 1257.19 2520.82 1257.38 2521.84 1257.64L2520.56 1263.27 2517.85 1263.27C2517.84 1262.47 2517.78 1261.81 2517.68 1261.28 2517.58 1260.75 2517.42 1260.34 2517.2 1260.03 2516.98 1259.73 2516.69 1259.51 2516.33 1259.38 2515.97 1259.25 2515.53 1259.17 2515.01 1259.16 2514.18 1259.16 2513.39 1259.34 2512.63 1259.71 2511.87 1260.08 2511.17 1260.59 2510.52 1261.24 2509.87 1261.89 2509.28 1262.65 2508.74 1263.52 2508.21 1264.39 2507.75 1265.33 2507.36 1266.34 2506.98 1267.35 2506.69 1268.4 2506.48 1269.5 2506.27 1270.59 2506.17 1271.68 2506.17 1272.77 2506.17 1274.39 2506.49 1275.63 2507.13 1276.47 2507.78 1277.32 2508.74 1277.75 2510.03 1277.75 2510.74 1277.75 2511.41 1277.68 2512.02 1277.55 2512.63 1277.42 2513.23 1277.21 2513.81 1276.9 2514.39 1276.59 2514.99 1276.19 2515.61 1275.69 2516.23 1275.2 2516.92 1274.58 2517.67 1273.85 2517.96 1274.15 2518.24 1274.46 2518.51 1274.75 2518.77 1275.05 2519.05 1275.35 2519.34 1275.66 2517.69 1277.37 2516.04 1278.65 2514.39 1279.48 2512.73 1280.31 2510.96 1280.73 2509.06 1280.73 2506.69 1280.73 2504.87 1280.04 2503.61 1278.65 2502.35 1277.27 2501.72 1275.29 2501.72 1272.72 2501.72 1271.28 2501.88 1269.9 2502.2 1268.56 2502.52 1267.22 2502.98 1265.96 2503.59 1264.78 2504.19 1263.6 2504.92 1262.53 2505.76 1261.57 2506.6 1260.61 2507.54 1259.78 2508.58 1259.08 2509.62 1258.38 2510.74 1257.84 2511.95 1257.46 2513.16 1257.08 2514.43 1256.89 2515.76 1256.89ZM2535.01 1248.99 2536.67 1248.99C2535.72 1253.26 2534.85 1257.16 2534.06 1260.7 2533.27 1264.23 2532.41 1268.13 2531.48 1272.4 2531.26 1273.32 2531.11 1274.04 2531.02 1274.57 2530.93 1275.1 2530.88 1275.58 2530.88 1276 2530.88 1276.59 2531 1277.01 2531.24 1277.27 2531.47 1277.53 2531.84 1277.66 2532.33 1277.66 2532.6 1277.66 2532.88 1277.6 2533.15 1277.5 2533.43 1277.39 2533.72 1277.22 2534.03 1276.99 2534.33 1276.76 2534.67 1276.47 2535.05 1276.11 2535.42 1275.75 2535.85 1275.32 2536.32 1274.81L2537.81 1276.33C2537.03 1277.12 2536.32 1277.8 2535.69 1278.36 2535.05 1278.91 2534.45 1279.37 2533.88 1279.72 2533.3 1280.07 2532.74 1280.33 2532.18 1280.49 2531.62 1280.65 2531.02 1280.73 2530.38 1280.73 2529.8 1280.73 2529.27 1280.62 2528.8 1280.41 2528.34 1280.2 2527.94 1279.9 2527.6 1279.53 2527.26 1279.15 2527 1278.7 2526.82 1278.18 2526.64 1277.66 2526.54 1277.09 2526.54 1276.46 2526.54 1275.9 2526.6 1275.2 2526.72 1274.36 2526.83 1273.53 2527.01 1272.58 2527.26 1271.53 2527.91 1268.59 2528.57 1265.66 2529.22 1262.74 2529.87 1259.82 2530.4 1257.58 2530.81 1256.02 2531.18 1254.35 2531.36 1253.21 2531.36 1252.6 2531.36 1252.27 2531.32 1252.01 2531.24 1251.79 2531.15 1251.58 2531 1251.4 2530.78 1251.26 2530.56 1251.13 2530.25 1251.03 2529.87 1250.97 2529.49 1250.91 2528.99 1250.86 2528.38 1250.83L2528.7 1249.27ZM2483.13 1248.99 2484.78 1248.99 2481.57 1262.1 2481.89 1262.26C2482.67 1261.34 2483.41 1260.54 2484.13 1259.86 2484.84 1259.18 2485.53 1258.62 2486.21 1258.18 2486.9 1257.75 2487.57 1257.42 2488.25 1257.21 2488.92 1256.99 2489.61 1256.89 2490.33 1256.89 2492.14 1256.89 2493.53 1257.55 2494.51 1258.86 2495.49 1260.18 2495.98 1262.1 2495.98 1264.62 2495.98 1266.82 2495.64 1268.9 2494.96 1270.85 2494.28 1272.8 2493.36 1274.51 2492.19 1275.98 2491.03 1277.45 2489.68 1278.61 2488.14 1279.46 2486.6 1280.31 2484.98 1280.73 2483.27 1280.73 2482.16 1280.73 2481.15 1280.62 2480.21 1280.4 2479.28 1280.18 2478.37 1279.81 2477.48 1279.29 2477.1 1279.5 2476.71 1279.74 2476.31 1280 2475.91 1280.26 2475.54 1280.5 2475.19 1280.73 2474.91 1280.66 2474.62 1280.58 2474.31 1280.51 2474.01 1280.44 2473.72 1280.36 2473.44 1280.27L2478.95 1255.67C2479.12 1254.91 2479.25 1254.28 2479.33 1253.79 2479.41 1253.3 2479.46 1252.87 2479.46 1252.5 2479.46 1252.21 2479.41 1251.96 2479.32 1251.75 2479.23 1251.53 2479.07 1251.36 2478.84 1251.23 2478.61 1251.1 2478.3 1251 2477.92 1250.94 2477.54 1250.88 2477.05 1250.84 2476.47 1250.83L2476.82 1249.27Z" fill="#548235" fill-rule="evenodd"/><text fill="#000000" fill-opacity="0" font-family="Arial,Arial_MSFontService,sans-serif" font-size="31.7388" x="2473.44" y="1276.76">𝑏𝑐𝑙</text><path d="M2469.37 1375.12C2467.24 1375.12 2465.34 1375.98 2463.65 1377.7 2461.96 1379.42 2460.63 1381.74 2459.67 1384.65 2458.7 1387.57 2458.21 1390.48 2458.21 1393.37 2458.21 1395.54 2458.51 1397.16 2459.1 1398.23 2459.7 1399.3 2460.69 1399.84 2462.09 1399.84 2462.73 1399.84 2463.39 1399.7 2464.06 1399.42 2464.72 1399.14 2465.42 1398.69 2466.13 1398.06 2466.85 1397.44 2467.56 1396.67 2468.26 1395.78 2468.96 1394.88 2469.6 1393.98 2470.18 1393.08 2470.76 1392.17 2471.31 1391.1 2471.81 1389.86 2472.31 1388.62 2472.73 1387.12 2473.09 1385.37L2473.37 1384.03C2473.68 1382.53 2473.84 1381.11 2473.84 1379.78 2473.84 1378.15 2473.49 1376.97 2472.81 1376.23 2472.12 1375.49 2470.97 1375.12 2469.37 1375.12ZM2482.46 1358.37 2484.31 1358.37 2476.52 1392.97C2476.07 1395.01 2475.84 1396.55 2475.84 1397.59 2475.84 1398.42 2475.97 1399.03 2476.24 1399.4 2476.51 1399.78 2476.94 1399.97 2477.52 1399.97 2478.15 1399.97 2478.82 1399.71 2479.52 1399.2 2480.23 1398.69 2481.23 1397.72 2482.52 1396.28L2484.31 1398.03C2482.39 1400.05 2480.77 1401.48 2479.46 1402.31 2478.15 1403.14 2476.73 1403.56 2475.21 1403.56 2473.92 1403.56 2472.89 1403.13 2472.12 1402.28 2471.35 1401.42 2470.96 1400.29 2470.96 1398.87 2470.96 1397.73 2471.2 1396.51 2471.68 1395.22L2471.27 1395.09C2469.27 1398.01 2467.38 1400.14 2465.59 1401.5 2463.8 1402.85 2461.9 1403.53 2459.9 1403.53 2457.61 1403.53 2455.83 1402.66 2454.57 1400.94 2453.31 1399.21 2452.68 1396.78 2452.68 1393.65 2452.68 1390.07 2453.38 1386.63 2454.79 1383.33 2456.2 1380.02 2458.13 1377.42 2460.59 1375.51 2463.05 1373.61 2465.78 1372.65 2468.81 1372.65 2470.08 1372.65 2471.25 1372.78 2472.32 1373.04 2473.39 1373.3 2474.49 1373.76 2475.62 1374.4L2477.24 1367.19C2477.41 1366.5 2477.56 1365.74 2477.68 1364.9 2477.81 1364.07 2477.87 1363.34 2477.87 1362.72 2477.87 1362.09 2477.75 1361.62 2477.52 1361.29 2477.3 1360.97 2476.97 1360.74 2476.54 1360.59 2476.11 1360.45 2475.35 1360.34 2474.24 1360.28L2474.62 1358.65Z" fill="#548235" fill-rule="evenodd"/><text fill="#000000" fill-opacity="0" font-family="Arial,Arial_MSFontService,sans-serif" font-size="45.1875" x="2452.68" y="1397.91">𝑑</text><path d="M2520.28 1397.85 2521.86 1397.85 2517.09 1420.34C2516.7 1422.08 2516.21 1423.58 2515.61 1424.82 2515 1426.07 2514.26 1427.09 2513.39 1427.89 2512.52 1428.68 2511.5 1429.27 2510.34 1429.64 2509.18 1430.02 2507.85 1430.21 2506.35 1430.21 2505.95 1430.21 2505.57 1430.19 2505.2 1430.15 2504.83 1430.11 2504.5 1430.05 2504.21 1429.98L2504.79 1427.57C2504.97 1427.64 2505.21 1427.69 2505.52 1427.72 2505.83 1427.74 2506.18 1427.75 2506.58 1427.75 2507.33 1427.75 2508 1427.65 2508.58 1427.45 2509.17 1427.25 2509.7 1426.89 2510.17 1426.37 2510.63 1425.85 2511.06 1425.14 2511.43 1424.23 2511.8 1423.32 2512.15 1422.15 2512.47 1420.73 2513.01 1418.25 2513.52 1415.92 2514.01 1413.75 2514.5 1411.58 2514.9 1409.76 2515.22 1408.29 2515.53 1406.82 2515.78 1405.65 2515.96 1404.78 2516.15 1403.91 2516.28 1403.23 2516.36 1402.76 2516.45 1402.29 2516.5 1401.95 2516.51 1401.75 2516.53 1401.55 2516.54 1401.39 2516.54 1401.27 2516.54 1400.73 2516.33 1400.34 2515.93 1400.09 2515.52 1399.83 2514.81 1399.69 2513.78 1399.66L2514.13 1398.1ZM2497.65 1397.85 2498.78 1397.85 2495.38 1413.13C2495.17 1414.04 2495.02 1414.75 2494.94 1415.29 2494.85 1415.83 2494.81 1416.31 2494.81 1416.74 2494.81 1417.32 2494.93 1417.74 2495.16 1418 2495.4 1418.26 2495.76 1418.39 2496.23 1418.39 2496.51 1418.39 2496.78 1418.33 2497.06 1418.23 2497.33 1418.12 2497.63 1417.95 2497.94 1417.72 2498.26 1417.49 2498.6 1417.2 2498.97 1416.84 2499.35 1416.48 2499.77 1416.05 2500.22 1415.54L2501.79 1417.06C2500.99 1417.87 2500.27 1418.55 2499.62 1419.11 2498.97 1419.67 2498.35 1420.12 2497.77 1420.48 2497.19 1420.83 2496.62 1421.08 2496.06 1421.23 2495.5 1421.39 2494.91 1421.46 2494.28 1421.46 2493.7 1421.46 2493.18 1421.36 2492.71 1421.14 2492.24 1420.93 2491.84 1420.63 2491.5 1420.26 2491.17 1419.88 2490.91 1419.44 2490.72 1418.92 2490.54 1418.4 2490.45 1417.82 2490.45 1417.19 2490.45 1416.69 2490.51 1416.06 2490.63 1415.31 2490.75 1414.56 2490.91 1413.75 2491.1 1412.87 2491.29 1411.99 2491.5 1411.07 2491.73 1410.1 2491.96 1409.14 2492.19 1408.18 2492.41 1407.23 2492.63 1406.29 2492.83 1405.37 2493.01 1404.49 2493.18 1403.61 2493.31 1402.81 2493.39 1402.09 2493.42 1401.97 2493.43 1401.85 2493.43 1401.74 2493.43 1401.62 2493.43 1401.52 2493.43 1401.43 2493.4 1400.83 2493.19 1400.4 2492.8 1400.12 2492.41 1399.84 2491.72 1399.69 2490.72 1399.66L2491 1398.1ZM2519.43 1388.6 2524.04 1388.6 2522.92 1393.53 2518.3 1393.53ZM2496.32 1388.6 2500.91 1388.6 2499.79 1393.53 2495.24 1393.53Z" fill="#548235" fill-rule="evenodd"/><text fill="#000000" fill-opacity="0" font-family="Arial,Arial_MSFontService,sans-serif" font-size="41.6069" x="2490.45" y="1425.01">𝑖𝑗</text><path d="M2497.03 1355.25C2498.16 1355.25 2499.04 1355.62 2499.66 1356.36 2500.28 1357.1 2500.59 1358.08 2500.59 1359.28 2500.59 1359.62 2500.57 1359.95 2500.52 1360.27 2500.47 1360.59 2500.39 1360.91 2500.27 1361.21L2500.54 1361.33C2502 1359.29 2503.45 1357.77 2504.9 1356.76 2506.36 1355.75 2507.85 1355.25 2509.38 1355.25 2511 1355.25 2512.21 1355.66 2513.02 1356.5 2513.82 1357.33 2514.22 1358.56 2514.22 1360.18 2514.22 1360.32 2514.22 1360.45 2514.22 1360.58 2514.22 1360.71 2514.21 1360.85 2514.18 1360.98L2514.27 1360.98C2515.69 1359.04 2517.11 1357.6 2518.51 1356.66 2519.92 1355.72 2521.39 1355.25 2522.92 1355.25 2524.54 1355.25 2525.75 1355.68 2526.56 1356.55 2527.36 1357.43 2527.76 1358.65 2527.76 1360.23 2527.76 1360.7 2527.68 1361.34 2527.53 1362.14 2527.38 1362.95 2527.19 1363.83 2526.97 1364.79 2526.75 1365.76 2526.51 1366.75 2526.25 1367.79 2525.99 1368.82 2525.74 1369.8 2525.51 1370.71 2525.37 1371.31 2525.26 1371.8 2525.18 1372.17 2525.1 1372.55 2525.03 1372.86 2524.98 1373.11 2524.94 1373.36 2524.91 1373.58 2524.89 1373.77 2524.88 1373.95 2524.87 1374.15 2524.87 1374.36 2524.87 1374.94 2524.98 1375.36 2525.19 1375.62 2525.41 1375.88 2525.75 1376.01 2526.22 1376.01 2526.5 1376.01 2526.77 1375.96 2527.05 1375.85 2527.33 1375.75 2527.62 1375.58 2527.93 1375.35 2528.25 1375.12 2528.59 1374.83 2528.97 1374.47 2529.34 1374.11 2529.76 1373.67 2530.22 1373.17L2531.8 1374.68C2531.07 1375.45 2530.38 1376.11 2529.75 1376.66 2529.11 1377.21 2528.5 1377.66 2527.91 1378.02 2527.32 1378.38 2526.74 1378.65 2526.15 1378.83 2525.57 1379 2524.96 1379.09 2524.32 1379.09 2523.74 1379.09 2523.21 1378.98 2522.74 1378.77 2522.26 1378.55 2521.86 1378.26 2521.53 1377.89 2521.2 1377.51 2520.95 1377.07 2520.76 1376.55 2520.58 1376.04 2520.49 1375.48 2520.49 1374.87 2520.49 1373.61 2520.75 1372 2521.29 1370.03 2521.58 1369.03 2521.84 1368.08 2522.08 1367.17 2522.32 1366.26 2522.52 1365.42 2522.69 1364.64 2522.86 1363.87 2522.99 1363.18 2523.09 1362.58 2523.19 1361.97 2523.24 1361.47 2523.24 1361.07 2523.24 1360.13 2523.06 1359.43 2522.7 1358.99 2522.34 1358.54 2521.78 1358.32 2521.01 1358.32 2520.54 1358.32 2520.03 1358.44 2519.5 1358.69 2518.96 1358.93 2518.42 1359.27 2517.88 1359.71 2517.34 1360.15 2516.81 1360.66 2516.29 1361.26 2515.77 1361.86 2515.28 1362.5 2514.84 1363.2 2514.4 1363.89 2514 1364.62 2513.66 1365.39 2513.31 1366.15 2513.05 1366.93 2512.87 1367.71L2510.6 1378.68 2506.12 1378.68C2506.33 1377.7 2506.58 1376.65 2506.84 1375.52 2507.11 1374.4 2507.38 1373.26 2507.66 1372.11 2507.93 1370.97 2508.2 1369.83 2508.45 1368.72 2508.7 1367.6 2508.93 1366.56 2509.13 1365.58 2509.33 1364.61 2509.49 1363.74 2509.61 1362.97 2509.73 1362.2 2509.79 1361.58 2509.79 1361.12 2509.79 1360.16 2509.6 1359.45 2509.23 1359 2508.85 1358.55 2508.25 1358.32 2507.43 1358.32 2506.69 1358.32 2505.91 1358.6 2505.06 1359.15 2504.22 1359.7 2503.42 1360.42 2502.67 1361.32 2501.91 1362.21 2501.23 1363.22 2500.64 1364.35 2500.04 1365.47 2499.62 1366.61 2499.37 1367.75L2497.03 1378.68 2492.53 1378.68 2495.98 1363.71C2496.18 1362.89 2496.32 1362.17 2496.41 1361.56 2496.5 1360.94 2496.55 1360.44 2496.55 1360.04 2496.55 1358.93 2496.1 1358.37 2495.2 1358.37 2494.92 1358.37 2494.64 1358.42 2494.36 1358.54 2494.08 1358.65 2493.78 1358.83 2493.46 1359.06 2493.15 1359.28 2492.81 1359.58 2492.44 1359.93 2492.08 1360.28 2491.66 1360.69 2491.2 1361.17L2489.62 1359.67C2490.37 1358.91 2491.06 1358.25 2491.7 1357.69 2492.33 1357.13 2492.94 1356.67 2493.53 1356.31 2494.12 1355.95 2494.7 1355.69 2495.27 1355.51 2495.83 1355.33 2496.42 1355.25 2497.03 1355.25Z" fill="#548235" fill-rule="evenodd"/><text fill="#000000" fill-opacity="0" font-family="Arial,Arial_MSFontService,sans-serif" font-size="23.8442" x="2489.62" y="1376.11">𝑚</text><path d="M2440.61 1340.15 2545.61 1340.15 2545.61 1344.15 2440.61 1344.15Z" fill="#548235" fill-rule="evenodd"/><path d="M2547.02 1314.98C2553.1 1316.59 2557.77 1320.05 2561.03 1325.37 2564.29 1330.69 2565.92 1337.12 2565.92 1344.64 2565.92 1352.18 2564.3 1358.6 2561.05 1363.9 2557.8 1369.21 2553.12 1372.66 2547.02 1374.26L2546.27 1371.86C2551.08 1370.25 2554.66 1367.09 2557 1362.36 2559.34 1357.63 2560.52 1351.62 2560.52 1344.32 2560.52 1337.28 2559.35 1331.43 2557.02 1326.78 2554.68 1322.12 2551.07 1318.99 2546.17 1317.39Z" fill-rule="evenodd"/><text fill="#000000" fill-opacity="0" font-family="Arial,Arial_MSFontService,sans-serif" font-size="59.2812" x="2546.17" y="1366.85">)</text><path d="M2594.41 1324.73 2608.56 1338.86 2622.72 1324.73 2625.66 1327.64 2611.66 1341.89 2625.69 1356.07 2622.56 1359.2 2608.56 1344.92 2594.12 1359.07 2591.22 1356.14 2605.5 1341.89 2591.28 1327.86Z" fill-rule="evenodd"/><text fill="#000000" fill-opacity="0" font-family="Arial,Arial_MSFontService,sans-serif" font-size="34.4688" x="2591.22" y="1354.89">×</text><path d="M2668.68 1333.42C2667.62 1333.42 2666.57 1333.78 2665.54 1334.5 2664.51 1335.22 2663.38 1336.37 2662.15 1337.95 2660.92 1339.53 2659.96 1341.1 2659.27 1342.64 2658.59 1344.18 2658.05 1345.95 2657.65 1347.95L2657.4 1349.26C2657.19 1350.37 2657.06 1351.21 2657.01 1351.79 2656.96 1352.38 2656.93 1352.95 2656.93 1353.51 2656.93 1355.14 2657.28 1356.32 2657.98 1357.06 2658.68 1357.8 2659.88 1358.17 2661.59 1358.17 2662.65 1358.17 2663.63 1357.96 2664.52 1357.54 2665.42 1357.13 2666.27 1356.52 2667.07 1355.73 2667.87 1354.94 2668.6 1353.98 2669.24 1352.86 2669.89 1351.73 2670.47 1350.42 2670.98 1348.93 2671.49 1347.44 2671.87 1345.91 2672.13 1344.34 2672.39 1342.77 2672.52 1341.29 2672.52 1339.92 2672.52 1337.73 2672.22 1336.1 2671.6 1335.03 2670.99 1333.96 2670.01 1333.42 2668.68 1333.42ZM2655.52 1329.73C2656.82 1329.73 2657.84 1330.16 2658.6 1331.01 2659.36 1331.87 2659.74 1333 2659.74 1334.42 2659.74 1335.59 2659.5 1336.81 2659.02 1338.11L2659.4 1338.23C2663.25 1332.59 2667.09 1329.76 2670.9 1329.76 2673.17 1329.76 2674.94 1330.63 2676.2 1332.36 2677.46 1334.09 2678.09 1336.52 2678.09 1339.67 2678.09 1343.11 2677.39 1346.49 2676.01 1349.81 2674.62 1353.13 2672.7 1355.77 2670.24 1357.72 2667.78 1359.66 2665.03 1360.64 2661.99 1360.64 2659.22 1360.64 2656.92 1360.03 2655.09 1358.82L2653.65 1365.67C2653.34 1367.15 2653.18 1368.37 2653.18 1369.32 2653.18 1370.24 2653.42 1370.89 2653.88 1371.28 2654.35 1371.66 2655.26 1371.92 2656.62 1372.04L2656.37 1373.57 2646.71 1373.57 2654.24 1340.42C2654.68 1338.5 2654.9 1336.93 2654.9 1335.7 2654.9 1334.87 2654.76 1334.26 2654.49 1333.89 2654.22 1333.51 2653.8 1333.32 2653.21 1333.32 2652.57 1333.32 2651.88 1333.59 2651.17 1334.12 2650.45 1334.65 2649.46 1335.62 2648.21 1337.01L2646.43 1335.26C2648.31 1333.3 2649.89 1331.89 2651.2 1331.03 2652.5 1330.16 2653.94 1329.73 2655.52 1329.73Z" fill="#385723" fill-rule="evenodd"/><text fill="#000000" fill-opacity="0" font-family="Arial,Arial_MSFontService,sans-serif" font-size="43.8438" x="2646.43" y="1368.09">𝑝</text><path d="M2712.8 1352.82 2714.38 1352.82 2709.61 1375.31C2709.23 1377.05 2708.73 1378.55 2708.13 1379.79 2707.53 1381.04 2706.79 1382.06 2705.92 1382.86 2705.04 1383.65 2704.03 1384.24 2702.86 1384.61 2701.7 1384.99 2700.37 1385.18 2698.87 1385.18 2698.47 1385.18 2698.09 1385.16 2697.72 1385.12 2697.36 1385.08 2697.03 1385.02 2696.74 1384.95L2697.31 1382.54C2697.49 1382.61 2697.74 1382.66 2698.04 1382.69 2698.35 1382.71 2698.7 1382.72 2699.1 1382.72 2699.85 1382.72 2700.52 1382.62 2701.11 1382.42 2701.7 1382.22 2702.22 1381.86 2702.69 1381.34 2703.16 1380.82 2703.58 1380.11 2703.95 1379.2 2704.33 1378.29 2704.68 1377.12 2705 1375.7 2705.53 1373.22 2706.05 1370.89 2706.53 1368.72 2707.02 1366.55 2707.43 1364.73 2707.74 1363.26 2708.05 1361.79 2708.3 1360.62 2708.49 1359.75 2708.67 1358.88 2708.8 1358.2 2708.89 1357.73 2708.97 1357.25 2709.02 1356.92 2709.04 1356.72 2709.05 1356.52 2709.06 1356.36 2709.06 1356.24 2709.06 1355.7 2708.86 1355.31 2708.45 1355.05 2708.05 1354.8 2707.33 1354.66 2706.31 1354.63L2706.65 1353.07ZM2690.18 1352.82 2691.3 1352.82 2687.91 1368.1C2687.69 1369 2687.54 1369.72 2687.46 1370.26 2687.37 1370.79 2687.33 1371.28 2687.33 1371.7 2687.33 1372.29 2687.45 1372.71 2687.69 1372.97 2687.92 1373.23 2688.28 1373.36 2688.75 1373.36 2689.03 1373.36 2689.31 1373.3 2689.58 1373.2 2689.86 1373.09 2690.15 1372.92 2690.46 1372.69 2690.78 1372.46 2691.12 1372.17 2691.5 1371.81 2691.87 1371.45 2692.29 1371.02 2692.75 1370.51L2694.31 1372.03C2693.51 1372.84 2692.79 1373.52 2692.14 1374.08 2691.49 1374.64 2690.87 1375.09 2690.29 1375.44 2689.71 1375.8 2689.14 1376.05 2688.58 1376.2 2688.02 1376.36 2687.43 1376.43 2686.8 1376.43 2686.22 1376.43 2685.7 1376.32 2685.23 1376.11 2684.77 1375.9 2684.36 1375.6 2684.03 1375.23 2683.69 1374.85 2683.43 1374.4 2683.25 1373.88 2683.06 1373.36 2682.97 1372.79 2682.97 1372.16 2682.97 1371.66 2683.03 1371.03 2683.16 1370.28 2683.28 1369.53 2683.43 1368.72 2683.63 1367.84 2683.82 1366.96 2684.03 1366.04 2684.26 1365.07 2684.49 1364.11 2684.71 1363.15 2684.93 1362.2 2685.16 1361.25 2685.35 1360.34 2685.53 1359.46 2685.71 1358.58 2685.83 1357.78 2685.91 1357.06 2685.94 1356.94 2685.95 1356.82 2685.95 1356.71 2685.95 1356.59 2685.95 1356.49 2685.95 1356.4 2685.92 1355.8 2685.71 1355.36 2685.32 1355.09 2684.93 1354.81 2684.24 1354.66 2683.25 1354.63L2683.52 1353.07ZM2729.55 1344.69 2731.21 1344.69 2727.17 1362.55 2727.81 1362.55C2728.39 1362.55 2729.02 1362.42 2729.69 1362.18 2730.37 1361.94 2731.03 1361.62 2731.7 1361.23 2732.37 1360.84 2733 1360.4 2733.62 1359.91 2734.23 1359.42 2734.77 1358.93 2735.23 1358.43 2735.7 1357.93 2736.07 1357.46 2736.35 1357.02 2736.62 1356.57 2736.76 1356.2 2736.76 1355.89 2736.76 1355.52 2736.64 1355.23 2736.39 1355 2736.15 1354.77 2735.7 1354.61 2735.06 1354.54L2735.34 1353.07 2743.6 1353.07 2744.17 1354.49C2743.21 1355.32 2742.28 1356.08 2741.4 1356.79 2740.51 1357.49 2739.64 1358.17 2738.79 1358.82 2737.94 1359.47 2737.09 1360.11 2736.24 1360.73 2735.4 1361.36 2734.53 1362.01 2733.64 1362.69 2734.01 1363.85 2734.38 1365.03 2734.76 1366.23 2735.15 1367.43 2735.53 1368.62 2735.91 1369.8 2736.09 1370.43 2736.27 1370.97 2736.43 1371.42 2736.59 1371.87 2736.76 1372.24 2736.94 1372.52 2737.13 1372.8 2737.33 1373.01 2737.54 1373.15 2737.75 1373.29 2738.02 1373.36 2738.32 1373.36 2738.54 1373.36 2738.76 1373.32 2738.99 1373.24 2739.22 1373.17 2739.47 1373.03 2739.76 1372.83 2740.04 1372.63 2740.36 1372.36 2740.72 1372.01 2741.08 1371.67 2741.49 1371.24 2741.95 1370.72L2743.51 1372.21C2742.79 1372.94 2742.12 1373.58 2741.5 1374.11 2740.88 1374.65 2740.29 1375.09 2739.73 1375.43 2739.17 1375.78 2738.63 1376.03 2738.11 1376.19 2737.59 1376.35 2737.07 1376.43 2736.53 1376.43 2735.57 1376.43 2734.79 1376.19 2734.2 1375.71 2733.61 1375.23 2733.11 1374.54 2732.7 1373.64 2732.29 1372.75 2731.91 1371.67 2731.56 1370.4 2731.22 1369.13 2730.82 1367.71 2730.36 1366.15 2730.25 1365.78 2730.15 1365.49 2730.05 1365.27 2729.95 1365.05 2729.82 1364.88 2729.67 1364.76 2729.52 1364.65 2729.32 1364.57 2729.1 1364.54 2728.87 1364.51 2728.58 1364.5 2728.22 1364.5L2726.75 1364.5 2724.23 1376.02 2719.82 1376.02 2725.38 1351.37C2725.56 1350.56 2725.69 1349.92 2725.77 1349.45 2725.84 1348.99 2725.88 1348.57 2725.88 1348.2 2725.88 1347.91 2725.83 1347.66 2725.73 1347.45 2725.63 1347.23 2725.47 1347.06 2725.24 1346.93 2725.01 1346.8 2724.7 1346.7 2724.32 1346.64 2723.94 1346.58 2723.47 1346.54 2722.9 1346.53L2723.24 1344.97ZM2711.95 1343.57 2716.56 1343.57 2715.44 1348.5 2710.83 1348.5ZM2688.85 1343.57 2693.44 1343.57 2692.31 1348.5 2687.77 1348.5Z" fill="#385723" fill-rule="evenodd"/><text fill="#000000" fill-opacity="0" font-family="Arial,Arial_MSFontService,sans-serif" font-size="41.6069" x="2682.97" y="1379.97">𝑖𝑗𝑘</text><path d="M2690.95 1310.44C2692.08 1310.44 2692.96 1310.81 2693.58 1311.56 2694.2 1312.3 2694.51 1313.27 2694.51 1314.48 2694.51 1314.82 2694.49 1315.15 2694.44 1315.47 2694.4 1315.79 2694.31 1316.1 2694.19 1316.41L2694.46 1316.53C2695.92 1314.49 2697.37 1312.97 2698.82 1311.96 2700.28 1310.95 2701.77 1310.44 2703.3 1310.44 2704.92 1310.44 2706.13 1310.86 2706.94 1311.69 2707.74 1312.53 2708.14 1313.76 2708.14 1315.38 2708.14 1315.52 2708.14 1315.65 2708.14 1315.78 2708.14 1315.91 2708.13 1316.04 2708.1 1316.18L2708.19 1316.18C2709.61 1314.24 2711.03 1312.8 2712.43 1311.85 2713.84 1310.91 2715.31 1310.44 2716.84 1310.44 2718.46 1310.44 2719.67 1310.88 2720.48 1311.75 2721.28 1312.62 2721.68 1313.85 2721.68 1315.42 2721.68 1315.9 2721.61 1316.54 2721.45 1317.34 2721.3 1318.14 2721.11 1319.03 2720.89 1319.99 2720.67 1320.95 2720.43 1321.95 2720.17 1322.99 2719.91 1324.02 2719.66 1324.99 2719.43 1325.91 2719.3 1326.51 2719.18 1326.99 2719.1 1327.37 2719.02 1327.74 2718.95 1328.06 2718.91 1328.31 2718.86 1328.56 2718.83 1328.78 2718.81 1328.96 2718.8 1329.15 2718.79 1329.35 2718.79 1329.56 2718.79 1330.14 2718.9 1330.56 2719.11 1330.82 2719.33 1331.08 2719.67 1331.21 2720.14 1331.21 2720.42 1331.21 2720.7 1331.16 2720.97 1331.05 2721.25 1330.94 2721.54 1330.78 2721.85 1330.55 2722.17 1330.32 2722.51 1330.02 2722.89 1329.66 2723.26 1329.3 2723.68 1328.87 2724.14 1328.37L2725.72 1329.88C2724.99 1330.65 2724.3 1331.3 2723.67 1331.86 2723.03 1332.41 2722.42 1332.86 2721.83 1333.22 2721.24 1333.58 2720.66 1333.85 2720.08 1334.02 2719.49 1334.2 2718.88 1334.29 2718.24 1334.29 2717.66 1334.29 2717.13 1334.18 2716.66 1333.97 2716.18 1333.75 2715.78 1333.46 2715.45 1333.08 2715.12 1332.71 2714.87 1332.26 2714.68 1331.75 2714.5 1331.24 2714.41 1330.68 2714.41 1330.07 2714.41 1328.81 2714.67 1327.2 2715.21 1325.22 2715.5 1324.23 2715.76 1323.28 2716 1322.37 2716.24 1321.46 2716.44 1320.61 2716.61 1319.84 2716.78 1319.07 2716.91 1318.38 2717.01 1317.78 2717.11 1317.17 2717.16 1316.67 2717.16 1316.27 2717.16 1315.32 2716.98 1314.63 2716.62 1314.18 2716.26 1313.74 2715.7 1313.52 2714.93 1313.52 2714.46 1313.52 2713.96 1313.64 2713.42 1313.89 2712.88 1314.13 2712.35 1314.47 2711.8 1314.91 2711.26 1315.34 2710.73 1315.86 2710.21 1316.46 2709.69 1317.05 2709.21 1317.7 2708.76 1318.4 2708.32 1319.09 2707.92 1319.82 2707.58 1320.59 2707.24 1321.35 2706.97 1322.12 2706.79 1322.91L2704.52 1333.87 2700.04 1333.87C2700.25 1332.9 2700.5 1331.84 2700.76 1330.72 2701.03 1329.59 2701.3 1328.46 2701.58 1327.31 2701.85 1326.16 2702.12 1325.03 2702.37 1323.91 2702.62 1322.8 2702.85 1321.75 2703.05 1320.78 2703.25 1319.81 2703.41 1318.94 2703.53 1318.17 2703.65 1317.39 2703.71 1316.78 2703.71 1316.32 2703.71 1315.35 2703.53 1314.65 2703.15 1314.2 2702.78 1313.74 2702.18 1313.52 2701.35 1313.52 2700.61 1313.52 2699.83 1313.79 2698.99 1314.34 2698.14 1314.9 2697.34 1315.62 2696.59 1316.51 2695.83 1317.41 2695.15 1318.42 2694.56 1319.54 2693.96 1320.67 2693.54 1321.8 2693.29 1322.95L2690.95 1333.87 2686.45 1333.87 2689.9 1318.91C2690.1 1318.09 2690.24 1317.37 2690.33 1316.75 2690.43 1316.14 2690.47 1315.64 2690.47 1315.24 2690.47 1314.12 2690.02 1313.56 2689.12 1313.56 2688.84 1313.56 2688.56 1313.62 2688.28 1313.74 2688 1313.85 2687.7 1314.02 2687.38 1314.25 2687.07 1314.48 2686.73 1314.77 2686.36 1315.13 2686 1315.48 2685.58 1315.89 2685.12 1316.36L2683.54 1314.87C2684.29 1314.11 2684.98 1313.45 2685.62 1312.89 2686.25 1312.33 2686.86 1311.87 2687.45 1311.51 2688.04 1311.15 2688.62 1310.88 2689.19 1310.71 2689.75 1310.53 2690.34 1310.44 2690.95 1310.44Z" fill="#385723" fill-rule="evenodd"/><text fill="#000000" fill-opacity="0" font-family="Arial,Arial_MSFontService,sans-serif" font-size="23.8442" x="2683.54" y="1331.31">𝑚</text><path d="M1524.96 1007.78 1893.93 1265.91 1888.02 1274.36 1519.04 1016.22ZM1895.62 1254.5 1912.1 1284.91 1877.89 1279.85Z" fill="#3F6EC3"/><text fill="#4472C4" font-family="Open Sans,Open Sans_MSFontService,sans-serif" font-weight="700" font-size="64" transform="matrix(1 0 0 1 531.661 917)">modèle 1 </text><text fill="#4472C4" font-family="Open Sans,Open Sans_MSFontService,sans-serif" font-weight="400" font-size="64" transform="matrix(1 0 0 1 839.891 917)">: réseau de routes, de </text><text fill="#4472C4" font-family="Open Sans,Open Sans_MSFontService,sans-serif" font-weight="400" font-size="64" transform="matrix(1 0 0 1 625.62 994)">transport en commun (GTFS)</text><text fill="#4472C4" font-family="Open Sans,Open Sans_MSFontService,sans-serif" font-weight="400" font-size="64" transform="matrix(1 0 0 1 371.245 1071)">Trajets les plus courts, en intégrant le </text><text fill="#4472C4" font-family="Open Sans,Open Sans_MSFontService,sans-serif" font-weight="400" font-size="64" transform="matrix(1 0 0 1 618.745 1148)">coût de l’élévation (</text><text fill="#4472C4" font-family="Open Sans,Open Sans_MSFontService,sans-serif" font-weight="400" font-size="64" transform="matrix(1 0 0 1 1194.53 1148)">dodgr</text><text fill="#4472C4" font-family="Open Sans,Open Sans_MSFontService,sans-serif" font-weight="400" font-size="64" transform="matrix(1 0 0 1 1373.28 1148)">, r5)</text><path d="M2071.5 1716.54 2069.99 1442.81 2080.3 1442.75 2081.81 1716.48ZM2059.7 1448.02 2075 1417 2090.64 1447.85Z" fill="#ED7D31"/><text fill="#ED7D31" font-family="Open Sans,Open Sans_MSFontService,sans-serif" font-weight="700" font-size="64" transform="matrix(1 0 0 1 1256.36 1828)">modèle 2</text><text fill="#ED7D31" font-family="Open Sans,Open Sans_MSFontService,sans-serif" font-weight="400" font-size="64" transform="matrix(1 0 0 1 1564.59 1828)">: </text><text fill="#ED7D31" font-family="Open Sans,Open Sans_MSFontService,sans-serif" font-weight="400" font-size="64" transform="matrix(1 0 0 1 1597.81 1828)">flux commune</text><text fill="#ED7D31" font-family="Open Sans,Open Sans_MSFontService,sans-serif" font-weight="400" font-size="64" transform="matrix(1 0 0 1 2045.84 1828)">de résidence à commune de </text><text fill="#ED7D31" font-family="Open Sans,Open Sans_MSFontService,sans-serif" font-weight="400" font-size="64" transform="matrix(1 0 0 1 1528.49 1905)">travail, fichier détail du recensement</text><text fill="#ED7D31" font-family="Open Sans,Open Sans_MSFontService,sans-serif" font-weight="400" font-size="64" transform="matrix(1 0 0 1 1289.59 1982)">Modélisé au carreau par MEAPS, ajusté sur MOBPRO</text><text fill="#70AD47" font-family="Open Sans,Open Sans_MSFontService,sans-serif" font-weight="700" font-size="64" transform="matrix(1 0 0 1 1579.14 609)">modèle 3</text><text fill="#70AD47" font-family="Open Sans,Open Sans_MSFontService,sans-serif" font-weight="400" font-size="64" transform="matrix(1 0 0 1 1887.37 609)">: fréquence des trajets, estimés </text><text fill="#70AD47" font-family="Open Sans,Open Sans_MSFontService,sans-serif" font-weight="400" font-size="64" transform="matrix(1 0 0 1 1558.22 686)">sur l’enquête mobilité des personnes, pour </text><text fill="#70AD47" font-family="Open Sans,Open Sans_MSFontService,sans-serif" font-weight="400" font-size="64" transform="matrix(1 0 0 1 1642.16 763)">les différents motifs, pour différentes </text><text fill="#70AD47" font-family="Open Sans,Open Sans_MSFontService,sans-serif" font-weight="400" font-size="64" transform="matrix(1 0 0 1 1624.98 840)">catégories sociales (poisson généralisé </text><text fill="#70AD47" font-family="Open Sans,Open Sans_MSFontService,sans-serif" font-weight="400" font-size="64" transform="matrix(1 0 0 1 1939.51 917)">Conway</text><text fill="#70AD47" font-family="Open Sans,Open Sans_MSFontService,sans-serif" font-weight="400" font-size="64" transform="matrix(1 0 0 1 2175.55 917)">-</text><text fill="#70AD47" font-family="Open Sans,Open Sans_MSFontService,sans-serif" font-weight="400" font-size="64" transform="matrix(1 0 0 1 2196.17 917)">Maxwell)</text><path d="M2.37587-4.57626 544.372 276.814 539.62 285.966-2.37587 4.57626ZM544.546 265.285 564.876 293.269 530.291 292.743Z" fill="#548235" transform="matrix(-1 0 0 1 3109.88 940)"/><text fill="#548235" font-family="Open Sans,Open Sans_MSFontService,sans-serif" font-weight="700" font-size="64" transform="matrix(1 0 0 1 3142.84 763)">modèle 4</text><text fill="#548235" font-family="Open Sans,Open Sans_MSFontService,sans-serif" font-weight="400" font-size="64" transform="matrix(1 0 0 1 3451.07 763)">: ampleur du détour </text><text fill="#548235" font-family="Open Sans,Open Sans_MSFontService,sans-serif" font-weight="400" font-size="64" transform="matrix(1 0 0 1 3142.84 840)">pour les boucles à motifs </text><text fill="#548235" font-family="Open Sans,Open Sans_MSFontService,sans-serif" font-weight="400" font-size="64" transform="matrix(1 0 0 1 3142.84 917)">multiples, estimés sur l’enquête </text><text fill="#548235" font-family="Open Sans,Open Sans_MSFontService,sans-serif" font-weight="400" font-size="64" transform="matrix(1 0 0 1 3142.84 994)">mobilité des personnes, pour </text><text fill="#548235" font-family="Open Sans,Open Sans_MSFontService,sans-serif" font-weight="400" font-size="64" transform="matrix(1 0 0 1 3142.84 1071)">différentes catégories sociales</text><text fill="#548235" font-family="Open Sans,Open Sans_MSFontService,sans-serif" font-weight="400" font-size="64" transform="matrix(1 0 0 1 3177.49 1149)">(</text><text fill="#548235" font-family="Open Sans,Open Sans_MSFontService,sans-serif" font-weight="400" font-size="64" transform="matrix(1 0 0 1 3196.39 1149)">logit</text><text fill="#548235" font-family="Open Sans,Open Sans_MSFontService,sans-serif" font-weight="400" font-size="64" transform="matrix(1 0 0 1 3341.34 1149)">bs/</text><text fill="#548235" font-family="Open Sans,Open Sans_MSFontService,sans-serif" font-weight="400" font-size="64" transform="matrix(1 0 0 1 3434.73 1149)">bns</text><text fill="#548235" font-family="Open Sans,Open Sans_MSFontService,sans-serif" font-weight="400" font-size="64" transform="matrix(1 0 0 1 3560.77 1149)">puis log</text><text fill="#548235" font-family="Open Sans,Open Sans_MSFontService,sans-serif" font-weight="400" font-size="64" transform="matrix(1 0 0 1 3792.23 1149)">-</text><text fill="#548235" font-family="Open Sans,Open Sans_MSFontService,sans-serif" font-weight="400" font-size="64" transform="matrix(1 0 0 1 3812.85 1149)">linéaire</text><text fill="#548235" font-family="Arial,Arial_MSFontService,sans-serif" font-weight="400" font-size="64" transform="matrix(1 0 0 1 4034.57 1149)">)</text><path d="M3089.24 1547.5 2787.33 1386.67 2792.18 1377.57 3094.09 1538.4ZM2787.03 1398.2 2767 1370 2801.58 1370.89Z" fill="#385723"/><text fill="#385723" font-family="Open Sans,Open Sans_MSFontService,sans-serif" font-weight="700" font-size="64" transform="matrix(1 0 0 1 3103.61 1608)">modèle 5</text><text fill="#385723" font-family="Open Sans,Open Sans_MSFontService,sans-serif" font-weight="400" font-size="64" transform="matrix(1 0 0 1 3411.84 1608)">: choix modal (RUM), </text><text fill="#385723" font-family="Open Sans,Open Sans_MSFontService,sans-serif" font-weight="400" font-size="64" transform="matrix(1 0 0 1 3103.61 1685)">estimés sur l’enquête mobilité </text><text fill="#385723" font-family="Open Sans,Open Sans_MSFontService,sans-serif" font-weight="400" font-size="64" transform="matrix(1 0 0 1 3103.61 1762)">des personnes , pour </text><text fill="#385723" font-family="Open Sans,Open Sans_MSFontService,sans-serif" font-weight="400" font-size="64" transform="matrix(1 0 0 1 3103.61 1839)">différentes catégories sociales</text><path d="M2205.08 960.13 2257.88 1268.48 2247.71 1270.22 2194.92 961.87ZM2267.17 1261.66 2257.15 1294.76 2236.68 1266.88Z" fill="#70AD47"/></g></svg>