<svg width="3813" height="1509" xmlns="http://www.w3.org/2000/svg" xmlns:xlink="http://www.w3.org/1999/xlink" xml:space="preserve" overflow="hidden"><g transform="translate(-332 -529)"><rect x="1603" y="1224" width="1146" height="131" fill="#E7E6E6"/><path d="M1666.16 1267.46 1667.98 1267.46 1661.85 1294.74 1662.85 1294.74C1664.41 1294.74 1666.17 1294.06 1668.12 1292.7 1670.07 1291.33 1671.62 1290.07 1672.79 1288.9 1673.96 1287.73 1674.54 1286.61 1674.54 1285.52 1674.54 1284.5 1673.83 1283.93 1672.41 1283.81L1672.76 1282.27 1682.88 1282.27 1683.48 1283.81C1681.75 1285.37 1679.91 1286.9 1677.98 1288.4L1670.23 1294.4 1673.29 1305.68C1673.54 1306.64 1673.76 1307.33 1673.96 1307.76 1674.16 1308.19 1674.39 1308.5 1674.65 1308.71 1674.91 1308.92 1675.26 1309.02 1675.7 1309.02 1676.24 1309.02 1676.88 1308.73 1677.63 1308.15 1678.38 1307.57 1679.24 1306.72 1680.2 1305.62L1681.98 1307.37C1680.1 1309.35 1678.55 1310.72 1677.32 1311.49 1676.09 1312.26 1674.9 1312.65 1673.76 1312.65 1672.34 1312.65 1671.22 1312.25 1670.38 1311.45 1669.55 1310.64 1668.89 1309.31 1668.41 1307.43L1666.35 1299.31C1666.14 1298.49 1665.93 1297.93 1665.73 1297.62 1665.52 1297.31 1665.28 1297.1 1665.01 1296.99 1664.74 1296.89 1664.26 1296.84 1663.57 1296.84L1661.41 1296.84 1658.16 1312.15 1652.76 1312.15 1660.79 1276.43C1661.06 1275.22 1661.25 1274.28 1661.37 1273.6 1661.48 1272.93 1661.54 1272.33 1661.54 1271.81 1661.54 1270.93 1661.27 1270.32 1660.74 1269.96 1660.21 1269.61 1659.26 1269.41 1657.88 1269.37L1658.26 1267.74Z" fill-rule="evenodd"/><text fill="#000000" fill-opacity="0" font-family="Arial,Arial_MSFontService,sans-serif" font-size="45.1875" x="1652.76" y="1307">𝑘</text><path d="M1697.13 1281.74C1698.44 1281.74 1699.48 1282.18 1700.24 1283.04 1701 1283.91 1701.38 1285.04 1701.38 1286.43 1701.38 1287.58 1701.14 1288.8 1700.66 1290.09L1701.03 1290.21C1702.95 1287.36 1704.86 1285.24 1706.75 1283.85 1708.65 1282.47 1710.56 1281.77 1712.5 1281.77 1714.5 1281.77 1716.02 1282.34 1717.06 1283.48 1718.11 1284.61 1718.63 1286.25 1718.63 1288.4L1718.63 1288.84C1718.63 1288.98 1718.62 1289.14 1718.6 1289.31 1720.39 1286.76 1722.17 1284.87 1723.95 1283.63 1725.74 1282.39 1727.58 1281.77 1729.5 1281.77 1731.42 1281.77 1732.9 1282.33 1733.94 1283.43 1734.98 1284.54 1735.5 1286.09 1735.5 1288.09 1735.5 1289.4 1735.2 1291.26 1734.6 1293.68L1732.56 1301.87C1732 1304.14 1731.72 1305.74 1731.72 1306.68 1731.72 1307.51 1731.86 1308.12 1732.13 1308.49 1732.4 1308.87 1732.82 1309.06 1733.41 1309.06 1734.03 1309.06 1734.7 1308.8 1735.41 1308.29 1736.12 1307.78 1737.12 1306.81 1738.41 1305.37L1740.19 1307.12C1738.4 1309.01 1736.83 1310.41 1735.5 1311.31 1734.17 1312.2 1732.65 1312.65 1730.94 1312.65 1729.58 1312.65 1728.5 1312.17 1727.69 1311.2 1726.88 1310.23 1726.47 1308.99 1726.47 1307.49 1726.47 1306.14 1726.81 1304.15 1727.5 1301.52L1728.88 1296.12C1729.38 1294.16 1729.7 1292.71 1729.86 1291.77 1730.02 1290.84 1730.1 1290.08 1730.1 1289.49 1730.1 1288.06 1729.86 1287.02 1729.38 1286.38 1728.9 1285.75 1728.12 1285.43 1727.03 1285.43 1726.16 1285.43 1725.22 1285.76 1724.22 1286.42 1723.22 1287.07 1722.17 1288.09 1721.06 1289.48 1719.96 1290.86 1719.06 1292.23 1718.36 1293.57 1717.66 1294.92 1717.11 1296.56 1716.69 1298.49L1713.85 1312.15 1708.44 1312.15 1712.03 1296.27C1712.47 1294.34 1712.77 1292.91 1712.92 1291.98 1713.08 1291.05 1713.16 1290.25 1713.16 1289.59 1713.16 1288.09 1712.89 1287.02 1712.36 1286.38 1711.83 1285.75 1711 1285.43 1709.88 1285.43 1709.08 1285.43 1708.18 1285.76 1707.17 1286.42 1706.16 1287.07 1705.08 1288.12 1703.94 1289.57 1702.79 1291.02 1701.9 1292.41 1701.25 1293.74 1700.61 1295.08 1700.06 1296.7 1699.63 1298.62L1696.66 1312.15 1691.25 1312.15 1695.81 1292.34C1696.27 1290.34 1696.5 1288.8 1696.5 1287.71 1696.5 1286.88 1696.37 1286.27 1696.1 1285.9 1695.82 1285.52 1695.4 1285.34 1694.81 1285.34 1694.17 1285.34 1693.49 1285.6 1692.77 1286.13 1692.05 1286.67 1691.06 1287.63 1689.81 1289.02L1688.03 1287.27C1689.87 1285.36 1691.44 1283.96 1692.77 1283.07 1694.09 1282.19 1695.54 1281.74 1697.13 1281.74Z" fill-rule="evenodd"/><text fill="#000000" fill-opacity="0" font-family="Arial,Arial_MSFontService,sans-serif" font-size="30.9062" x="1688.03" y="1308.79">𝑚</text><path d="M1774.78 1304.83 1776.36 1304.83 1771.59 1327.32C1771.2 1329.06 1770.71 1330.56 1770.1 1331.81 1769.5 1333.05 1768.76 1334.07 1767.89 1334.87 1767.02 1335.67 1766 1336.25 1764.84 1336.63 1763.68 1337 1762.34 1337.19 1760.84 1337.19 1760.45 1337.19 1760.06 1337.17 1759.7 1337.13 1759.33 1337.09 1759 1337.03 1758.71 1336.96L1759.28 1334.55C1759.47 1334.63 1759.71 1334.67 1760.02 1334.7 1760.32 1334.72 1760.68 1334.73 1761.07 1334.73 1761.82 1334.73 1762.49 1334.63 1763.08 1334.43 1763.67 1334.23 1764.2 1333.88 1764.67 1333.36 1765.13 1332.84 1765.55 1332.12 1765.93 1331.21 1766.3 1330.3 1766.65 1329.13 1766.97 1327.71 1767.51 1325.23 1768.02 1322.91 1768.51 1320.73 1769 1318.56 1769.4 1316.74 1769.71 1315.27 1770.03 1313.8 1770.28 1312.63 1770.46 1311.76 1770.64 1310.89 1770.78 1310.21 1770.86 1309.74 1770.95 1309.27 1771 1308.93 1771.01 1308.73 1771.03 1308.53 1771.03 1308.37 1771.03 1308.25 1771.03 1307.71 1770.83 1307.32 1770.43 1307.07 1770.02 1306.81 1769.31 1306.67 1768.28 1306.64L1768.62 1305.08ZM1752.15 1304.83 1753.28 1304.83 1749.88 1320.11C1749.67 1321.02 1749.52 1321.74 1749.43 1322.27 1749.35 1322.81 1749.31 1323.29 1749.31 1323.72 1749.31 1324.3 1749.43 1324.72 1749.66 1324.98 1749.9 1325.24 1750.26 1325.37 1750.73 1325.37 1751.01 1325.37 1751.28 1325.32 1751.56 1325.21 1751.83 1325.1 1752.13 1324.93 1752.44 1324.7 1752.75 1324.47 1753.1 1324.18 1753.47 1323.82 1753.85 1323.46 1754.26 1323.03 1754.72 1322.52L1756.28 1324.04C1755.49 1324.85 1754.77 1325.53 1754.11 1326.09 1753.46 1326.65 1752.85 1327.11 1752.27 1327.46 1751.69 1327.81 1751.12 1328.06 1750.56 1328.21 1750 1328.37 1749.41 1328.44 1748.78 1328.44 1748.2 1328.44 1747.67 1328.34 1747.21 1328.12 1746.74 1327.91 1746.34 1327.61 1746 1327.24 1745.67 1326.86 1745.41 1326.42 1745.22 1325.9 1745.04 1325.38 1744.95 1324.8 1744.95 1324.18 1744.95 1323.67 1745.01 1323.04 1745.13 1322.29 1745.25 1321.54 1745.41 1320.73 1745.6 1319.85 1745.79 1318.97 1746 1318.05 1746.23 1317.08 1746.46 1316.12 1746.69 1315.16 1746.91 1314.22 1747.13 1313.27 1747.33 1312.35 1747.51 1311.47 1747.68 1310.59 1747.81 1309.79 1747.88 1309.07 1747.91 1308.95 1747.93 1308.83 1747.93 1308.72 1747.93 1308.6 1747.93 1308.5 1747.93 1308.41 1747.9 1307.81 1747.69 1307.38 1747.3 1307.1 1746.91 1306.83 1746.22 1306.67 1745.22 1306.64L1745.5 1305.08ZM1791.53 1296.71 1793.18 1296.71 1789.14 1314.56 1789.79 1314.56C1790.37 1314.56 1790.99 1314.44 1791.67 1314.19 1792.34 1313.95 1793.01 1313.63 1793.68 1313.24 1794.34 1312.85 1794.98 1312.41 1795.59 1311.92 1796.2 1311.43 1796.74 1310.94 1797.21 1310.44 1797.68 1309.94 1798.05 1309.47 1798.32 1309.03 1798.6 1308.59 1798.74 1308.21 1798.74 1307.9 1798.74 1307.54 1798.61 1307.24 1798.37 1307.01 1798.12 1306.78 1797.68 1306.63 1797.04 1306.55L1797.31 1305.08 1805.57 1305.08 1806.15 1306.5C1805.18 1307.33 1804.26 1308.1 1803.37 1308.8 1802.48 1309.5 1801.62 1310.18 1800.77 1310.83 1799.92 1311.48 1799.07 1312.12 1798.22 1312.75 1797.37 1313.37 1796.5 1314.02 1795.61 1314.7 1795.98 1315.86 1796.36 1317.04 1796.74 1318.24 1797.12 1319.44 1797.5 1320.63 1797.89 1321.81 1798.07 1322.44 1798.24 1322.98 1798.4 1323.43 1798.56 1323.88 1798.74 1324.25 1798.92 1324.53 1799.1 1324.81 1799.3 1325.02 1799.52 1325.16 1799.73 1325.3 1799.99 1325.37 1800.3 1325.37 1800.51 1325.37 1800.73 1325.33 1800.96 1325.25 1801.19 1325.18 1801.45 1325.04 1801.73 1324.84 1802.01 1324.64 1802.33 1324.37 1802.69 1324.03 1803.05 1323.68 1803.46 1323.25 1803.92 1322.73L1805.48 1324.22C1804.76 1324.96 1804.09 1325.59 1803.47 1326.13 1802.85 1326.66 1802.27 1327.1 1801.71 1327.45 1801.15 1327.79 1800.61 1328.04 1800.09 1328.2 1799.57 1328.36 1799.04 1328.44 1798.51 1328.44 1797.54 1328.44 1796.77 1328.2 1796.18 1327.72 1795.59 1327.24 1795.09 1326.55 1794.67 1325.66 1794.26 1324.76 1793.88 1323.68 1793.54 1322.41 1793.19 1321.14 1792.79 1319.72 1792.33 1318.16 1792.23 1317.8 1792.12 1317.5 1792.02 1317.28 1791.92 1317.06 1791.8 1316.89 1791.64 1316.77 1791.49 1316.66 1791.3 1316.59 1791.07 1316.56 1790.84 1316.53 1790.55 1316.51 1790.2 1316.51L1788.73 1316.51 1786.21 1328.03 1781.8 1328.03 1787.35 1303.38C1787.54 1302.57 1787.67 1301.93 1787.74 1301.47 1787.82 1301 1787.86 1300.58 1787.86 1300.22 1787.86 1299.93 1787.81 1299.67 1787.71 1299.46 1787.61 1299.24 1787.44 1299.07 1787.22 1298.94 1786.99 1298.81 1786.68 1298.72 1786.3 1298.66 1785.91 1298.59 1785.44 1298.56 1784.87 1298.54L1785.22 1296.98ZM1773.93 1295.58 1778.54 1295.58 1777.41 1300.51 1772.8 1300.51ZM1750.82 1295.58 1755.41 1295.58 1754.29 1300.51 1749.74 1300.51Z" fill-rule="evenodd"/><text fill="#000000" fill-opacity="0" font-family="Arial,Arial_MSFontService,sans-serif" font-size="41.6069" x="1744.95" y="1331.99">𝑖𝑗𝑘</text><path d="M1750.59 1262.46C1751.72 1262.46 1752.6 1262.83 1753.22 1263.57 1753.84 1264.31 1754.15 1265.29 1754.15 1266.5 1754.15 1266.83 1754.12 1267.16 1754.08 1267.48 1754.03 1267.8 1753.95 1268.12 1753.83 1268.42L1754.1 1268.54C1755.56 1266.5 1757.01 1264.98 1758.46 1263.97 1759.92 1262.96 1761.41 1262.46 1762.94 1262.46 1764.56 1262.46 1765.77 1262.87 1766.57 1263.71 1767.38 1264.54 1767.78 1265.77 1767.78 1267.39 1767.78 1267.53 1767.78 1267.66 1767.78 1267.79 1767.78 1267.92 1767.76 1268.06 1767.73 1268.19L1767.83 1268.19C1769.25 1266.25 1770.66 1264.81 1772.07 1263.87 1773.48 1262.93 1774.95 1262.46 1776.48 1262.46 1778.1 1262.46 1779.31 1262.89 1780.11 1263.76 1780.92 1264.64 1781.32 1265.86 1781.32 1267.44 1781.32 1267.91 1781.24 1268.55 1781.09 1269.35 1780.94 1270.16 1780.75 1271.04 1780.53 1272 1780.31 1272.97 1780.06 1273.97 1779.8 1275 1779.54 1276.03 1779.3 1277.01 1779.07 1277.92 1778.93 1278.52 1778.82 1279.01 1778.74 1279.38 1778.65 1279.76 1778.59 1280.07 1778.54 1280.32 1778.5 1280.57 1778.47 1280.79 1778.45 1280.98 1778.44 1281.16 1778.43 1281.36 1778.43 1281.57 1778.43 1282.15 1778.53 1282.57 1778.75 1282.84 1778.96 1283.1 1779.31 1283.23 1779.78 1283.23 1780.06 1283.23 1780.33 1283.17 1780.61 1283.06 1780.88 1282.96 1781.18 1282.79 1781.49 1282.56 1781.81 1282.33 1782.15 1282.04 1782.52 1281.68 1782.9 1281.32 1783.32 1280.88 1783.78 1280.38L1785.36 1281.89C1784.62 1282.66 1783.94 1283.32 1783.3 1283.87 1782.67 1284.42 1782.06 1284.87 1781.47 1285.23 1780.88 1285.59 1780.29 1285.86 1779.71 1286.04 1779.13 1286.21 1778.52 1286.3 1777.88 1286.3 1777.3 1286.3 1776.77 1286.19 1776.29 1285.98 1775.82 1285.76 1775.42 1285.47 1775.09 1285.1 1774.76 1284.72 1774.5 1284.28 1774.32 1283.76 1774.14 1283.25 1774.04 1282.69 1774.04 1282.08 1774.04 1280.82 1774.31 1279.21 1774.85 1277.24 1775.14 1276.24 1775.4 1275.29 1775.64 1274.38 1775.88 1273.47 1776.08 1272.63 1776.25 1271.85 1776.42 1271.08 1776.55 1270.39 1776.65 1269.79 1776.75 1269.18 1776.8 1268.68 1776.8 1268.29 1776.8 1267.34 1776.62 1266.64 1776.26 1266.2 1775.9 1265.75 1775.34 1265.53 1774.57 1265.53 1774.1 1265.53 1773.59 1265.65 1773.06 1265.9 1772.52 1266.14 1771.98 1266.48 1771.44 1266.92 1770.9 1267.36 1770.36 1267.87 1769.84 1268.47 1769.32 1269.07 1768.84 1269.71 1768.4 1270.41 1767.96 1271.1 1767.56 1271.83 1767.22 1272.6 1766.87 1273.36 1766.61 1274.14 1766.43 1274.92L1764.15 1285.89 1759.68 1285.89C1759.89 1284.91 1760.13 1283.86 1760.4 1282.73 1760.67 1281.61 1760.94 1280.47 1761.22 1279.32 1761.49 1278.18 1761.76 1277.04 1762.01 1275.93 1762.26 1274.81 1762.49 1273.77 1762.68 1272.79 1762.88 1271.82 1763.04 1270.95 1763.17 1270.18 1763.29 1269.41 1763.35 1268.79 1763.35 1268.33 1763.35 1267.37 1763.16 1266.66 1762.79 1266.21 1762.41 1265.76 1761.81 1265.53 1760.99 1265.53 1760.25 1265.53 1759.46 1265.81 1758.62 1266.36 1757.78 1266.91 1756.98 1267.63 1756.22 1268.53 1755.47 1269.42 1754.79 1270.43 1754.19 1271.56 1753.6 1272.68 1753.18 1273.82 1752.93 1274.96L1750.59 1285.89 1746.09 1285.89 1749.53 1270.92C1749.73 1270.1 1749.88 1269.38 1749.97 1268.77 1750.06 1268.16 1750.11 1267.65 1750.11 1267.25 1750.11 1266.14 1749.66 1265.58 1748.75 1265.58 1748.48 1265.58 1748.2 1265.63 1747.92 1265.75 1747.63 1265.86 1747.34 1266.04 1747.02 1266.27 1746.71 1266.5 1746.37 1266.79 1746 1267.14 1745.63 1267.49 1745.22 1267.9 1744.76 1268.38L1743.18 1266.89C1743.93 1266.12 1744.62 1265.46 1745.25 1264.9 1745.89 1264.34 1746.5 1263.88 1747.09 1263.52 1747.68 1263.16 1748.26 1262.9 1748.82 1262.72 1749.39 1262.54 1749.98 1262.46 1750.59 1262.46Z" fill-rule="evenodd"/><text fill="#000000" fill-opacity="0" font-family="Arial,Arial_MSFontService,sans-serif" font-size="23.8442" x="1743.18" y="1283.32">𝑚</text><path d="M1834.11 1298.27 1872.61 1298.27 1872.61 1302.43 1834.11 1302.43ZM1834.11 1285.31 1872.61 1285.31 1872.61 1289.46 1834.11 1289.46Z" fill-rule="evenodd"/><text fill="#000000" fill-opacity="0" font-family="Arial,Arial_MSFontService,sans-serif" font-size="17.125" x="1834.11" y="1300.29">=</text><path d="M1915.38 1284.21C1913.26 1284.21 1911.35 1285.07 1909.66 1286.79 1907.97 1288.51 1906.65 1290.83 1905.68 1293.74 1904.71 1296.66 1904.22 1299.57 1904.22 1302.46 1904.22 1304.63 1904.52 1306.25 1905.12 1307.32 1905.71 1308.39 1906.7 1308.93 1908.1 1308.93 1908.75 1308.93 1909.4 1308.79 1910.07 1308.51 1910.73 1308.23 1911.43 1307.77 1912.15 1307.15 1912.87 1306.52 1913.57 1305.76 1914.27 1304.87 1914.97 1303.97 1915.61 1303.07 1916.19 1302.17 1916.78 1301.26 1917.32 1300.19 1917.82 1298.95 1918.32 1297.71 1918.75 1296.21 1919.1 1294.46L1919.38 1293.12C1919.69 1291.62 1919.85 1290.2 1919.85 1288.87 1919.85 1287.24 1919.51 1286.06 1918.82 1285.32 1918.13 1284.58 1916.98 1284.21 1915.38 1284.21ZM1928.47 1267.46 1930.32 1267.46 1922.54 1302.06C1922.08 1304.1 1921.85 1305.64 1921.85 1306.68 1921.85 1307.51 1921.98 1308.12 1922.26 1308.49 1922.53 1308.87 1922.95 1309.06 1923.54 1309.06 1924.16 1309.06 1924.83 1308.8 1925.54 1308.29 1926.25 1307.78 1927.25 1306.81 1928.54 1305.37L1930.32 1307.12C1928.4 1309.14 1926.79 1310.57 1925.47 1311.4 1924.16 1312.23 1922.75 1312.65 1921.22 1312.65 1919.93 1312.65 1918.9 1312.22 1918.13 1311.37 1917.36 1310.51 1916.97 1309.38 1916.97 1307.96 1916.97 1306.82 1917.21 1305.6 1917.69 1304.31L1917.29 1304.18C1915.29 1307.1 1913.39 1309.23 1911.6 1310.59 1909.81 1311.94 1907.91 1312.62 1905.91 1312.62 1903.62 1312.62 1901.84 1311.75 1900.58 1310.02 1899.32 1308.3 1898.69 1305.87 1898.69 1302.74 1898.69 1299.16 1899.4 1295.72 1900.8 1292.42 1902.21 1289.11 1904.14 1286.51 1906.6 1284.6 1909.06 1282.7 1911.8 1281.74 1914.82 1281.74 1916.09 1281.74 1917.26 1281.87 1918.33 1282.13 1919.41 1282.39 1920.51 1282.85 1921.63 1283.49L1923.26 1276.27C1923.42 1275.59 1923.57 1274.83 1923.69 1273.99 1923.82 1273.16 1923.88 1272.43 1923.88 1271.81 1923.88 1271.18 1923.77 1270.71 1923.54 1270.38 1923.31 1270.06 1922.98 1269.83 1922.55 1269.68 1922.13 1269.54 1921.36 1269.43 1920.26 1269.37L1920.63 1267.74Z" fill="#4472C4" fill-rule="evenodd"/><text fill="#000000" fill-opacity="0" font-family="Arial,Arial_MSFontService,sans-serif" font-size="45.1875" x="1898.69" y="1307">𝑑</text><path d="M1966.29 1304.83 1967.87 1304.83 1963.1 1327.32C1962.72 1329.06 1962.22 1330.56 1961.62 1331.81 1961.02 1333.05 1960.28 1334.07 1959.4 1334.87 1958.53 1335.67 1957.52 1336.25 1956.35 1336.63 1955.19 1337 1953.86 1337.19 1952.36 1337.19 1951.96 1337.19 1951.58 1337.17 1951.21 1337.13 1950.84 1337.09 1950.52 1337.03 1950.23 1336.96L1950.8 1334.55C1950.98 1334.63 1951.23 1334.67 1951.53 1334.7 1951.84 1334.72 1952.19 1334.73 1952.59 1334.73 1953.34 1334.73 1954.01 1334.63 1954.6 1334.43 1955.19 1334.23 1955.71 1333.88 1956.18 1333.36 1956.65 1332.84 1957.07 1332.12 1957.44 1331.21 1957.82 1330.3 1958.17 1329.13 1958.49 1327.71 1959.02 1325.23 1959.53 1322.91 1960.02 1320.73 1960.51 1318.56 1960.92 1316.74 1961.23 1315.27 1961.54 1313.8 1961.79 1312.63 1961.98 1311.76 1962.16 1310.89 1962.29 1310.21 1962.38 1309.74 1962.46 1309.27 1962.51 1308.93 1962.53 1308.73 1962.54 1308.53 1962.55 1308.37 1962.55 1308.25 1962.55 1307.71 1962.35 1307.32 1961.94 1307.07 1961.54 1306.81 1960.82 1306.67 1959.8 1306.64L1960.14 1305.08ZM1943.67 1304.83 1944.79 1304.83 1941.4 1320.11C1941.18 1321.02 1941.03 1321.74 1940.95 1322.27 1940.86 1322.81 1940.82 1323.29 1940.82 1323.72 1940.82 1324.3 1940.94 1324.72 1941.18 1324.98 1941.41 1325.24 1941.77 1325.37 1942.24 1325.37 1942.52 1325.37 1942.8 1325.32 1943.07 1325.21 1943.35 1325.1 1943.64 1324.93 1943.95 1324.7 1944.27 1324.47 1944.61 1324.18 1944.99 1323.82 1945.36 1323.46 1945.78 1323.03 1946.24 1322.52L1947.8 1324.04C1947 1324.85 1946.28 1325.53 1945.63 1326.09 1944.98 1326.65 1944.36 1327.11 1943.78 1327.46 1943.2 1327.81 1942.63 1328.06 1942.07 1328.21 1941.51 1328.37 1940.92 1328.44 1940.29 1328.44 1939.71 1328.44 1939.19 1328.34 1938.72 1328.12 1938.25 1327.91 1937.85 1327.61 1937.52 1327.24 1937.18 1326.86 1936.92 1326.42 1936.74 1325.9 1936.55 1325.38 1936.46 1324.8 1936.46 1324.18 1936.46 1323.67 1936.52 1323.04 1936.64 1322.29 1936.77 1321.54 1936.92 1320.73 1937.12 1319.85 1937.31 1318.97 1937.52 1318.05 1937.75 1317.08 1937.98 1316.12 1938.2 1315.16 1938.42 1314.22 1938.65 1313.27 1938.84 1312.35 1939.02 1311.47 1939.2 1310.59 1939.32 1309.79 1939.4 1309.07 1939.43 1308.95 1939.44 1308.83 1939.44 1308.72 1939.44 1308.6 1939.44 1308.5 1939.44 1308.41 1939.41 1307.81 1939.2 1307.38 1938.81 1307.1 1938.42 1306.83 1937.73 1306.67 1936.74 1306.64L1937.01 1305.08ZM1965.44 1295.58 1970.05 1295.58 1968.93 1300.51 1964.32 1300.51ZM1942.34 1295.58 1946.93 1295.58 1945.8 1300.51 1941.26 1300.51Z" fill="#4472C4" fill-rule="evenodd"/><text fill="#000000" fill-opacity="0" font-family="Arial,Arial_MSFontService,sans-serif" font-size="41.6069" x="1936.46" y="1331.99">𝑖𝑗</text><path d="M1943.04 1262.46C1944.18 1262.46 1945.05 1262.83 1945.67 1263.57 1946.29 1264.31 1946.6 1265.29 1946.6 1266.5 1946.6 1266.83 1946.58 1267.16 1946.53 1267.48 1946.49 1267.8 1946.4 1268.12 1946.28 1268.42L1946.56 1268.54C1948.01 1266.5 1949.46 1264.98 1950.92 1263.97 1952.37 1262.96 1953.86 1262.46 1955.39 1262.46 1957.01 1262.46 1958.23 1262.87 1959.03 1263.71 1959.83 1264.54 1960.23 1265.77 1960.23 1267.39 1960.23 1267.53 1960.23 1267.66 1960.23 1267.79 1960.23 1267.92 1960.22 1268.06 1960.19 1268.19L1960.28 1268.19C1961.7 1266.25 1963.12 1264.81 1964.53 1263.87 1965.93 1262.93 1967.4 1262.46 1968.93 1262.46 1970.55 1262.46 1971.77 1262.89 1972.57 1263.76 1973.37 1264.64 1973.77 1265.86 1973.77 1267.44 1973.77 1267.91 1973.7 1268.55 1973.54 1269.35 1973.39 1270.16 1973.2 1271.04 1972.98 1272 1972.76 1272.97 1972.52 1273.97 1972.26 1275 1972 1276.03 1971.75 1277.01 1971.52 1277.92 1971.39 1278.52 1971.28 1279.01 1971.19 1279.38 1971.11 1279.76 1971.04 1280.07 1971 1280.32 1970.95 1280.57 1970.92 1280.79 1970.91 1280.98 1970.89 1281.16 1970.88 1281.36 1970.88 1281.57 1970.88 1282.15 1970.99 1282.57 1971.2 1282.84 1971.42 1283.1 1971.76 1283.23 1972.24 1283.23 1972.51 1283.23 1972.79 1283.17 1973.06 1283.06 1973.34 1282.96 1973.63 1282.79 1973.95 1282.56 1974.26 1282.33 1974.6 1282.04 1974.98 1281.68 1975.35 1281.32 1975.77 1280.88 1976.23 1280.38L1977.81 1281.89C1977.08 1282.66 1976.39 1283.32 1975.76 1283.87 1975.12 1284.42 1974.51 1284.87 1973.92 1285.23 1973.33 1285.59 1972.75 1285.86 1972.17 1286.04 1971.59 1286.21 1970.97 1286.3 1970.33 1286.3 1969.75 1286.3 1969.22 1286.19 1968.75 1285.98 1968.27 1285.76 1967.87 1285.47 1967.54 1285.1 1967.21 1284.72 1966.96 1284.28 1966.77 1283.76 1966.59 1283.25 1966.5 1282.69 1966.5 1282.08 1966.5 1280.82 1966.77 1279.21 1967.3 1277.24 1967.59 1276.24 1967.86 1275.29 1968.09 1274.38 1968.33 1273.47 1968.53 1272.63 1968.7 1271.85 1968.87 1271.08 1969 1270.39 1969.1 1269.79 1969.2 1269.18 1969.25 1268.68 1969.25 1268.29 1969.25 1267.34 1969.07 1266.64 1968.71 1266.2 1968.35 1265.75 1967.79 1265.53 1967.03 1265.53 1966.55 1265.53 1966.05 1265.65 1965.51 1265.9 1964.98 1266.14 1964.44 1266.48 1963.89 1266.92 1963.35 1267.36 1962.82 1267.87 1962.3 1268.47 1961.78 1269.07 1961.3 1269.71 1960.85 1270.41 1960.41 1271.1 1960.02 1271.83 1959.67 1272.6 1959.33 1273.36 1959.06 1274.14 1958.88 1274.92L1956.61 1285.89 1952.13 1285.89C1952.35 1284.91 1952.59 1283.86 1952.86 1282.73 1953.12 1281.61 1953.39 1280.47 1953.67 1279.32 1953.95 1278.18 1954.21 1277.04 1954.46 1275.93 1954.71 1274.81 1954.94 1273.77 1955.14 1272.79 1955.34 1271.82 1955.5 1270.95 1955.62 1270.18 1955.74 1269.41 1955.8 1268.79 1955.8 1268.33 1955.8 1267.37 1955.62 1266.66 1955.24 1266.21 1954.87 1265.76 1954.27 1265.53 1953.44 1265.53 1952.71 1265.53 1951.92 1265.81 1951.08 1266.36 1950.24 1266.91 1949.44 1267.63 1948.68 1268.53 1947.92 1269.42 1947.24 1270.43 1946.65 1271.56 1946.05 1272.68 1945.63 1273.82 1945.39 1274.96L1943.04 1285.89 1938.55 1285.89 1941.99 1270.92C1942.19 1270.1 1942.33 1269.38 1942.43 1268.77 1942.52 1268.16 1942.56 1267.65 1942.56 1267.25 1942.56 1266.14 1942.11 1265.58 1941.21 1265.58 1940.93 1265.58 1940.65 1265.63 1940.37 1265.75 1940.09 1265.86 1939.79 1266.04 1939.48 1266.27 1939.16 1266.5 1938.82 1266.79 1938.45 1267.14 1938.09 1267.49 1937.67 1267.9 1937.22 1268.38L1935.63 1266.89C1936.38 1266.12 1937.07 1265.46 1937.71 1264.9 1938.34 1264.34 1938.96 1263.88 1939.54 1263.52 1940.13 1263.16 1940.71 1262.9 1941.28 1262.72 1941.84 1262.54 1942.43 1262.46 1943.04 1262.46Z" fill="#4472C4" fill-rule="evenodd"/><text fill="#000000" fill-opacity="0" font-family="Arial,Arial_MSFontService,sans-serif" font-size="23.8442" x="1935.63" y="1283.32">𝑚</text><path d="M2004.76 1276.74 2018.92 1290.87 2033.07 1276.74 2036.01 1279.65 2022.01 1293.9 2036.04 1308.09 2032.92 1311.21 2018.92 1296.93 2004.48 1311.09 2001.57 1308.15 2015.85 1293.9 2001.63 1279.87Z" fill-rule="evenodd"/><text fill="#000000" fill-opacity="0" font-family="Arial,Arial_MSFontService,sans-serif" font-size="34.4688" x="2001.57" y="1306.9">×</text><path d="M2085.47 1267.27C2087.51 1267.27 2089.27 1267.44 2090.75 1267.77L2089.53 1273.09 2086.78 1273.09C2086.49 1271.9 2086.11 1271.05 2085.64 1270.52 2085.18 1270 2084.48 1269.74 2083.57 1269.74 2082.38 1269.74 2081.37 1270.07 2080.55 1270.73 2079.73 1271.38 2079.02 1272.36 2078.44 1273.65 2077.86 1274.94 2077.32 1276.68 2076.82 1278.87L2076.03 1282.27 2084.07 1282.27 2083.38 1285.43 2075.32 1285.43 2069.5 1312.68C2068.55 1317.2 2067.08 1320.57 2065.1 1322.79 2063.12 1325.01 2060.63 1326.12 2057.63 1326.12 2056.75 1326.12 2056.07 1326.07 2055.57 1325.96L2056.1 1323.21C2056.31 1323.27 2056.8 1323.31 2057.57 1323.31 2058.5 1323.31 2059.31 1323.07 2059.97 1322.59 2060.64 1322.11 2061.26 1321.27 2061.83 1320.09 2062.4 1318.9 2062.93 1317.25 2063.41 1315.15L2070.13 1285.43 2064.85 1285.43 2065.32 1283.27C2066.71 1283.19 2067.72 1283.08 2068.33 1282.93 2068.95 1282.79 2069.43 1282.57 2069.77 1282.27 2070.11 1281.98 2070.4 1281.6 2070.64 1281.13 2070.88 1280.67 2071.19 1279.81 2071.57 1278.56 2072.67 1274.81 2074.37 1271.99 2076.68 1270.1 2078.98 1268.22 2081.91 1267.27 2085.47 1267.27Z" fill="#ED7D31" fill-rule="evenodd"/><text fill="#000000" fill-opacity="0" font-family="Arial,Arial_MSFontService,sans-serif" font-size="58.8438" x="2055.57" y="1318.76">𝑓</text><path d="M2115.18 1302.03 2116.76 1302.03 2111.99 1324.52C2111.61 1326.27 2111.11 1327.76 2110.51 1329.01 2109.9 1330.26 2109.17 1331.28 2108.29 1332.07 2107.42 1332.87 2106.41 1333.45 2105.24 1333.83 2104.08 1334.2 2102.75 1334.39 2101.25 1334.39 2100.85 1334.39 2100.47 1334.37 2100.1 1334.33 2099.73 1334.3 2099.41 1334.24 2099.11 1334.16L2099.69 1331.75C2099.87 1331.83 2100.12 1331.88 2100.42 1331.9 2100.73 1331.92 2101.08 1331.94 2101.48 1331.94 2102.23 1331.94 2102.9 1331.84 2103.49 1331.64 2104.08 1331.44 2104.6 1331.08 2105.07 1330.56 2105.54 1330.04 2105.96 1329.32 2106.33 1328.41 2106.71 1327.5 2107.06 1326.34 2107.38 1324.91 2107.91 1322.44 2108.42 1320.11 2108.91 1317.94 2109.4 1315.76 2109.81 1313.94 2110.12 1312.48 2110.43 1311.01 2110.68 1309.84 2110.86 1308.96 2111.05 1308.09 2111.18 1307.42 2111.27 1306.94 2111.35 1306.47 2111.4 1306.13 2111.42 1305.93 2111.43 1305.74 2111.44 1305.58 2111.44 1305.45 2111.44 1304.92 2111.24 1304.52 2110.83 1304.27 2110.42 1304.02 2109.71 1303.88 2108.68 1303.85L2109.03 1302.29ZM2092.56 1302.03 2093.68 1302.03 2090.28 1317.32C2090.07 1318.22 2089.92 1318.94 2089.84 1319.47 2089.75 1320.01 2089.71 1320.49 2089.71 1320.92 2089.71 1321.5 2089.83 1321.92 2090.07 1322.18 2090.3 1322.44 2090.66 1322.57 2091.13 1322.57 2091.41 1322.57 2091.68 1322.52 2091.96 1322.41 2092.24 1322.31 2092.53 1322.14 2092.84 1321.91 2093.16 1321.68 2093.5 1321.38 2093.88 1321.02 2094.25 1320.66 2094.67 1320.23 2095.13 1319.73L2096.69 1321.24C2095.89 1322.05 2095.17 1322.74 2094.52 1323.3 2093.87 1323.85 2093.25 1324.31 2092.67 1324.66 2092.09 1325.01 2091.52 1325.27 2090.96 1325.42 2090.4 1325.57 2089.81 1325.65 2089.18 1325.65 2088.6 1325.65 2088.08 1325.54 2087.61 1325.33 2087.14 1325.11 2086.74 1324.82 2086.41 1324.44 2086.07 1324.07 2085.81 1323.62 2085.63 1323.1 2085.44 1322.58 2085.35 1322.01 2085.35 1321.38 2085.35 1320.87 2085.41 1320.25 2085.53 1319.5 2085.66 1318.75 2085.81 1317.93 2086 1317.05 2086.2 1316.17 2086.41 1315.25 2086.64 1314.29 2086.87 1313.32 2087.09 1312.37 2087.31 1311.42 2087.53 1310.47 2087.73 1309.56 2087.91 1308.68 2088.09 1307.8 2088.21 1307 2088.29 1306.28 2088.32 1306.16 2088.33 1306.04 2088.33 1305.92 2088.33 1305.81 2088.33 1305.71 2088.33 1305.61 2088.3 1305.02 2088.09 1304.58 2087.7 1304.31 2087.31 1304.03 2086.62 1303.88 2085.63 1303.85L2085.9 1302.29ZM2114.33 1292.79 2118.94 1292.79 2117.82 1297.72 2113.21 1297.72ZM2091.23 1292.79 2095.82 1292.79 2094.69 1297.72 2090.15 1297.72Z" fill="#ED7D31" fill-rule="evenodd"/><text fill="#000000" fill-opacity="0" font-family="Arial,Arial_MSFontService,sans-serif" font-size="41.6069" x="2085.35" y="1329.19">𝑖𝑗</text><path d="M2147.26 1276.74 2161.41 1290.87 2175.57 1276.74 2178.51 1279.65 2164.51 1293.9 2178.54 1308.09 2175.41 1311.21 2161.41 1296.93 2146.97 1311.09 2144.07 1308.15 2158.35 1293.9 2144.13 1279.87Z" fill-rule="evenodd"/><text fill="#000000" fill-opacity="0" font-family="Arial,Arial_MSFontService,sans-serif" font-size="34.4688" x="2144.07" y="1306.9">×</text><path d="M2208.37 1281.74C2209.69 1281.74 2210.72 1282.18 2211.48 1283.04 2212.24 1283.91 2212.62 1285.04 2212.62 1286.43 2212.62 1287.54 2212.37 1288.76 2211.87 1290.12L2212.25 1290.24C2214.29 1287.37 2216.23 1285.24 2218.08 1283.85 2219.92 1282.47 2221.82 1281.77 2223.78 1281.77 2225.72 1281.77 2227.21 1282.33 2228.25 1283.45 2229.29 1284.56 2229.81 1286.11 2229.81 1288.09 2229.81 1289.4 2229.51 1291.26 2228.91 1293.68L2226.87 1301.87C2226.31 1304.14 2226.03 1305.74 2226.03 1306.68 2226.03 1307.51 2226.17 1308.12 2226.44 1308.49 2226.71 1308.87 2227.14 1309.06 2227.72 1309.06 2228.34 1309.06 2229.01 1308.8 2229.72 1308.29 2230.43 1307.78 2231.43 1306.81 2232.72 1305.37L2234.5 1307.12C2232.71 1309.04 2231.15 1310.44 2229.81 1311.32 2228.48 1312.21 2226.96 1312.65 2225.25 1312.65 2223.9 1312.65 2222.81 1312.17 2222 1311.2 2221.19 1310.23 2220.78 1308.99 2220.78 1307.49 2220.78 1306.14 2221.12 1304.15 2221.81 1301.52L2223.19 1296.12C2223.69 1294.16 2224.02 1292.71 2224.17 1291.77 2224.33 1290.84 2224.41 1290.08 2224.41 1289.49 2224.41 1288.06 2224.17 1287.02 2223.69 1286.38 2223.21 1285.75 2222.43 1285.43 2221.34 1285.43 2220.47 1285.43 2219.53 1285.78 2218.52 1286.48 2217.5 1287.18 2216.43 1288.23 2215.3 1289.63 2214.16 1291.04 2213.25 1292.41 2212.56 1293.73 2211.87 1295.05 2211.31 1296.68 2210.87 1298.62L2207.91 1312.15 2202.5 1312.15 2207.06 1292.34C2207.52 1290.34 2207.75 1288.8 2207.75 1287.71 2207.75 1286.88 2207.61 1286.27 2207.34 1285.9 2207.07 1285.52 2206.65 1285.34 2206.06 1285.34 2205.42 1285.34 2204.73 1285.6 2204.02 1286.13 2203.3 1286.67 2202.31 1287.63 2201.06 1289.02L2199.28 1287.27C2201.2 1285.27 2202.79 1283.85 2204.06 1283.01 2205.33 1282.17 2206.77 1281.74 2208.37 1281.74Z" fill="#70AD47" fill-rule="evenodd"/><text fill="#000000" fill-opacity="0" font-family="Arial,Arial_MSFontService,sans-serif" font-size="30.9062" x="2199.28" y="1308.79">𝑛</text><path d="M2258.08 1285.43C2257.08 1285.43 2256.09 1285.75 2255.13 1286.38 2254.16 1287.02 2253.08 1288.07 2251.89 1289.54 2250.7 1291.01 2249.73 1292.51 2248.98 1294.06 2248.23 1295.6 2247.6 1297.57 2247.08 1299.96L2246.8 1301.27C2246.48 1302.73 2246.33 1304.15 2246.33 1305.52 2246.33 1307.17 2246.69 1308.36 2247.41 1309.09 2248.13 1309.82 2249.32 1310.18 2250.98 1310.18 2251.84 1310.18 2252.65 1310.04 2253.42 1309.76 2254.19 1309.48 2254.98 1309.01 2255.78 1308.37 2256.58 1307.72 2257.34 1306.87 2258.06 1305.82 2258.78 1304.77 2259.44 1303.47 2260.05 1301.93 2260.65 1300.39 2261.12 1298.74 2261.45 1296.98 2261.79 1295.22 2261.95 1293.54 2261.95 1291.93 2261.95 1289.76 2261.65 1288.14 2261.03 1287.06 2260.42 1285.97 2259.43 1285.43 2258.08 1285.43ZM2252.61 1267.46 2254.42 1267.46 2248.92 1289.34 2249.33 1289.46C2251.35 1286.75 2253.25 1284.8 2255.02 1283.59 2256.79 1282.38 2258.56 1281.77 2260.33 1281.77 2262.6 1281.77 2264.36 1282.64 2265.63 1284.37 2266.89 1286.1 2267.52 1288.54 2267.52 1291.68 2267.52 1295.12 2266.82 1298.5 2265.44 1301.82 2264.05 1305.14 2262.13 1307.78 2259.67 1309.73 2257.21 1311.68 2254.46 1312.65 2251.42 1312.65 2248.65 1312.65 2246.19 1311.97 2244.05 1310.62L2241.17 1312.65 2239.17 1312.15 2247.27 1276.43C2247.75 1274.31 2247.98 1272.76 2247.98 1271.81 2247.98 1270.93 2247.72 1270.32 2247.19 1269.96 2246.66 1269.61 2245.7 1269.41 2244.33 1269.37L2244.7 1267.74Z" fill="#70AD47" fill-rule="evenodd"/><text fill="#000000" fill-opacity="0" font-family="Arial,Arial_MSFontService,sans-serif" font-size="45.1875" x="2239.17" y="1307">𝑏</text><path d="M2302.27 1302.03 2303.85 1302.03 2299.08 1324.52C2298.7 1326.27 2298.21 1327.76 2297.6 1329.01 2297 1330.26 2296.26 1331.28 2295.39 1332.07 2294.51 1332.87 2293.5 1333.45 2292.33 1333.83 2291.17 1334.2 2289.84 1334.39 2288.34 1334.39 2287.94 1334.39 2287.56 1334.37 2287.19 1334.33 2286.83 1334.3 2286.5 1334.24 2286.21 1334.16L2286.78 1331.75C2286.96 1331.83 2287.21 1331.88 2287.51 1331.9 2287.82 1331.92 2288.17 1331.94 2288.57 1331.94 2289.32 1331.94 2289.99 1331.84 2290.58 1331.64 2291.17 1331.44 2291.7 1331.08 2292.16 1330.56 2292.63 1330.04 2293.05 1329.32 2293.42 1328.41 2293.8 1327.5 2294.15 1326.34 2294.47 1324.91 2295 1322.44 2295.52 1320.11 2296.01 1317.94 2296.5 1315.76 2296.9 1313.94 2297.21 1312.48 2297.52 1311.01 2297.77 1309.84 2297.96 1308.96 2298.14 1308.09 2298.27 1307.42 2298.36 1306.94 2298.44 1306.47 2298.49 1306.13 2298.51 1305.93 2298.52 1305.74 2298.53 1305.58 2298.53 1305.45 2298.53 1304.92 2298.33 1304.52 2297.92 1304.27 2297.52 1304.02 2296.8 1303.88 2295.78 1303.85L2296.12 1302.29ZM2279.65 1302.03 2280.77 1302.03 2277.38 1317.32C2277.16 1318.22 2277.01 1318.94 2276.93 1319.47 2276.84 1320.01 2276.8 1320.49 2276.8 1320.92 2276.8 1321.5 2276.92 1321.92 2277.16 1322.18 2277.4 1322.44 2277.75 1322.57 2278.23 1322.57 2278.5 1322.57 2278.78 1322.52 2279.05 1322.41 2279.33 1322.31 2279.62 1322.14 2279.94 1321.91 2280.25 1321.68 2280.59 1321.38 2280.97 1321.02 2281.34 1320.66 2281.76 1320.23 2282.22 1319.73L2283.78 1321.24C2282.98 1322.05 2282.26 1322.74 2281.61 1323.3 2280.96 1323.85 2280.34 1324.31 2279.76 1324.66 2279.18 1325.01 2278.61 1325.27 2278.05 1325.42 2277.5 1325.57 2276.9 1325.65 2276.27 1325.65 2275.69 1325.65 2275.17 1325.54 2274.7 1325.33 2274.24 1325.11 2273.83 1324.82 2273.5 1324.44 2273.16 1324.07 2272.9 1323.62 2272.72 1323.1 2272.53 1322.58 2272.44 1322.01 2272.44 1321.38 2272.44 1320.87 2272.5 1320.25 2272.63 1319.5 2272.75 1318.75 2272.91 1317.93 2273.1 1317.05 2273.29 1316.17 2273.5 1315.25 2273.73 1314.29 2273.96 1313.32 2274.18 1312.37 2274.4 1311.42 2274.63 1310.47 2274.83 1309.56 2275 1308.68 2275.18 1307.8 2275.3 1307 2275.38 1306.28 2275.41 1306.16 2275.43 1306.04 2275.43 1305.92 2275.43 1305.81 2275.43 1305.71 2275.43 1305.61 2275.4 1305.02 2275.18 1304.58 2274.79 1304.31 2274.4 1304.03 2273.71 1303.88 2272.72 1303.85L2272.99 1302.29ZM2319.03 1293.91 2320.68 1293.91 2316.64 1311.76 2317.28 1311.76C2317.86 1311.76 2318.49 1311.64 2319.16 1311.4 2319.84 1311.15 2320.51 1310.83 2321.17 1310.44 2321.84 1310.05 2322.48 1309.61 2323.09 1309.12 2323.7 1308.64 2324.24 1308.14 2324.71 1307.64 2325.17 1307.15 2325.54 1306.68 2325.82 1306.23 2326.09 1305.79 2326.23 1305.41 2326.23 1305.11 2326.23 1304.74 2326.11 1304.44 2325.86 1304.21 2325.62 1303.98 2325.18 1303.83 2324.53 1303.75L2324.81 1302.29 2333.07 1302.29 2333.64 1303.71C2332.68 1304.54 2331.75 1305.3 2330.87 1306 2329.98 1306.71 2329.11 1307.38 2328.26 1308.03 2327.41 1308.69 2326.56 1309.32 2325.72 1309.95 2324.87 1310.58 2324 1311.23 2323.11 1311.9 2323.48 1313.06 2323.85 1314.25 2324.23 1315.45 2324.62 1316.65 2325 1317.84 2325.38 1319.02 2325.57 1319.64 2325.74 1320.18 2325.9 1320.63 2326.06 1321.09 2326.23 1321.45 2326.42 1321.74 2326.6 1322.02 2326.8 1322.23 2327.01 1322.37 2327.23 1322.5 2327.49 1322.57 2327.79 1322.57 2328.01 1322.57 2328.23 1322.53 2328.46 1322.46 2328.69 1322.38 2328.94 1322.24 2329.23 1322.05 2329.51 1321.85 2329.83 1321.57 2330.19 1321.23 2330.55 1320.89 2330.96 1320.45 2331.42 1319.93L2332.98 1321.43C2332.26 1322.16 2331.59 1322.79 2330.97 1323.33 2330.35 1323.87 2329.76 1324.31 2329.2 1324.65 2328.65 1324.99 2328.11 1325.25 2327.59 1325.41 2327.07 1325.57 2326.54 1325.65 2326 1325.65 2325.04 1325.65 2324.26 1325.41 2323.67 1324.93 2323.08 1324.44 2322.58 1323.76 2322.17 1322.86 2321.76 1321.96 2321.38 1320.88 2321.03 1319.61 2320.69 1318.34 2320.29 1316.93 2319.83 1315.37 2319.72 1315 2319.62 1314.71 2319.52 1314.48 2319.42 1314.26 2319.29 1314.09 2319.14 1313.98 2318.99 1313.86 2318.8 1313.79 2318.57 1313.76 2318.34 1313.73 2318.05 1313.71 2317.69 1313.71L2316.23 1313.71 2313.7 1325.24 2309.29 1325.24 2314.85 1300.59C2315.03 1299.78 2315.16 1299.14 2315.24 1298.67 2315.32 1298.2 2315.35 1297.79 2315.35 1297.42 2315.35 1297.13 2315.3 1296.88 2315.2 1296.66 2315.1 1296.45 2314.94 1296.28 2314.71 1296.15 2314.48 1296.02 2314.18 1295.92 2313.79 1295.86 2313.41 1295.8 2312.94 1295.76 2312.37 1295.75L2312.71 1294.18ZM2301.42 1292.79 2306.03 1292.79 2304.91 1297.72 2300.3 1297.72ZM2278.32 1292.79 2282.91 1292.79 2281.78 1297.72 2277.24 1297.72Z" fill="#70AD47" fill-rule="evenodd"/><text fill="#000000" fill-opacity="0" font-family="Arial,Arial_MSFontService,sans-serif" font-size="41.6069" x="2272.44" y="1329.19">𝑖𝑗𝑘</text><path d="M2362.19 1276.74 2376.35 1290.87 2390.5 1276.74 2393.44 1279.65 2379.44 1293.9 2393.47 1308.09 2390.35 1311.21 2376.35 1296.93 2361.91 1311.09 2359 1308.15 2373.28 1293.9 2359.07 1279.87Z" fill-rule="evenodd"/><text fill="#000000" fill-opacity="0" font-family="Arial,Arial_MSFontService,sans-serif" font-size="34.4688" x="2359" y="1306.9">×</text><path d="M2423.43 1269.49 2435.93 1269.49 2435.59 1271.02C2434.8 1271.19 2434.23 1271.38 2433.89 1271.59 2433.54 1271.8 2433.24 1272.11 2432.97 1272.52 2432.7 1272.94 2432.41 1273.59 2432.12 1274.48 2431.83 1275.36 2431.47 1276.81 2431.03 1278.81L2428.81 1288.77 2429.84 1288.77C2430.72 1288.77 2431.51 1288.63 2432.23 1288.34 2432.95 1288.05 2433.79 1287.51 2434.75 1286.74 2435.71 1285.97 2437.23 1284.56 2439.33 1282.49 2441.42 1280.43 2442.91 1278.86 2443.79 1277.79 2444.68 1276.72 2445.33 1275.79 2445.73 1275.01 2446.14 1274.23 2446.34 1273.51 2446.34 1272.87 2446.34 1272.35 2446.13 1271.93 2445.72 1271.6 2445.3 1271.28 2444.71 1271.09 2443.93 1271.02L2444.28 1269.49 2457.68 1269.49 2457.34 1271.02C2456.51 1271.15 2455.56 1271.58 2454.51 1272.32 2453.46 1273.06 2451.85 1274.5 2449.68 1276.65L2437.56 1288.46 2444.22 1304.46C2444.9 1306.11 2445.47 1307.3 2445.92 1308.02 2446.37 1308.75 2446.9 1309.33 2447.53 1309.76 2448.15 1310.19 2448.92 1310.47 2449.84 1310.62L2449.5 1312.15 2437.43 1312.15 2437.78 1310.62C2438.9 1310.51 2439.47 1310.01 2439.47 1309.12 2439.47 1308.56 2439.35 1307.92 2439.12 1307.2 2438.89 1306.48 2438.62 1305.73 2438.31 1304.96L2434.25 1295.02C2433.77 1293.84 2433.35 1293 2433 1292.52 2432.64 1292.05 2432.27 1291.71 2431.87 1291.52 2431.48 1291.34 2430.86 1291.24 2430.03 1291.24L2428.28 1291.24 2425.68 1303.06C2425.41 1304.31 2425.24 1305.29 2425.15 1306.01 2425.07 1306.73 2425.03 1307.37 2425.03 1307.93 2425.03 1308.87 2425.26 1309.53 2425.73 1309.92 2426.2 1310.3 2426.99 1310.54 2428.09 1310.62L2427.75 1312.15 2415.25 1312.15 2415.59 1310.62C2416.38 1310.49 2416.98 1310.29 2417.37 1310.01 2417.77 1309.73 2418.1 1309.34 2418.37 1308.84 2418.64 1308.34 2418.89 1307.73 2419.12 1307.01 2419.35 1306.29 2419.7 1304.9 2420.15 1302.84L2425.47 1278.77C2425.92 1276.69 2426.15 1275.01 2426.15 1273.74 2426.15 1272.76 2425.91 1272.08 2425.42 1271.7 2424.93 1271.31 2424.15 1271.09 2423.09 1271.02Z" fill="#548235" fill-rule="evenodd"/><text fill="#000000" fill-opacity="0" font-family="Arial,Arial_MSFontService,sans-serif" font-size="42.6562" x="2415.25" y="1306.82">𝐾</text><path d="M2486.66 1304.62 2488.24 1304.62 2483.47 1327.11C2483.09 1328.86 2482.59 1330.35 2481.99 1331.6 2481.38 1332.85 2480.65 1333.87 2479.77 1334.66 2478.9 1335.46 2477.88 1336.04 2476.72 1336.42 2475.56 1336.79 2474.23 1336.98 2472.73 1336.98 2472.33 1336.98 2471.95 1336.96 2471.58 1336.92 2471.21 1336.89 2470.88 1336.83 2470.59 1336.75L2471.17 1334.34C2471.35 1334.42 2471.6 1334.47 2471.9 1334.49 2472.21 1334.51 2472.56 1334.53 2472.96 1334.53 2473.71 1334.53 2474.38 1334.43 2474.97 1334.23 2475.55 1334.03 2476.08 1333.67 2476.55 1333.15 2477.02 1332.63 2477.44 1331.91 2477.81 1331 2478.19 1330.09 2478.53 1328.93 2478.86 1327.5 2479.39 1325.03 2479.9 1322.7 2480.39 1320.53 2480.88 1318.35 2481.28 1316.53 2481.6 1315.07 2481.91 1313.6 2482.16 1312.43 2482.34 1311.55 2482.53 1310.68 2482.66 1310.01 2482.75 1309.53 2482.83 1309.06 2482.88 1308.72 2482.89 1308.52 2482.91 1308.33 2482.92 1308.17 2482.92 1308.04 2482.92 1307.51 2482.72 1307.11 2482.31 1306.86 2481.9 1306.61 2481.19 1306.47 2480.16 1306.44L2480.51 1304.88ZM2464.04 1304.62 2465.16 1304.62 2461.76 1319.91C2461.55 1320.81 2461.4 1321.53 2461.32 1322.06 2461.23 1322.6 2461.19 1323.08 2461.19 1323.51 2461.19 1324.09 2461.31 1324.51 2461.55 1324.77 2461.78 1325.03 2462.14 1325.16 2462.61 1325.16 2462.89 1325.16 2463.16 1325.11 2463.44 1325 2463.71 1324.9 2464.01 1324.73 2464.32 1324.5 2464.64 1324.27 2464.98 1323.97 2465.36 1323.61 2465.73 1323.25 2466.15 1322.82 2466.61 1322.32L2468.17 1323.83C2467.37 1324.64 2466.65 1325.33 2466 1325.89 2465.35 1326.44 2464.73 1326.9 2464.15 1327.25 2463.57 1327.6 2463 1327.86 2462.44 1328.01 2461.88 1328.16 2461.29 1328.24 2460.66 1328.24 2460.08 1328.24 2459.56 1328.13 2459.09 1327.92 2458.62 1327.7 2458.22 1327.41 2457.89 1327.03 2457.55 1326.66 2457.29 1326.21 2457.11 1325.69 2456.92 1325.17 2456.83 1324.6 2456.83 1323.97 2456.83 1323.46 2456.89 1322.84 2457.01 1322.09 2457.14 1321.34 2457.29 1320.52 2457.48 1319.64 2457.68 1318.76 2457.89 1317.84 2458.11 1316.88 2458.34 1315.91 2458.57 1314.96 2458.79 1314.01 2459.01 1313.06 2459.21 1312.15 2459.39 1311.27 2459.56 1310.39 2459.69 1309.59 2459.77 1308.87 2459.8 1308.75 2459.81 1308.63 2459.81 1308.51 2459.81 1308.4 2459.81 1308.3 2459.81 1308.2 2459.78 1307.61 2459.57 1307.17 2459.18 1306.9 2458.79 1306.62 2458.1 1306.47 2457.11 1306.44L2457.38 1304.88ZM2503.41 1296.5 2505.07 1296.5 2501.03 1314.35 2501.67 1314.35C2502.25 1314.35 2502.88 1314.23 2503.55 1313.99 2504.22 1313.74 2504.89 1313.42 2505.56 1313.03 2506.22 1312.64 2506.86 1312.2 2507.47 1311.71 2508.09 1311.22 2508.63 1310.73 2509.09 1310.23 2509.56 1309.74 2509.93 1309.27 2510.21 1308.82 2510.48 1308.38 2510.62 1308 2510.62 1307.7 2510.62 1307.33 2510.5 1307.03 2510.25 1306.8 2510.01 1306.57 2509.56 1306.42 2508.92 1306.34L2509.2 1304.88 2517.46 1304.88 2518.03 1306.3C2517.07 1307.12 2516.14 1307.89 2515.25 1308.59 2514.37 1309.3 2513.5 1309.97 2512.65 1310.62 2511.8 1311.27 2510.95 1311.91 2510.1 1312.54 2509.25 1313.17 2508.39 1313.82 2507.5 1314.49 2507.86 1315.65 2508.24 1316.84 2508.62 1318.04 2509 1319.24 2509.39 1320.43 2509.77 1321.61 2509.95 1322.23 2510.13 1322.77 2510.29 1323.22 2510.45 1323.67 2510.62 1324.04 2510.8 1324.33 2510.99 1324.61 2511.19 1324.82 2511.4 1324.96 2511.61 1325.09 2511.87 1325.16 2512.18 1325.16 2512.39 1325.16 2512.62 1325.12 2512.84 1325.05 2513.07 1324.97 2513.33 1324.83 2513.61 1324.63 2513.9 1324.44 2514.22 1324.16 2514.58 1323.82 2514.94 1323.48 2515.35 1323.04 2515.81 1322.52L2517.37 1324.02C2516.65 1324.75 2515.98 1325.38 2515.36 1325.92 2514.74 1326.46 2514.15 1326.9 2513.59 1327.24 2513.03 1327.58 2512.49 1327.84 2511.97 1328 2511.45 1328.16 2510.92 1328.24 2510.39 1328.24 2509.43 1328.24 2508.65 1328 2508.06 1327.52 2507.47 1327.03 2506.97 1326.34 2506.56 1325.45 2506.14 1324.55 2505.77 1323.47 2505.42 1322.2 2505.08 1320.93 2504.68 1319.52 2504.22 1317.96 2504.11 1317.59 2504.01 1317.29 2503.91 1317.07 2503.81 1316.85 2503.68 1316.68 2503.53 1316.57 2503.37 1316.45 2503.18 1316.38 2502.95 1316.35 2502.72 1316.32 2502.43 1316.3 2502.08 1316.3L2500.61 1316.3 2498.09 1327.82 2493.68 1327.82 2499.24 1303.18C2499.42 1302.37 2499.55 1301.73 2499.63 1301.26 2499.7 1300.79 2499.74 1300.38 2499.74 1300.01 2499.74 1299.72 2499.69 1299.47 2499.59 1299.25 2499.49 1299.04 2499.33 1298.87 2499.1 1298.74 2498.87 1298.61 2498.56 1298.51 2498.18 1298.45 2497.8 1298.39 2497.32 1298.35 2496.76 1298.34L2497.1 1296.77ZM2485.81 1295.37 2490.42 1295.37 2489.3 1300.31 2484.68 1300.31ZM2462.7 1295.37 2467.29 1295.37 2466.17 1300.31 2461.63 1300.31Z" fill="#548235" fill-rule="evenodd"/><text fill="#000000" fill-opacity="0" font-family="Arial,Arial_MSFontService,sans-serif" font-size="41.6069" x="2456.83" y="1331.78">𝑖𝑗𝑘</text><path d="M2546.58 1276.74 2560.73 1290.87 2574.89 1276.74 2577.83 1279.65 2563.83 1293.9 2577.86 1308.09 2574.73 1311.21 2560.73 1296.93 2546.3 1311.09 2543.39 1308.15 2557.67 1293.9 2543.45 1279.87Z" fill-rule="evenodd"/><text fill="#000000" fill-opacity="0" font-family="Arial,Arial_MSFontService,sans-serif" font-size="34.4688" x="2543.39" y="1306.9">×</text><path d="M2620.85 1285.43C2619.79 1285.43 2618.74 1285.79 2617.71 1286.51 2616.68 1287.23 2615.55 1288.38 2614.32 1289.96 2613.09 1291.55 2612.13 1293.11 2611.45 1294.65 2610.76 1296.19 2610.22 1297.96 2609.82 1299.96L2609.57 1301.27C2609.36 1302.38 2609.23 1303.22 2609.18 1303.81 2609.13 1304.39 2609.1 1304.96 2609.1 1305.52 2609.1 1307.15 2609.45 1308.33 2610.15 1309.07 2610.85 1309.81 2612.05 1310.18 2613.76 1310.18 2614.82 1310.18 2615.8 1309.97 2616.7 1309.56 2617.59 1309.14 2618.44 1308.54 2619.24 1307.74 2620.05 1306.95 2620.77 1305.99 2621.42 1304.87 2622.06 1303.74 2622.64 1302.44 2623.15 1300.95 2623.66 1299.46 2624.05 1297.93 2624.31 1296.35 2624.57 1294.78 2624.7 1293.31 2624.7 1291.93 2624.7 1289.74 2624.39 1288.11 2623.78 1287.04 2623.16 1285.97 2622.19 1285.43 2620.85 1285.43ZM2607.7 1281.74C2608.99 1281.74 2610.01 1282.17 2610.78 1283.02 2611.54 1283.88 2611.92 1285.01 2611.92 1286.43 2611.92 1287.6 2611.68 1288.83 2611.2 1290.12L2611.57 1290.24C2615.43 1284.6 2619.26 1281.77 2623.07 1281.77 2625.34 1281.77 2627.11 1282.64 2628.37 1284.37 2629.63 1286.1 2630.26 1288.54 2630.26 1291.68 2630.26 1295.12 2629.57 1298.5 2628.18 1301.82 2626.8 1305.14 2624.87 1307.78 2622.42 1309.73 2619.96 1311.68 2617.21 1312.65 2614.17 1312.65 2611.4 1312.65 2609.09 1312.05 2607.26 1310.84L2605.82 1317.68C2605.51 1319.16 2605.35 1320.38 2605.35 1321.34 2605.35 1322.25 2605.59 1322.91 2606.06 1323.29 2606.53 1323.68 2607.44 1323.93 2608.79 1324.06L2608.54 1325.59 2598.88 1325.59 2606.42 1292.43C2606.85 1290.51 2607.07 1288.94 2607.07 1287.71 2607.07 1286.88 2606.94 1286.27 2606.67 1285.9 2606.4 1285.52 2605.97 1285.34 2605.38 1285.34 2604.74 1285.34 2604.06 1285.6 2603.34 1286.13 2602.62 1286.67 2601.63 1287.63 2600.38 1289.02L2598.6 1287.27C2600.48 1285.32 2602.07 1283.91 2603.37 1283.04 2604.67 1282.18 2606.11 1281.74 2607.7 1281.74Z" fill="#385723" fill-rule="evenodd"/><text fill="#000000" fill-opacity="0" font-family="Arial,Arial_MSFontService,sans-serif" font-size="43.8438" x="2598.6" y="1320.11">𝑝</text><path d="M2664.97 1304.83 2666.56 1304.83 2661.78 1327.32C2661.4 1329.06 2660.91 1330.56 2660.3 1331.81 2659.7 1333.05 2658.96 1334.07 2658.09 1334.87 2657.22 1335.67 2656.2 1336.25 2655.04 1336.63 2653.87 1337 2652.54 1337.19 2651.04 1337.19 2650.65 1337.19 2650.26 1337.17 2649.9 1337.13 2649.53 1337.09 2649.2 1337.03 2648.91 1336.96L2649.48 1334.55C2649.67 1334.63 2649.91 1334.67 2650.22 1334.7 2650.52 1334.72 2650.87 1334.73 2651.27 1334.73 2652.02 1334.73 2652.69 1334.63 2653.28 1334.43 2653.87 1334.23 2654.4 1333.88 2654.86 1333.36 2655.33 1332.84 2655.75 1332.12 2656.13 1331.21 2656.5 1330.3 2656.85 1329.13 2657.17 1327.71 2657.71 1325.23 2658.22 1322.91 2658.71 1320.73 2659.2 1318.56 2659.6 1316.74 2659.91 1315.27 2660.23 1313.8 2660.48 1312.63 2660.66 1311.76 2660.84 1310.89 2660.98 1310.21 2661.06 1309.74 2661.14 1309.27 2661.19 1308.93 2661.21 1308.73 2661.22 1308.53 2661.23 1308.37 2661.23 1308.25 2661.23 1307.71 2661.03 1307.32 2660.62 1307.07 2660.22 1306.81 2659.5 1306.67 2658.48 1306.64L2658.82 1305.08ZM2642.35 1304.83 2643.48 1304.83 2640.08 1320.11C2639.86 1321.02 2639.72 1321.74 2639.63 1322.27 2639.55 1322.81 2639.5 1323.29 2639.5 1323.72 2639.5 1324.3 2639.62 1324.72 2639.86 1324.98 2640.1 1325.24 2640.45 1325.37 2640.93 1325.37 2641.2 1325.37 2641.48 1325.32 2641.75 1325.21 2642.03 1325.1 2642.32 1324.93 2642.64 1324.7 2642.95 1324.47 2643.3 1324.18 2643.67 1323.82 2644.04 1323.46 2644.46 1323.03 2644.92 1322.52L2646.48 1324.04C2645.69 1324.85 2644.96 1325.53 2644.31 1326.09 2643.66 1326.65 2643.05 1327.11 2642.47 1327.46 2641.88 1327.81 2641.31 1328.06 2640.76 1328.21 2640.2 1328.37 2639.6 1328.44 2638.98 1328.44 2638.4 1328.44 2637.87 1328.34 2637.41 1328.12 2636.94 1327.91 2636.54 1327.61 2636.2 1327.24 2635.86 1326.86 2635.6 1326.42 2635.42 1325.9 2635.24 1325.38 2635.14 1324.8 2635.14 1324.18 2635.14 1323.67 2635.21 1323.04 2635.33 1322.29 2635.45 1321.54 2635.61 1320.73 2635.8 1319.85 2635.99 1318.97 2636.2 1318.05 2636.43 1317.08 2636.66 1316.12 2636.88 1315.16 2637.11 1314.22 2637.33 1313.27 2637.53 1312.35 2637.7 1311.47 2637.88 1310.59 2638.01 1309.79 2638.08 1309.07 2638.11 1308.95 2638.13 1308.83 2638.13 1308.72 2638.13 1308.6 2638.13 1308.5 2638.13 1308.41 2638.1 1307.81 2637.89 1307.38 2637.5 1307.1 2637.11 1306.83 2636.41 1306.67 2635.42 1306.64L2635.7 1305.08ZM2681.73 1296.71 2683.38 1296.71 2679.34 1314.56 2679.98 1314.56C2680.56 1314.56 2681.19 1314.44 2681.87 1314.19 2682.54 1313.95 2683.21 1313.63 2683.87 1313.24 2684.54 1312.85 2685.18 1312.41 2685.79 1311.92 2686.4 1311.43 2686.94 1310.94 2687.41 1310.44 2687.87 1309.94 2688.25 1309.47 2688.52 1309.03 2688.8 1308.59 2688.93 1308.21 2688.93 1307.9 2688.93 1307.54 2688.81 1307.24 2688.57 1307.01 2688.32 1306.78 2687.88 1306.63 2687.24 1306.55L2687.51 1305.08 2695.77 1305.08 2696.35 1306.5C2695.38 1307.33 2694.46 1308.1 2693.57 1308.8 2692.68 1309.5 2691.81 1310.18 2690.96 1310.83 2690.12 1311.48 2689.27 1312.12 2688.42 1312.75 2687.57 1313.37 2686.7 1314.02 2685.81 1314.7 2686.18 1315.86 2686.55 1317.04 2686.94 1318.24 2687.32 1319.44 2687.7 1320.63 2688.08 1321.81 2688.27 1322.44 2688.44 1322.98 2688.6 1323.43 2688.76 1323.88 2688.93 1324.25 2689.12 1324.53 2689.3 1324.81 2689.5 1325.02 2689.71 1325.16 2689.93 1325.3 2690.19 1325.37 2690.49 1325.37 2690.71 1325.37 2690.93 1325.33 2691.16 1325.25 2691.39 1325.18 2691.65 1325.04 2691.93 1324.84 2692.21 1324.64 2692.53 1324.37 2692.89 1324.03 2693.25 1323.68 2693.66 1323.25 2694.12 1322.73L2695.68 1324.22C2694.96 1324.96 2694.29 1325.59 2693.67 1326.13 2693.05 1326.66 2692.46 1327.1 2691.91 1327.45 2691.35 1327.79 2690.81 1328.04 2690.29 1328.2 2689.77 1328.36 2689.24 1328.44 2688.7 1328.44 2687.74 1328.44 2686.96 1328.2 2686.37 1327.72 2685.79 1327.24 2685.28 1326.55 2684.87 1325.66 2684.46 1324.76 2684.08 1323.68 2683.74 1322.41 2683.39 1321.14 2682.99 1319.72 2682.53 1318.16 2682.42 1317.8 2682.32 1317.5 2682.22 1317.28 2682.12 1317.06 2682 1316.89 2681.84 1316.77 2681.69 1316.66 2681.5 1316.59 2681.27 1316.56 2681.04 1316.53 2680.75 1316.51 2680.4 1316.51L2678.93 1316.51 2676.4 1328.03 2672 1328.03 2677.55 1303.38C2677.73 1302.57 2677.86 1301.93 2677.94 1301.47 2678.02 1301 2678.06 1300.58 2678.06 1300.22 2678.06 1299.93 2678.01 1299.67 2677.91 1299.46 2677.81 1299.24 2677.64 1299.07 2677.41 1298.94 2677.18 1298.81 2676.88 1298.72 2676.5 1298.66 2676.11 1298.59 2675.64 1298.56 2675.07 1298.54L2675.42 1296.98ZM2664.12 1295.58 2668.74 1295.58 2667.61 1300.51 2663 1300.51ZM2641.02 1295.58 2645.61 1295.58 2644.48 1300.51 2639.94 1300.51Z" fill="#385723" fill-rule="evenodd"/><text fill="#000000" fill-opacity="0" font-family="Arial,Arial_MSFontService,sans-serif" font-size="41.6069" x="2635.14" y="1331.99">𝑖𝑗𝑘</text><path d="M2643.13 1262.46C2644.26 1262.46 2645.13 1262.83 2645.75 1263.57 2646.37 1264.31 2646.68 1265.29 2646.68 1266.5 2646.68 1266.83 2646.66 1267.16 2646.61 1267.48 2646.57 1267.8 2646.48 1268.12 2646.36 1268.42L2646.64 1268.54C2648.09 1266.5 2649.54 1264.98 2651 1263.97 2652.45 1262.96 2653.94 1262.46 2655.47 1262.46 2657.09 1262.46 2658.31 1262.87 2659.11 1263.71 2659.91 1264.54 2660.31 1265.77 2660.31 1267.39 2660.31 1267.53 2660.31 1267.66 2660.31 1267.79 2660.31 1267.92 2660.3 1268.06 2660.27 1268.19L2660.36 1268.19C2661.78 1266.25 2663.2 1264.81 2664.61 1263.87 2666.01 1262.93 2667.48 1262.46 2669.01 1262.46 2670.63 1262.46 2671.85 1262.89 2672.65 1263.76 2673.45 1264.64 2673.85 1265.86 2673.85 1267.44 2673.85 1267.91 2673.78 1268.55 2673.63 1269.35 2673.47 1270.16 2673.29 1271.04 2673.06 1272 2672.84 1272.97 2672.6 1273.97 2672.34 1275 2672.08 1276.03 2671.84 1277.01 2671.61 1277.92 2671.47 1278.52 2671.36 1279.01 2671.27 1279.38 2671.19 1279.76 2671.12 1280.07 2671.08 1280.32 2671.03 1280.57 2671 1280.79 2670.99 1280.98 2670.97 1281.16 2670.96 1281.36 2670.96 1281.57 2670.96 1282.15 2671.07 1282.57 2671.28 1282.84 2671.5 1283.1 2671.84 1283.23 2672.32 1283.23 2672.59 1283.23 2672.87 1283.17 2673.14 1283.06 2673.42 1282.96 2673.71 1282.79 2674.03 1282.56 2674.34 1282.33 2674.69 1282.04 2675.06 1281.68 2675.43 1281.32 2675.85 1280.88 2676.31 1280.38L2677.89 1281.89C2677.16 1282.66 2676.48 1283.32 2675.84 1283.87 2675.21 1284.42 2674.59 1284.87 2674 1285.23 2673.42 1285.59 2672.83 1285.86 2672.25 1286.04 2671.67 1286.21 2671.06 1286.3 2670.41 1286.3 2669.83 1286.3 2669.3 1286.19 2668.83 1285.98 2668.35 1285.76 2667.95 1285.47 2667.62 1285.1 2667.3 1284.72 2667.04 1284.28 2666.86 1283.76 2666.67 1283.25 2666.58 1282.69 2666.58 1282.08 2666.58 1280.82 2666.85 1279.21 2667.38 1277.24 2667.67 1276.24 2667.94 1275.29 2668.18 1274.38 2668.41 1273.47 2668.61 1272.63 2668.78 1271.85 2668.95 1271.08 2669.09 1270.39 2669.18 1269.79 2669.28 1269.18 2669.33 1268.68 2669.33 1268.29 2669.33 1267.34 2669.15 1266.64 2668.79 1266.2 2668.44 1265.75 2667.87 1265.53 2667.11 1265.53 2666.63 1265.53 2666.13 1265.65 2665.59 1265.9 2665.06 1266.14 2664.52 1266.48 2663.98 1266.92 2663.43 1267.36 2662.9 1267.87 2662.38 1268.47 2661.86 1269.07 2661.38 1269.71 2660.93 1270.41 2660.49 1271.1 2660.1 1271.83 2659.75 1272.6 2659.41 1273.36 2659.14 1274.14 2658.96 1274.92L2656.69 1285.89 2652.21 1285.89C2652.43 1284.91 2652.67 1283.86 2652.94 1282.73 2653.2 1281.61 2653.48 1280.47 2653.75 1279.32 2654.03 1278.18 2654.29 1277.04 2654.54 1275.93 2654.8 1274.81 2655.02 1273.77 2655.22 1272.79 2655.42 1271.82 2655.58 1270.95 2655.7 1270.18 2655.82 1269.41 2655.89 1268.79 2655.89 1268.33 2655.89 1267.37 2655.7 1266.66 2655.32 1266.21 2654.95 1265.76 2654.35 1265.53 2653.52 1265.53 2652.79 1265.53 2652 1265.81 2651.16 1266.36 2650.32 1266.91 2649.52 1267.63 2648.76 1268.53 2648 1269.42 2647.33 1270.43 2646.73 1271.56 2646.13 1272.68 2645.71 1273.82 2645.47 1274.96L2643.13 1285.89 2638.63 1285.89 2642.07 1270.92C2642.27 1270.1 2642.41 1269.38 2642.51 1268.77 2642.6 1268.16 2642.64 1267.65 2642.64 1267.25 2642.64 1266.14 2642.19 1265.58 2641.29 1265.58 2641.01 1265.58 2640.74 1265.63 2640.45 1265.75 2640.17 1265.86 2639.87 1266.04 2639.56 1266.27 2639.24 1266.5 2638.9 1266.79 2638.54 1267.14 2638.17 1267.49 2637.76 1267.9 2637.3 1268.38L2635.71 1266.89C2636.46 1266.12 2637.16 1265.46 2637.79 1264.9 2638.43 1264.34 2639.04 1263.88 2639.63 1263.52 2640.22 1263.16 2640.79 1262.9 2641.36 1262.72 2641.93 1262.54 2642.51 1262.46 2643.13 1262.46Z" fill="#385723" fill-rule="evenodd"/><text fill="#000000" fill-opacity="0" font-family="Arial,Arial_MSFontService,sans-serif" font-size="23.8442" x="2635.71" y="1283.32">𝑚</text><path d="M1524.83 1007.69 1883.51 1243.45 1877.85 1252.07 1519.17 1016.31ZM1884.87 1232 1902.23 1261.92 1867.88 1257.85Z" fill="#3F6EC3"/><text fill="#4472C4" font-family="Open Sans,Open Sans_MSFontService,sans-serif" font-weight="700" font-size="64" transform="matrix(1 0 0 1 531.661 917)">modèle 1 </text><text fill="#4472C4" font-family="Open Sans,Open Sans_MSFontService,sans-serif" font-weight="400" font-size="64" transform="matrix(1 0 0 1 839.891 917)">: réseau de routes, de </text><text fill="#4472C4" font-family="Open Sans,Open Sans_MSFontService,sans-serif" font-weight="400" font-size="64" transform="matrix(1 0 0 1 625.62 994)">transport en commun (GTFS)</text><text fill="#4472C4" font-family="Open Sans,Open Sans_MSFontService,sans-serif" font-weight="400" font-size="64" transform="matrix(1 0 0 1 371.245 1071)">Trajets les plus courts, en intégrant le </text><text fill="#4472C4" font-family="Open Sans,Open Sans_MSFontService,sans-serif" font-weight="400" font-size="64" transform="matrix(1 0 0 1 618.745 1148)">coût de l’élévation (</text><text fill="#4472C4" font-family="Open Sans,Open Sans_MSFontService,sans-serif" font-weight="400" font-size="64" transform="matrix(1 0 0 1 1194.53 1148)">dodgr</text><text fill="#4472C4" font-family="Open Sans,Open Sans_MSFontService,sans-serif" font-weight="400" font-size="64" transform="matrix(1 0 0 1 1373.28 1148)">, r5)</text><path d="M2071.5 1716.55 2069.96 1377.8 2080.27 1377.76 2081.81 1716.51ZM2059.67 1383.01 2075 1352 2090.61 1382.87Z" fill="#ED7D31"/><text fill="#ED7D31" font-family="Open Sans,Open Sans_MSFontService,sans-serif" font-weight="700" font-size="64" transform="matrix(1 0 0 1 1256.36 1828)">modèle 2</text><text fill="#ED7D31" font-family="Open Sans,Open Sans_MSFontService,sans-serif" font-weight="400" font-size="64" transform="matrix(1 0 0 1 1564.59 1828)">: </text><text fill="#ED7D31" font-family="Open Sans,Open Sans_MSFontService,sans-serif" font-weight="400" font-size="64" transform="matrix(1 0 0 1 1597.81 1828)">flux commune</text><text fill="#ED7D31" font-family="Open Sans,Open Sans_MSFontService,sans-serif" font-weight="400" font-size="64" transform="matrix(1 0 0 1 2045.84 1828)">de résidence à commune de </text><text fill="#ED7D31" font-family="Open Sans,Open Sans_MSFontService,sans-serif" font-weight="400" font-size="64" transform="matrix(1 0 0 1 1528.49 1905)">travail, fichier détail du recensement</text><text fill="#ED7D31" font-family="Open Sans,Open Sans_MSFontService,sans-serif" font-weight="400" font-size="64" transform="matrix(1 0 0 1 1289.59 1982)">Modélisé au carreau par MEAPS, ajusté sur MOBPRO</text><text fill="#70AD47" font-family="Open Sans,Open Sans_MSFontService,sans-serif" font-weight="700" font-size="64" transform="matrix(1 0 0 1 1579.14 609)">modèle 3</text><text fill="#70AD47" font-family="Open Sans,Open Sans_MSFontService,sans-serif" font-weight="400" font-size="64" transform="matrix(1 0 0 1 1887.37 609)">: fréquence des trajets, estimés </text><text fill="#70AD47" font-family="Open Sans,Open Sans_MSFontService,sans-serif" font-weight="400" font-size="64" transform="matrix(1 0 0 1 1558.22 686)">sur l’enquête mobilité des personnes, pour </text><text fill="#70AD47" font-family="Open Sans,Open Sans_MSFontService,sans-serif" font-weight="400" font-size="64" transform="matrix(1 0 0 1 1642.16 763)">les différents motifs, pour différentes </text><text fill="#70AD47" font-family="Open Sans,Open Sans_MSFontService,sans-serif" font-weight="400" font-size="64" transform="matrix(1 0 0 1 1624.98 840)">catégories sociales (poisson généralisé </text><text fill="#70AD47" font-family="Open Sans,Open Sans_MSFontService,sans-serif" font-weight="400" font-size="64" transform="matrix(1 0 0 1 1939.51 917)">Conway</text><text fill="#70AD47" font-family="Open Sans,Open Sans_MSFontService,sans-serif" font-weight="400" font-size="64" transform="matrix(1 0 0 1 2175.55 917)">-</text><text fill="#70AD47" font-family="Open Sans,Open Sans_MSFontService,sans-serif" font-weight="400" font-size="64" transform="matrix(1 0 0 1 2196.17 917)">Maxwell)</text><path d="M2.17008-4.67736 599.271 272.35 594.931 281.705-2.17008 4.67736ZM598.935 260.826 620.488 287.878 585.914 288.89Z" fill="#548235" transform="matrix(-1 0 0 1 3109.49 940)"/><text fill="#548235" font-family="Open Sans,Open Sans_MSFontService,sans-serif" font-weight="700" font-size="64" transform="matrix(1 0 0 1 3142.84 763)">modèle 4</text><text fill="#548235" font-family="Open Sans,Open Sans_MSFontService,sans-serif" font-weight="400" font-size="64" transform="matrix(1 0 0 1 3451.07 763)">: ampleur du détour </text><text fill="#548235" font-family="Open Sans,Open Sans_MSFontService,sans-serif" font-weight="400" font-size="64" transform="matrix(1 0 0 1 3142.84 840)">pour les boucles à motifs </text><text fill="#548235" font-family="Open Sans,Open Sans_MSFontService,sans-serif" font-weight="400" font-size="64" transform="matrix(1 0 0 1 3142.84 917)">multiples, estimés sur l’enquête </text><text fill="#548235" font-family="Open Sans,Open Sans_MSFontService,sans-serif" font-weight="400" font-size="64" transform="matrix(1 0 0 1 3142.84 994)">mobilité des personnes, pour </text><text fill="#548235" font-family="Open Sans,Open Sans_MSFontService,sans-serif" font-weight="400" font-size="64" transform="matrix(1 0 0 1 3142.84 1071)">différentes catégories sociales</text><text fill="#548235" font-family="Open Sans,Open Sans_MSFontService,sans-serif" font-weight="400" font-size="64" transform="matrix(1 0 0 1 3195.25 1148)">(</text><text fill="#548235" font-family="Open Sans,Open Sans_MSFontService,sans-serif" font-weight="400" font-size="64" transform="matrix(1 0 0 1 3214.15 1148)">logit</text><text fill="#548235" font-family="Open Sans,Open Sans_MSFontService,sans-serif" font-weight="400" font-size="64" transform="matrix(1 0 0 1 3359.1 1148)">bs/</text><text fill="#548235" font-family="Open Sans,Open Sans_MSFontService,sans-serif" font-weight="400" font-size="64" transform="matrix(1 0 0 1 3452.49 1148)">bns</text><text fill="#548235" font-family="Open Sans,Open Sans_MSFontService,sans-serif" font-weight="400" font-size="64" transform="matrix(1 0 0 1 3578.53 1148)">puis </text><text fill="#548235" font-family="Open Sans,Open Sans_MSFontService,sans-serif" font-weight="400" font-size="64" transform="matrix(1 0 0 1 3720.61 1148)">log</text><text fill="#548235" font-family="Open Sans,Open Sans_MSFontService,sans-serif" font-weight="400" font-size="64" transform="matrix(1 0 0 1 3809.99 1148)">-</text><text fill="#548235" font-family="Open Sans,Open Sans_MSFontService,sans-serif" font-weight="400" font-size="64" transform="matrix(1 0 0 1 3830.61 1148)">log par </text><text fill="#548235" font-family="Open Sans,Open Sans_MSFontService,sans-serif" font-weight="400" font-size="64" transform="matrix(1 0 0 1 3483.42 1226)">quantile</text><text fill="#548235" font-family="Arial,Arial_MSFontService,sans-serif" font-weight="400" font-size="64" transform="matrix(1 0 0 1 3728.63 1226)">)</text><path d="M3089.89 1547.25 2741.58 1368.36 2746.29 1359.19 3094.61 1538.08ZM2741.45 1379.89 2721 1352 2755.59 1352.37Z" fill="#385723"/><text fill="#385723" font-family="Open Sans,Open Sans_MSFontService,sans-serif" font-weight="700" font-size="64" transform="matrix(1 0 0 1 3103.61 1608)">modèle 5</text><text fill="#385723" font-family="Open Sans,Open Sans_MSFontService,sans-serif" font-weight="400" font-size="64" transform="matrix(1 0 0 1 3411.84 1608)">: choix modal (RUM), </text><text fill="#385723" font-family="Open Sans,Open Sans_MSFontService,sans-serif" font-weight="400" font-size="64" transform="matrix(1 0 0 1 3103.61 1685)">estimés sur l’enquête mobilité </text><text fill="#385723" font-family="Open Sans,Open Sans_MSFontService,sans-serif" font-weight="400" font-size="64" transform="matrix(1 0 0 1 3103.61 1762)">des personnes , </text><text fill="#385723" font-family="Open Sans,Open Sans_MSFontService,sans-serif" font-weight="400" font-size="64" transform="matrix(1 0 0 1 3592.31 1762)">contrôlé </text><text fill="#385723" font-family="Open Sans,Open Sans_MSFontService,sans-serif" font-weight="400" font-size="64" transform="matrix(1 0 0 1 3857.57 1762)">pour </text><text fill="#385723" font-family="Open Sans,Open Sans_MSFontService,sans-serif" font-weight="400" font-size="64" transform="matrix(1 0 0 1 3103.61 1839)">différentes catégories sociales</text><path d="M2205.11 960.323 2238.31 1211.08 2228.08 1212.44 2194.89 961.677ZM2247.85 1204.62 2236.58 1237.32 2217.18 1208.68Z" fill="#70AD47"/></g></svg>