<svg width="1890" height="2028" xmlns="http://www.w3.org/2000/svg" xmlns:xlink="http://www.w3.org/1999/xlink" xml:space="preserve" overflow="hidden"><defs><clipPath id="clip0"><rect x="384" y="212" width="1890" height="2028"/></clipPath></defs><g clip-path="url(#clip0)" transform="translate(-384 -212)"><rect x="384" y="212" width="1890" height="2028" fill="#FFFFFF"/><g><g><g><path d="M591.5 888.125 591.5 865.375 580.667 865.375 580.667 877.833 559 857.25 559 857.25 502.125 911.417 508.219 916.563 559 868.354 559 868.354 609.781 916.563 615.875 911.417Z"/><path d="M518.375 914.531 518.375 954.75 550.875 954.75 550.875 920.896 567.125 920.896 567.125 954.75 599.625 954.75 599.625 914.531 559 875.938 518.375 914.531ZM542.75 937.146 526.5 937.146 526.5 920.896 542.75 920.896 542.75 937.146ZM575.25 920.896 591.5 920.896 591.5 937.146 575.25 937.146 575.25 920.896Z"/></g></g></g><g><g><g><path d="M75.8333 72.2515 75.8333 53.2932 39.1178 72.3314 35.1135 17.6042 21.7614 17.6042 17.6042 74.4791 17.6042 112.396 112.396 112.396 112.396 53.2932ZM32.5948 20.3125 33.0904 27.0833 23.7846 27.0833 24.2802 20.3125ZM23.5855 29.7917 33.2895 29.7917 36.4596 73.125 20.4154 73.125ZM38.3229 75.7913 73.125 57.7484 73.125 76.7067 109.687 57.7484 109.687 109.687 20.3125 109.687 20.3125 75.8333 36.6573 75.8333Z" transform="matrix(1 0 0 1 2130 973)"/><path d="M27.0833 101.562 48.75 101.562 48.75 88.0208 27.0833 88.0208ZM46.0416 98.8541 39.2708 98.8541 39.2708 90.7291 46.0416 90.7291ZM29.7917 90.7291 36.5625 90.7291 36.5625 98.8541 29.7917 98.8541Z" transform="matrix(1 0 0 1 2130 973)"/><path d="M54.1666 101.562 75.8333 101.562 75.8333 88.0208 54.1666 88.0208ZM73.125 98.8541 66.3541 98.8541 66.3541 90.7291 73.125 90.7291ZM56.875 90.7291 63.6458 90.7291 63.6458 98.8541 56.875 98.8541Z" transform="matrix(1 0 0 1 2130 973)"/><path d="M102.917 88.0208 81.25 88.0208 81.25 101.562 102.917 101.562ZM83.9583 90.7291 90.7291 90.7291 90.7291 98.8541 83.9583 98.8541ZM100.208 98.8541 93.4375 98.8541 93.4375 90.7291 100.208 90.7291Z" transform="matrix(1 0 0 1 2130 973)"/></g></g></g><path d="M624.699 904.217 2107.58 1033.5 2107.18 1038.07 624.301 908.783ZM2104.01 1021.69 2130.21 1037.78 2101.62 1049.09Z" fill="#4472C4"/><g><g><g><path d="M41.9791 41.9791 27.0833 41.9791 27.0833 32.5 41.9791 32.5 41.9791 41.9791ZM62.2916 32.5 62.2916 41.9791 47.3958 41.9791 47.3958 32.5 62.2916 32.5ZM82.6041 32.5 82.6041 41.9791 67.7083 41.9791 67.7083 32.5 82.6041 32.5ZM102.917 32.5 102.917 41.9791 88.0208 41.9791 88.0208 32.5 102.917 32.5ZM102.917 56.875 88.0208 56.875 88.0208 47.3958 102.917 47.3958 102.917 56.875ZM102.917 68.3854 88.0208 69.7395 88.0208 62.2916 102.917 62.2916 102.917 68.3854ZM41.9791 62.2916 41.9791 73.802 27.0833 75.1562 27.0833 62.2916 41.9791 62.2916ZM41.9791 56.875 27.0833 56.875 27.0833 47.3958 41.9791 47.3958 41.9791 56.875ZM62.2916 56.875 47.3958 56.875 47.3958 47.3958 62.2916 47.3958 62.2916 56.875ZM67.7083 56.875 67.7083 47.3958 82.6041 47.3958 82.6041 56.875 67.7083 56.875ZM62.2916 72.0416 47.3958 73.3958 47.3958 62.2916 62.2916 62.2916 62.2916 72.0416ZM67.7083 62.2916 82.6041 62.2916 82.6041 70.1458 67.7083 71.5 67.7083 62.2916ZM111.042 75.8333 111.042 24.375 27.0833 24.375 27.0833 23.0208C27.0833 16.25 21.6667 10.8333 14.8958 10.8333 12.5937 10.8333 10.8333 12.5937 10.8333 14.8958 10.8333 17.1979 12.5937 18.9583 14.8958 18.9583 17.1979 18.9583 18.9583 20.7187 18.9583 23.0208L18.9583 90.7291C18.9583 97.5 24.375 102.917 31.1458 102.917L35.2083 102.917 94.7916 102.917 106.979 102.917C109.281 102.917 111.042 101.156 111.042 98.8541 111.042 96.552 109.281 94.7916 106.979 94.7916L31.1458 94.7916C28.8437 94.7916 27.0833 93.0312 27.0833 90.7291L27.0833 83.2812 111.042 75.8333Z" transform="matrix(1 0 0 1 1794 1118)"/><path d="M43.3333 111.042C43.3333 115.529 39.6956 119.167 35.2083 119.167 30.721 119.167 27.0833 115.529 27.0833 111.042 27.0833 106.554 30.721 102.917 35.2083 102.917 39.6956 102.917 43.3333 106.554 43.3333 111.042Z" transform="matrix(1 0 0 1 1794 1118)"/><path d="M102.917 111.042C102.917 115.529 99.2789 119.167 94.7916 119.167 90.3043 119.167 86.6666 115.529 86.6666 111.042 86.6666 106.554 90.3043 102.917 94.7916 102.917 99.2789 102.917 102.917 106.554 102.917 111.042Z" transform="matrix(1 0 0 1 1794 1118)"/></g></g></g><g><g><g><path d="M464 1214.17C466.992 1214.17 469.417 1211.75 469.417 1208.76 469.417 1205.77 466.992 1203.34 464 1203.34 461.009 1203.34 458.583 1205.77 458.583 1208.76 458.552 1211.72 460.926 1214.14 463.886 1214.17 463.924 1214.17 463.962 1214.17 464 1214.17ZM464 1206.05C465.496 1206.05 466.708 1207.26 466.708 1208.76 466.708 1210.25 465.496 1211.47 464 1211.47 462.504 1211.47 461.292 1210.25 461.292 1208.76 461.258 1207.29 462.416 1206.08 463.88 1206.05 463.92 1206.05 463.96 1206.05 464 1206.05Z"/><path d="M481.604 1211.47 481.604 1205.38 482.168 1205.95 489.223 1198.82 464 1174.61 438.228 1199.23 445.413 1206.37 446.396 1205.39 446.396 1211.47 413.896 1211.47 413.896 1260.23 454.521 1260.23 454.521 1245.44C454.521 1240.2 458.765 1235.96 464 1235.96 469.235 1235.96 473.479 1240.2 473.479 1245.44L473.479 1260.23 514.104 1260.23 514.104 1211.47ZM445.406 1202.55 442.109 1199.27 464 1178.37 485.365 1198.87 482.162 1202.1 481.604 1201.55 481.604 1201.54 464 1183.94 446.396 1201.54 446.396 1201.56ZM511.396 1257.52 476.188 1257.52 476.188 1245.44C476.188 1238.71 470.731 1233.25 464 1233.25 457.269 1233.25 451.813 1238.71 451.813 1245.44L451.813 1257.52 416.604 1257.52 416.604 1214.17 449.104 1214.17 449.104 1202.68 450.92 1200.86 450.92 1200.86 464 1187.76 475.89 1199.66 475.89 1199.66 478.896 1202.68 478.896 1214.17 511.396 1214.17Z"/><path d="M424.729 1222.42 427.438 1222.42 427.438 1233.25 424.729 1233.25Z"/><path d="M432.854 1222.42 435.563 1222.42 435.563 1233.25 432.854 1233.25Z"/><path d="M424.729 1238.67 427.438 1238.67 427.438 1249.5 424.729 1249.5Z"/><path d="M432.854 1238.67 435.563 1238.67 435.563 1249.5 432.854 1249.5Z"/><path d="M440.979 1222.42 443.688 1222.42 443.688 1233.25 440.979 1233.25Z"/><path d="M440.979 1238.67 443.688 1238.67 443.688 1249.5 440.979 1249.5Z"/><path d="M484.313 1222.42 487.021 1222.42 487.021 1233.25 484.313 1233.25Z"/><path d="M492.438 1222.42 495.146 1222.42 495.146 1233.25 492.438 1233.25Z"/><path d="M484.313 1238.67 487.021 1238.67 487.021 1249.5 484.313 1249.5Z"/><path d="M492.438 1238.67 495.146 1238.67 495.146 1249.5 492.438 1249.5Z"/><path d="M500.563 1222.42 503.271 1222.42 503.271 1233.25 500.563 1233.25Z"/><path d="M500.563 1238.67 503.271 1238.67 503.271 1249.5 500.563 1249.5Z"/><path d="M454.521 1222.42 473.479 1222.42 473.479 1225.12 454.521 1225.12Z"/></g></g></g><path d="M1.32203-1.87189 187.83 129.85 185.186 133.594-1.32203 1.87189ZM190.696 117.846 205.227 144.942 174.832 140.309Z" fill="#70AD47" transform="matrix(-1 0 0 1 2129.73 1038.5)"/><path d="M0.0618657-2.29083 1242.31 31.2571 1242.19 35.8388-0.0618657 2.29083ZM1238.03 19.679 1265.15 34.1664 1237.29 47.169Z" fill="#70AD47" transform="matrix(-1 0 0 1 1794.65 1183.5)"/><path d="M2.02975-1.06389 85.9818 159.104 81.9223 161.231-2.02975 1.06389ZM94.0027 149.725 94.591 180.465 69.6458 162.491Z" fill="#ED7D31" transform="matrix(1 0 0 -1 464.5 1151.96)"/><g><g><g><path d="M591.5 1474.12 591.5 1451.37 580.667 1451.37 580.667 1463.83 559 1443.25 559 1443.25 502.125 1497.42 508.219 1502.56 559 1454.35 559 1454.35 609.781 1502.56 615.875 1497.42Z"/><path d="M518.375 1500.53 518.375 1540.75 550.875 1540.75 550.875 1506.9 567.125 1506.9 567.125 1540.75 599.625 1540.75 599.625 1500.53 559 1461.94 518.375 1500.53ZM542.75 1523.15 526.5 1523.15 526.5 1506.9 542.75 1506.9 542.75 1523.15ZM575.25 1506.9 591.5 1506.9 591.5 1523.15 575.25 1523.15 575.25 1506.9Z"/></g></g></g><g><g><g><path d="M75.2502 71.6959 75.2502 52.8834 38.817 71.7752 34.8435 17.4688 21.5941 17.4688 17.4688 73.9064 17.4688 111.531 111.531 111.531 111.531 52.8834ZM32.3441 20.1563 32.8359 26.8751 23.6017 26.8751 24.0935 20.1563ZM23.4041 29.5626 33.0335 29.5626 36.1792 72.5626 20.2584 72.5626ZM38.0282 75.2085 72.5626 57.3043 72.5626 76.1169 108.844 57.3043 108.844 108.844 20.1563 108.844 20.1563 75.2502 36.3754 75.2502Z" transform="matrix(1.00775 0 0 1 2130 1557)"/><path d="M26.8751 100.781 48.3751 100.781 48.3751 87.3439 26.8751 87.3439ZM45.6876 98.0939 38.9688 98.0939 38.9688 90.0314 45.6876 90.0314ZM29.5626 90.0314 36.2813 90.0314 36.2813 98.0939 29.5626 98.0939Z" transform="matrix(1.00775 0 0 1 2130 1557)"/><path d="M53.7501 100.781 75.2502 100.781 75.2502 87.3439 53.7501 87.3439ZM72.5626 98.0939 65.8439 98.0939 65.8439 90.0314 72.5626 90.0314ZM56.4376 90.0314 63.1564 90.0314 63.1564 98.0939 56.4376 98.0939Z" transform="matrix(1.00775 0 0 1 2130 1557)"/><path d="M102.125 87.3439 80.6252 87.3439 80.6252 100.781 102.125 100.781ZM83.3127 90.0314 90.0314 90.0314 90.0314 98.0939 83.3127 98.0939ZM99.4377 98.0939 92.7189 98.0939 92.7189 90.0314 99.4377 90.0314Z" transform="matrix(1.00775 0 0 1 2130 1557)"/></g></g></g><path d="M624.697 1490.22 2107.58 1618.17 2107.18 1622.74 624.303 1494.78ZM2103.99 1606.36 2130.21 1622.42 2101.63 1633.76Z" fill="#4472C4"/><path d="M2110.21 1670.46 633.144 1546.7 633.527 1542.13 2110.59 1665.89ZM636.756 1558.5 610.5 1542.5 639.052 1531.09Z" fill="#ED7D31"/><g><g><g><path d="M96.7502 46.7626 96.7502 24.1875 86.0002 24.1875 86.0002 36.5501 64.5001 16.125 64.5001 16.125 8.06252 69.8751 14.1094 74.9814 64.5001 27.1438 64.5001 27.1438 114.891 74.9814 120.938 69.8751Z" transform="matrix(1 0 0 1.00775 1051 287)"/><path d="M24.1875 72.9658 24.1875 112.875 56.4376 112.875 56.4376 79.2814 72.5626 79.2814 72.5626 112.875 104.813 112.875 104.813 72.9658 64.5001 34.6688 24.1875 72.9658ZM48.3751 95.4064 32.2501 95.4064 32.2501 79.2814 48.3751 79.2814 48.3751 95.4064ZM80.6252 79.2814 96.7502 79.2814 96.7502 95.4064 80.6252 95.4064 80.6252 79.2814Z" transform="matrix(1 0 0 1.00775 1051 287)"/></g></g></g><g><g><g><path d="M75.2499 71.6957 75.2499 52.8832 38.8169 71.775 34.8434 17.4687 21.594 17.4687 17.4687 73.9062 17.4687 111.531 111.531 111.531 111.531 52.8832ZM32.344 20.1562 32.8358 26.875 23.6016 26.875 24.0934 20.1562ZM23.4041 29.5625 33.0334 29.5625 36.1791 72.5624 20.2584 72.5624ZM38.0281 75.2083 72.5624 57.3042 72.5624 76.1167 108.844 57.3042 108.844 108.844 20.1562 108.844 20.1562 75.2499 36.3753 75.2499Z" transform="matrix(1 0 0 1.00775 1665 646)"/><path d="M26.875 100.781 48.375 100.781 48.375 87.3437 26.875 87.3437ZM45.6875 98.0937 38.9687 98.0937 38.9687 90.0312 45.6875 90.0312ZM29.5625 90.0312 36.2812 90.0312 36.2812 98.0937 29.5625 98.0937Z" transform="matrix(1 0 0 1.00775 1665 646)"/><path d="M53.75 100.781 75.2499 100.781 75.2499 87.3437 53.75 87.3437ZM72.5624 98.0937 65.8437 98.0937 65.8437 90.0312 72.5624 90.0312ZM56.4375 90.0312 63.1562 90.0312 63.1562 98.0937 56.4375 98.0937Z" transform="matrix(1 0 0 1.00775 1665 646)"/><path d="M102.125 87.3437 80.6249 87.3437 80.6249 100.781 102.125 100.781ZM83.3124 90.0312 90.0312 90.0312 90.0312 98.0937 83.3124 98.0937ZM99.4374 98.0937 92.7187 98.0937 92.7187 90.0312 99.4374 90.0312Z" transform="matrix(1 0 0 1.00775 1665 646)"/></g></g></g><path d="M1116.94 415.252 1515.12 494.036 1514.23 498.532 1116.06 419.748ZM1512.84 481.906 1537.15 500.732 1507.51 508.883Z" fill="#4472C4"/><g><g><g><path d="M1577.98 476.979 1563.08 476.979 1563.08 467.5 1577.98 467.5 1577.98 476.979ZM1598.29 467.5 1598.29 476.979 1583.4 476.979 1583.4 467.5 1598.29 467.5ZM1618.6 467.5 1618.6 476.979 1603.71 476.979 1603.71 467.5 1618.6 467.5ZM1638.92 467.5 1638.92 476.979 1624.02 476.979 1624.02 467.5 1638.92 467.5ZM1638.92 491.875 1624.02 491.875 1624.02 482.396 1638.92 482.396 1638.92 491.875ZM1638.92 503.385 1624.02 504.74 1624.02 497.292 1638.92 497.292 1638.92 503.385ZM1577.98 497.292 1577.98 508.802 1563.08 510.156 1563.08 497.292 1577.98 497.292ZM1577.98 491.875 1563.08 491.875 1563.08 482.396 1577.98 482.396 1577.98 491.875ZM1598.29 491.875 1583.4 491.875 1583.4 482.396 1598.29 482.396 1598.29 491.875ZM1603.71 491.875 1603.71 482.396 1618.6 482.396 1618.6 491.875 1603.71 491.875ZM1598.29 507.042 1583.4 508.396 1583.4 497.292 1598.29 497.292 1598.29 507.042ZM1603.71 497.292 1618.6 497.292 1618.6 505.146 1603.71 506.5 1603.71 497.292ZM1647.04 510.833 1647.04 459.375 1563.08 459.375 1563.08 458.021C1563.08 451.25 1557.67 445.833 1550.9 445.833 1548.59 445.833 1546.83 447.594 1546.83 449.896 1546.83 452.198 1548.59 453.958 1550.9 453.958 1553.2 453.958 1554.96 455.719 1554.96 458.021L1554.96 525.729C1554.96 532.5 1560.37 537.917 1567.15 537.917L1571.21 537.917 1630.79 537.917 1642.98 537.917C1645.28 537.917 1647.04 536.156 1647.04 533.854 1647.04 531.552 1645.28 529.792 1642.98 529.792L1567.15 529.792C1564.84 529.792 1563.08 528.031 1563.08 525.729L1563.08 518.281 1647.04 510.833Z"/><path d="M1579.33 546.042C1579.33 550.529 1575.7 554.167 1571.21 554.167 1566.72 554.167 1563.08 550.529 1563.08 546.042 1563.08 541.554 1566.72 537.917 1571.21 537.917 1575.7 537.917 1579.33 541.554 1579.33 546.042Z"/><path d="M1638.92 546.042C1638.92 550.529 1635.28 554.167 1630.79 554.167 1626.3 554.167 1622.67 550.529 1622.67 546.042 1622.67 541.554 1626.3 537.917 1630.79 537.917 1635.28 537.917 1638.92 541.554 1638.92 546.042Z"/></g></g></g><g><g><g><path d="M957 621.174C959.992 621.174 962.417 618.749 962.417 615.757 962.417 612.766 959.992 610.34 957 610.34 954.009 610.34 951.583 612.766 951.583 615.757 951.552 618.717 953.926 621.142 956.886 621.174 956.924 621.174 956.962 621.174 957 621.174ZM957 613.049C958.496 613.049 959.708 614.261 959.708 615.757 959.708 617.253 958.496 618.465 957 618.465 955.504 618.465 954.292 617.253 954.292 615.757 954.258 614.294 955.416 613.08 956.88 613.046 956.92 613.045 956.96 613.045 957 613.046Z"/><path d="M974.604 618.465 974.604 612.384 975.168 612.947 982.223 605.82 957 581.615 931.228 606.233 938.413 613.371 939.396 612.387 939.396 618.465 906.896 618.465 906.896 667.228 947.521 667.228 947.521 652.437C947.521 647.202 951.765 642.958 957 642.958 962.235 642.958 966.479 647.202 966.479 652.437L966.479 667.228 1007.1 667.228 1007.1 618.465ZM938.406 609.547 935.109 606.271 957 585.371 978.365 605.87 975.162 609.104 974.604 608.553 974.604 608.543 957 590.939 939.396 608.543 939.396 608.562ZM1004.4 664.519 969.188 664.519 969.188 652.437C969.188 645.706 963.731 640.25 957 640.25 950.269 640.25 944.813 645.706 944.813 652.437L944.813 664.519 909.604 664.519 909.604 621.174 942.104 621.174 942.104 609.678 943.92 607.862 943.92 607.862 957 594.765 968.89 606.657 968.89 606.657 971.896 609.676 971.896 621.174 1004.4 621.174Z"/><path d="M917.729 629.417 920.438 629.417 920.438 640.25 917.729 640.25Z"/><path d="M925.854 629.417 928.563 629.417 928.563 640.25 925.854 640.25Z"/><path d="M917.729 645.667 920.438 645.667 920.438 656.5 917.729 656.5Z"/><path d="M925.854 645.667 928.563 645.667 928.563 656.5 925.854 656.5Z"/><path d="M933.979 629.417 936.688 629.417 936.688 640.25 933.979 640.25Z"/><path d="M933.979 645.667 936.688 645.667 936.688 656.5 933.979 656.5Z"/><path d="M977.312 629.417 980.021 629.417 980.021 640.25 977.312 640.25Z"/><path d="M985.438 629.417 988.146 629.417 988.146 640.25 985.438 640.25Z"/><path d="M977.312 645.667 980.021 645.667 980.021 656.5 977.312 656.5Z"/><path d="M985.438 645.667 988.146 645.667 988.146 656.5 985.438 656.5Z"/><path d="M993.562 629.417 996.271 629.417 996.271 640.25 993.562 640.25Z"/><path d="M993.562 645.667 996.271 645.667 996.271 656.5 993.562 656.5Z"/><path d="M947.521 629.417 966.479 629.417 966.479 632.125 947.521 632.125Z"/></g></g></g><path d="M1603.6 564.589 1657.91 690.015 1653.7 691.836 1599.4 566.41ZM1666.6 681.257 1664.91 711.956 1641.36 692.183Z" fill="#70AD47"/><path d="M1664.69 714.608 1044.9 629.875 1045.52 625.334 1665.31 710.066ZM1047.88 641.848 1022.5 624.5 1051.61 614.602Z" fill="#70AD47"/><path d="M2.08824-0.943925 86.132 184.986 81.9555 186.873-2.08824 0.943925ZM94.6854 176.089 93.483 206.812 69.6265 187.417Z" fill="#ED7D31" transform="matrix(1 0 0 -1 1022.5 624.312)"/><g><g><g><path d="M591.5 1872.12 591.5 1849.38 580.667 1849.38 580.667 1861.83 559 1841.25 559 1841.25 502.125 1895.42 508.219 1900.56 559 1852.35 559 1852.35 609.781 1900.56 615.875 1895.42Z"/><path d="M518.375 1898.53 518.375 1938.75 550.875 1938.75 550.875 1904.9 567.125 1904.9 567.125 1938.75 599.625 1938.75 599.625 1898.53 559 1859.94 518.375 1898.53ZM542.75 1921.15 526.5 1921.15 526.5 1904.9 542.75 1904.9 542.75 1921.15ZM575.25 1904.9 591.5 1904.9 591.5 1921.15 575.25 1921.15 575.25 1904.9Z"/></g></g></g><g><g><g><path d="M75.8333 72.2515 75.8333 53.2932 39.1178 72.3314 35.1135 17.6042 21.7614 17.6042 17.6042 74.4791 17.6042 112.396 112.396 112.396 112.396 53.2932ZM32.5948 20.3125 33.0904 27.0833 23.7846 27.0833 24.2802 20.3125ZM23.5855 29.7917 33.2895 29.7917 36.4596 73.125 20.4154 73.125ZM38.3229 75.7913 73.125 57.7484 73.125 76.7067 109.687 57.7484 109.687 109.687 20.3125 109.687 20.3125 75.8333 36.6573 75.8333Z" transform="matrix(1 0 0 1 2130 1961)"/><path d="M27.0833 101.562 48.75 101.562 48.75 88.0208 27.0833 88.0208ZM46.0416 98.8541 39.2708 98.8541 39.2708 90.7291 46.0416 90.7291ZM29.7917 90.7291 36.5625 90.7291 36.5625 98.8541 29.7917 98.8541Z" transform="matrix(1 0 0 1 2130 1961)"/><path d="M54.1666 101.562 75.8333 101.562 75.8333 88.0208 54.1666 88.0208ZM73.125 98.8541 66.3541 98.8541 66.3541 90.7291 73.125 90.7291ZM56.875 90.7291 63.6458 90.7291 63.6458 98.8541 56.875 98.8541Z" transform="matrix(1 0 0 1 2130 1961)"/><path d="M102.917 88.0208 81.25 88.0208 81.25 101.562 102.917 101.562ZM83.9583 90.7291 90.7291 90.7291 90.7291 98.8541 83.9583 98.8541ZM100.208 98.8541 93.4375 98.8541 93.4375 90.7291 100.208 90.7291Z" transform="matrix(1 0 0 1 2130 1961)"/></g></g></g><path d="M624.706 1888.22 2107.59 2022.11 2107.17 2026.68 624.294 1892.78ZM2104.06 2010.29 2130.21 2026.46 2101.58 2037.68Z" fill="#4472C4"/><path d="M781.833 2098.06 577.678 1969.64 580.118 1965.76 784.273 2094.18ZM575.457 1981.78 559.5 1955.5 590.099 1958.5Z" fill="#ED7D31"/><g><g><g><path d="M64.4999 61.6955C67.4684 61.6955 69.8749 59.289 69.8749 56.3205 69.8749 53.3521 67.4684 50.9455 64.4999 50.9455 61.5315 50.9455 59.125 53.3521 59.125 56.3205 59.0936 59.2577 61.4492 61.6642 64.3865 61.6955 64.4243 61.6959 64.4622 61.6959 64.4999 61.6955ZM64.4999 53.633C65.9843 53.633 67.1874 54.8362 67.1874 56.3205 67.1874 57.8049 65.9843 59.008 64.4999 59.008 63.0156 59.008 61.8125 57.8049 61.8125 56.3205 61.7787 54.8686 62.9284 53.6642 64.3804 53.6304 64.4203 53.6296 64.46 53.6294 64.4999 53.6304Z" transform="matrix(1 0 0 1.00776 783 2031)"/><path d="M81.9687 59.008 81.9687 52.9733 82.5277 53.5323 89.5286 46.4601 64.4999 22.4406 38.9257 46.87 46.0556 53.9529 47.0312 52.976 47.0312 59.008 14.7812 59.008 14.7812 107.395 55.0937 107.395 55.0937 92.7187C55.0937 87.5237 59.305 83.3124 64.4999 83.3124 69.6949 83.3124 73.9062 87.5237 73.9062 92.7187L73.9062 107.395 114.219 107.395 114.219 59.008ZM46.0489 50.1581 42.7769 46.9076 64.4999 26.1682 85.7003 46.5098 82.5223 49.7187 81.9687 49.1718 81.9687 49.1624 64.4999 31.6937 47.0312 49.1624 47.0312 49.1812ZM111.531 104.708 76.5937 104.708 76.5937 92.7187C76.5937 86.0394 71.1792 80.6249 64.4999 80.6249 57.8207 80.6249 52.4062 86.0394 52.4062 92.7187L52.4062 104.708 17.4687 104.708 17.4687 61.6955 49.7187 61.6955 49.7187 50.2885 51.5207 48.4865 51.5207 48.4865 64.4999 35.4898 76.2981 47.2906 76.2981 47.2906 79.2812 50.2858 79.2812 61.6955 111.531 61.6955Z" transform="matrix(1 0 0 1.00776 783 2031)"/><path d="M25.5312 69.8749 28.2187 69.8749 28.2187 80.6249 25.5312 80.6249Z" transform="matrix(1 0 0 1.00776 783 2031)"/><path d="M33.5937 69.8749 36.2812 69.8749 36.2812 80.6249 33.5937 80.6249Z" transform="matrix(1 0 0 1.00776 783 2031)"/><path d="M25.5312 85.9999 28.2187 85.9999 28.2187 96.7499 25.5312 96.7499Z" transform="matrix(1 0 0 1.00776 783 2031)"/><path d="M33.5937 85.9999 36.2812 85.9999 36.2812 96.7499 33.5937 96.7499Z" transform="matrix(1 0 0 1.00776 783 2031)"/><path d="M41.6562 69.8749 44.3437 69.8749 44.3437 80.6249 41.6562 80.6249Z" transform="matrix(1 0 0 1.00776 783 2031)"/><path d="M41.6562 85.9999 44.3437 85.9999 44.3437 96.7499 41.6562 96.7499Z" transform="matrix(1 0 0 1.00776 783 2031)"/><path d="M84.6562 69.8749 87.3437 69.8749 87.3437 80.6249 84.6562 80.6249Z" transform="matrix(1 0 0 1.00776 783 2031)"/><path d="M92.7187 69.8749 95.4062 69.8749 95.4062 80.6249 92.7187 80.6249Z" transform="matrix(1 0 0 1.00776 783 2031)"/><path d="M84.6562 85.9999 87.3437 85.9999 87.3437 96.7499 84.6562 96.7499Z" transform="matrix(1 0 0 1.00776 783 2031)"/><path d="M92.7187 85.9999 95.4062 85.9999 95.4062 96.7499 92.7187 96.7499Z" transform="matrix(1 0 0 1.00776 783 2031)"/><path d="M100.781 69.8749 103.469 69.8749 103.469 80.6249 100.781 80.6249Z" transform="matrix(1 0 0 1.00776 783 2031)"/><path d="M100.781 85.9999 103.469 85.9999 103.469 96.7499 100.781 96.7499Z" transform="matrix(1 0 0 1.00776 783 2031)"/><path d="M55.0937 69.8749 73.9062 69.8749 73.9062 72.5624 55.0937 72.5624Z" transform="matrix(1 0 0 1.00776 783 2031)"/></g></g></g><path d="M0.0789957-2.2903 1187.05 38.6498 1186.89 43.2304-0.0789957 2.2903ZM1182.86 27.0402 1209.87 41.73 1181.91 54.5239Z" fill="#70AD47" transform="matrix(-1 0 0 1 2122.37 2054.5)"/><text font-family="Open Sans,Open Sans_MSFontService,sans-serif" font-weight="400" font-size="55" transform="matrix(1 0 0 1 1287.57 371)">Boucle A</text><text font-family="Open Sans,Open Sans_MSFontService,sans-serif" font-weight="400" font-size="55" transform="matrix(1 0 0 1 1318.96 925)">Boucle B</text><text font-family="Open Sans,Open Sans_MSFontService,sans-serif" font-weight="400" font-size="55" transform="matrix(1 0 0 1 1319.54 1510)">Boucle C</text><text font-family="Open Sans,Open Sans_MSFontService,sans-serif" font-weight="400" font-size="55" transform="matrix(1 0 0 1 1319.54 1915)">Boucle D</text></g></svg>